{"glyphs":{"0":{"ha":942,"x_min":64,"x_max":922,"o":"m 415 -17 q 228 27 307 -17 q 107 153 150 71 q 64 351 64 236 q 101 599 64 483 q 204 802 138 714 q 365 940 271 890 q 571 989 458 989 q 758 945 679 989 q 879 819 836 901 q 922 621 922 738 q 885 374 922 489 q 782 170 849 258 q 622 33 715 82 q 415 -17 529 -17 m 436 174 q 549 216 500 174 q 630 326 597 258 q 679 471 663 394 q 696 615 696 547 q 657 755 696 711 q 550 799 618 799 q 438 756 486 799 q 356 646 389 714 q 307 501 324 578 q 290 357 290 425 q 330 218 290 263 q 436 174 369 174 z "},"1":{"ha":544,"x_min":93,"x_max":549,"o":"m 129 0 l 306 883 l 385 792 l 93 792 l 129 972 l 549 972 l 354 0 l 129 0 z "},"2":{"ha":819,"x_min":-29,"x_max":817,"o":"m -29 0 l 0 146 l 443 493 q 530 571 499 538 q 574 634 561 604 q 586 696 586 664 q 550 774 586 744 q 443 803 514 803 q 331 776 385 803 q 236 701 278 750 l 85 811 q 247 940 144 892 q 476 989 350 989 q 656 955 579 989 q 774 863 732 921 q 817 728 817 804 q 796 617 817 671 q 727 506 775 563 q 593 383 679 450 l 229 101 l 193 183 l 743 183 l 707 0 l -29 0 z "},"3":{"ha":822,"x_min":-47,"x_max":847,"o":"m 308 -17 q 108 13 201 -17 q -47 96 15 42 l 61 261 q 177 196 108 219 q 324 172 246 172 q 437 189 390 172 q 508 238 483 206 q 532 313 532 269 q 492 391 532 365 q 372 417 453 417 l 269 417 l 299 565 l 626 872 l 642 792 l 129 792 l 167 972 l 847 972 l 819 826 l 492 519 l 386 583 l 436 583 q 610 552 538 583 q 721 463 682 521 q 760 326 760 406 q 702 150 760 228 q 542 28 644 72 q 308 -17 440 -17 z "},"4":{"ha":957,"x_min":10,"x_max":949,"o":"m 10 204 l 39 356 l 611 972 l 857 972 l 294 356 l 181 388 l 949 388 l 911 204 l 10 204 m 492 0 l 533 204 l 579 388 l 615 569 l 825 569 l 711 0 l 492 0 z "},"5":{"ha":826,"x_min":-29,"x_max":850,"o":"m 328 -17 q 127 13 219 -17 q -29 96 35 42 l 79 261 q 195 196 126 219 q 342 172 264 172 q 496 210 442 172 q 550 314 550 247 q 507 395 550 365 q 361 425 464 425 l 97 425 l 256 972 l 850 972 l 813 792 l 300 792 l 439 894 l 325 504 l 228 607 l 414 607 q 687 536 596 607 q 778 340 778 465 q 720 151 778 232 q 561 27 663 71 q 328 -17 460 -17 z "},"6":{"ha":885,"x_min":64,"x_max":919,"o":"m 457 -17 q 253 28 343 -17 q 114 163 164 74 q 64 382 64 251 q 85 549 64 464 q 150 714 106 635 q 263 855 194 793 q 428 953 332 917 q 649 989 524 989 q 801 972 728 989 q 919 924 874 956 l 818 758 q 733 795 779 785 q 635 806 686 806 q 520 788 571 806 q 431 740 469 771 q 365 667 392 708 q 322 577 338 625 q 303 478 307 529 q 299 423 300 443 q 296 386 297 403 l 231 417 q 306 528 261 486 q 408 590 350 571 q 535 610 467 610 q 688 577 617 610 q 802 482 758 544 q 846 329 846 419 q 795 146 846 224 q 657 26 744 68 q 457 -17 569 -17 m 454 151 q 575 193 526 151 q 624 310 624 235 q 581 407 624 372 q 469 442 539 442 q 378 422 417 442 q 317 368 339 403 q 294 289 294 333 q 313 222 294 253 q 367 171 331 190 q 454 151 403 151 z "},"7":{"ha":861,"x_min":88,"x_max":935,"o":"m 136 0 l 696 886 l 743 789 l 219 789 l 340 894 l 288 631 l 88 631 l 156 972 l 935 972 l 906 826 l 386 0 l 136 0 z "},"8":{"ha":917,"x_min":31,"x_max":900,"o":"m 425 -17 q 216 17 304 -17 q 79 113 128 51 q 31 257 31 175 q 83 424 31 356 q 230 529 135 493 q 453 565 325 565 q 663 533 575 565 q 800 442 751 501 q 849 303 849 383 q 794 133 849 204 q 645 22 740 61 q 425 -17 550 -17 m 429 149 q 569 190 517 149 q 621 301 621 231 q 575 394 621 360 q 449 428 529 428 q 310 388 363 428 q 257 278 257 347 q 304 183 257 218 q 429 149 351 149 m 514 450 q 320 479 401 450 q 194 563 239 508 q 150 692 150 618 q 199 851 150 785 q 337 953 249 917 q 538 989 425 989 q 727 958 646 989 q 854 869 808 926 q 900 736 900 813 q 852 581 900 644 q 717 483 804 517 q 514 450 631 450 m 517 582 q 633 617 589 582 q 676 713 676 653 q 637 794 676 765 q 533 824 597 824 q 418 788 463 824 q 374 690 374 753 q 412 611 374 640 q 517 582 450 582 z "},"9":{"ha":885,"x_min":11,"x_max":867,"o":"m 475 989 q 678 944 590 989 q 817 810 767 899 q 867 590 867 722 q 846 423 867 508 q 781 258 825 338 q 667 117 736 179 q 503 19 599 56 q 283 -17 407 -17 q 131 0 204 -17 q 11 49 57 17 l 114 214 q 199 177 153 188 q 296 167 244 167 q 411 184 360 167 q 501 233 463 201 q 566 306 539 264 q 608 395 593 347 q 629 494 624 443 q 633 549 632 529 q 635 586 633 569 l 700 556 q 626 444 671 488 q 524 382 581 401 q 403 363 467 363 q 246 395 318 363 q 129 490 174 428 q 85 643 85 553 q 135 827 85 750 q 274 947 186 904 q 475 989 363 989 m 478 821 q 357 779 406 821 q 308 663 308 738 q 351 566 308 601 q 461 531 393 531 q 553 550 514 531 q 615 604 593 569 q 638 683 638 639 q 619 751 638 719 q 565 801 600 782 q 478 821 529 821 z "},"\u0000":{"ha":0,"x_min":0,"x_max":0,"o":""},"\r":{"ha":393,"x_min":0,"x_max":0,"o":""}," ":{"ha":393,"x_min":0,"x_max":0,"o":""},"!":{"ha":401,"x_min":15,"x_max":450,"o":"m 107 338 l 192 972 l 450 972 l 279 338 l 107 338 m 143 -11 q 51 23 88 -11 q 15 106 15 57 q 56 201 15 164 q 156 239 97 239 q 247 206 211 239 q 282 125 282 174 q 263 56 282 88 q 213 7 244 25 q 143 -11 182 -11 z "},"\"":{"ha":607,"x_min":124,"x_max":658,"o":"m 124 578 l 188 972 l 372 972 l 279 578 l 124 578 m 410 578 l 474 972 l 658 972 l 565 578 l 410 578 z "},"#":{"ha":1000,"x_min":-1,"x_max":1047,"o":"m 467 0 l 778 972 l 938 972 l 628 0 l 467 0 m -1 222 l 28 374 l 926 374 l 896 222 l -1 222 m 107 0 l 418 972 l 578 972 l 267 0 l 107 0 m 119 599 l 150 750 l 1047 750 l 1018 599 l 119 599 z "},"$":{"ha":886,"x_min":-11,"x_max":903,"o":"m 278 -167 l 539 1139 l 678 1139 l 417 -167 l 278 -167 m 381 -17 q 227 -2 301 -17 q 92 38 153 13 q -11 93 31 63 l 82 265 q 178 210 126 233 q 288 176 231 188 q 401 164 344 164 q 509 178 464 164 q 578 217 554 192 q 603 278 603 242 q 576 332 603 311 q 508 367 550 353 q 414 396 465 382 q 311 428 363 410 q 217 476 260 447 q 147 549 174 504 q 121 660 121 593 q 176 833 121 760 q 332 948 232 907 q 567 989 432 989 q 751 967 664 989 q 903 906 839 946 l 818 733 q 694 790 763 771 q 553 808 625 808 q 442 793 488 808 q 372 751 396 778 q 346 689 347 724 q 372 633 346 654 q 440 597 397 611 q 535 568 483 582 q 638 536 586 554 q 733 490 689 518 q 802 420 776 463 q 828 314 828 378 q 772 140 828 214 q 616 24 717 65 q 381 -17 515 -17 z "},"%":{"ha":1219,"x_min":103,"x_max":1161,"o":"m 119 0 l 968 972 l 1143 972 l 296 0 l 119 0 m 314 447 q 161 505 219 447 q 103 667 103 563 q 136 826 103 756 q 231 940 169 897 q 381 983 293 983 q 533 926 475 983 q 592 764 592 868 q 558 605 592 676 q 464 490 525 533 q 314 447 403 447 m 326 561 q 399 592 371 561 q 439 667 426 622 q 451 756 451 713 q 428 842 451 814 q 368 869 406 869 q 296 839 324 869 q 256 763 268 808 q 243 675 243 718 q 267 589 243 617 q 326 561 290 561 m 883 -11 q 731 46 789 -11 q 672 208 672 103 q 705 367 672 296 q 800 481 738 439 q 949 524 863 524 q 1103 466 1044 524 q 1161 304 1161 408 q 1128 145 1161 217 q 1033 31 1094 74 q 883 -11 971 -11 m 896 101 q 967 132 940 101 q 1008 208 994 163 q 1021 297 1021 254 q 997 383 1021 356 q 938 411 974 411 q 865 381 893 411 q 824 304 838 350 q 811 215 811 258 q 835 129 811 157 q 896 101 858 101 z "},"&":{"ha":1011,"x_min":25,"x_max":972,"o":"m 371 -17 q 192 13 269 -17 q 69 98 114 43 q 25 228 25 153 q 72 376 25 313 q 203 492 118 440 q 403 589 288 544 q 551 656 500 626 q 622 711 603 685 q 640 768 640 738 q 617 817 640 797 q 553 838 594 838 q 467 809 500 838 q 433 731 433 781 q 451 672 433 703 q 508 594 468 642 l 929 119 l 785 -17 l 324 508 q 257 607 279 558 q 235 710 235 656 q 279 858 235 796 q 398 952 324 919 q 561 985 472 985 q 697 962 638 985 q 790 894 756 939 q 824 786 824 850 q 781 653 824 710 q 658 551 738 596 q 471 463 579 506 q 344 403 396 432 q 267 341 293 374 q 242 265 242 308 q 281 185 242 217 q 399 153 321 153 q 556 192 479 153 q 699 310 633 232 q 807 501 764 389 l 972 447 q 824 199 914 303 q 618 39 733 94 q 371 -17 503 -17 z "},"'":{"ha":319,"x_min":124,"x_max":372,"o":"m 124 578 l 188 972 l 372 972 l 279 578 l 124 578 z "},"(":{"ha":496,"x_min":79,"x_max":613,"o":"m 154 -269 q 116 -156 133 -222 q 89 -16 99 -90 q 79 132 79 58 q 101 380 79 257 q 163 619 122 503 q 262 839 203 735 q 396 1031 321 943 l 613 1031 q 473 817 533 928 q 372 592 413 707 q 310 360 331 478 q 289 121 289 242 q 305 -74 289 22 q 353 -269 321 -169 l 154 -269 z "},")":{"ha":496,"x_min":-82,"x_max":451,"o":"m -82 -269 q 58 -56 -3 -165 q 160 169 119 54 q 221 402 200 283 q 242 640 242 521 q 226 835 242 739 q 178 1031 211 931 l 376 1031 q 415 917 399 983 q 442 778 432 851 q 451 629 451 704 q 430 381 451 504 q 367 142 408 258 q 268 -78 326 26 q 135 -269 210 -182 l -82 -269 z "},"*":{"ha":603,"x_min":75,"x_max":681,"o":"m 681 838 l 474 735 l 479 774 l 640 675 l 561 560 l 406 665 l 424 675 l 389 482 l 257 482 l 299 675 l 318 663 l 129 561 l 75 671 l 283 774 l 278 740 l 117 838 l 197 954 l 350 849 l 332 838 l 367 1031 l 497 1031 l 456 838 l 439 849 l 629 951 l 681 838 z "},"+":{"ha":833,"x_min":92,"x_max":786,"o":"m 285 165 l 413 807 l 593 807 l 465 165 l 285 165 m 92 401 l 125 571 l 786 571 l 753 401 l 92 401 z "},",":{"ha":364,"x_min":-56,"x_max":268,"o":"m -56 -214 l 103 119 l 125 -11 q 33 24 69 -11 q -3 114 -3 60 q 40 219 -3 179 q 142 258 82 258 q 233 224 197 258 q 268 133 268 189 q 257 76 268 103 q 219 10 246 50 l 81 -214 l -56 -214 z "},"-":{"ha":536,"x_min":58,"x_max":486,"o":"m 58 304 l 93 478 l 486 478 l 451 304 l 58 304 z "},".":{"ha":364,"x_min":-3,"x_max":268,"o":"m 125 -11 q 33 24 69 -11 q -3 114 -3 60 q 40 219 -3 179 q 142 258 82 258 q 233 224 197 258 q 268 133 268 189 q 248 58 268 90 q 196 7 228 25 q 125 -11 164 -11 z "},"/":{"ha":544,"x_min":-150,"x_max":765,"o":"m -150 -139 l 563 1169 l 765 1169 l 51 -139 l -150 -139 z "},":":{"ha":364,"x_min":-3,"x_max":368,"o":"m 225 488 q 133 523 169 488 q 97 613 97 558 q 140 717 97 678 q 242 757 182 757 q 333 722 297 757 q 368 632 368 688 q 348 556 368 589 q 296 506 328 524 q 225 488 264 488 m 125 -11 q 33 24 69 -11 q -3 114 -3 60 q 40 219 -3 179 q 142 258 82 258 q 233 224 197 258 q 268 133 268 189 q 248 58 268 90 q 196 7 228 25 q 125 -11 164 -11 z "},";":{"ha":364,"x_min":-56,"x_max":368,"o":"m 225 488 q 133 523 169 488 q 97 613 97 558 q 140 717 97 678 q 242 757 182 757 q 333 722 297 757 q 368 632 368 688 q 348 556 368 589 q 296 506 328 524 q 225 488 264 488 m -56 -214 l 103 119 l 125 -11 q 33 24 69 -11 q -3 114 -3 60 q 40 219 -3 179 q 142 258 82 258 q 233 224 197 258 q 268 133 268 189 q 257 76 268 103 q 219 10 246 50 l 81 -214 l -56 -214 z "},"<":{"ha":832,"x_min":90,"x_max":838,"o":"m 838 828 l 801 646 l 160 428 l 179 526 l 735 308 l 701 144 l 90 396 l 126 576 l 838 828 z "},"=":{"ha":832,"x_min":57,"x_max":821,"o":"m 125 572 l 160 742 l 821 742 l 786 572 l 125 572 m 57 229 l 90 399 l 751 399 l 718 229 l 57 229 z "},">":{"ha":832,"x_min":40,"x_max":788,"o":"m 40 144 l 78 326 l 715 544 l 696 446 l 144 664 l 178 828 l 788 576 l 751 396 l 40 144 z "},"?":{"ha":818,"x_min":85,"x_max":815,"o":"m 294 338 q 329 428 304 390 q 387 494 354 465 q 454 549 419 524 q 518 597 489 574 q 565 648 547 621 q 583 713 583 675 q 549 781 583 756 q 449 807 514 807 q 326 779 381 807 q 231 701 271 751 l 85 808 q 253 940 147 892 q 493 989 358 989 q 664 960 592 989 q 776 879 736 932 q 815 756 815 826 q 795 651 815 696 q 743 575 775 607 q 674 516 711 543 q 601 463 636 489 q 540 408 565 438 q 504 338 514 378 l 294 338 m 349 -11 q 257 23 293 -11 q 221 106 221 57 q 262 201 221 164 q 361 239 303 239 q 452 206 417 239 q 488 125 488 174 q 469 56 488 88 q 419 7 450 25 q 349 -11 388 -11 z "},"@":{"ha":1438,"x_min":44,"x_max":1390,"o":"m 626 -286 q 315 -218 446 -286 q 115 -28 185 -150 q 44 250 44 93 q 101 543 44 408 q 260 777 157 678 q 506 931 364 876 q 817 986 647 986 q 1126 922 999 986 q 1322 744 1254 858 q 1390 476 1390 629 q 1366 294 1390 381 q 1296 138 1342 207 q 1187 30 1250 69 q 1046 -10 1124 -10 q 886 48 936 -10 q 858 208 836 106 l 872 268 l 896 343 l 919 547 l 947 682 l 1136 682 l 1046 231 q 1049 166 1036 189 q 1099 143 1063 143 q 1164 174 1136 143 q 1211 254 1192 204 q 1240 360 1231 304 q 1250 468 1250 417 q 1199 674 1250 588 q 1049 808 1149 761 q 797 854 949 854 q 552 809 663 854 q 363 683 442 764 q 242 495 285 603 q 200 261 200 388 q 251 44 200 138 q 399 -101 301 -49 q 638 -153 497 -153 q 771 -140 704 -153 q 900 -100 838 -126 l 931 -228 q 785 -270 867 -254 q 626 -286 704 -286 m 625 -10 q 481 26 546 -10 q 378 128 417 61 q 340 286 340 196 q 367 442 340 369 q 444 572 394 515 q 560 660 493 628 q 708 692 628 692 q 901 617 836 692 q 967 411 967 543 q 931 200 968 296 q 817 47 893 104 q 625 -10 742 -10 m 683 150 q 790 181 744 150 q 860 264 835 213 q 886 379 886 315 q 844 492 886 454 q 732 531 803 531 q 631 503 675 531 q 560 425 586 476 q 533 303 533 374 q 574 190 533 229 q 683 150 615 150 z "},"A":{"ha":1064,"x_min":-87,"x_max":1003,"o":"m -87 0 l 540 972 l 764 972 l 1003 0 l 778 0 l 589 861 l 678 861 l 153 0 l -87 0 m 172 208 l 264 379 l 765 379 l 792 208 l 172 208 z "},"B":{"ha":1063,"x_min":40,"x_max":1031,"o":"m 40 0 l 235 972 l 704 972 q 947 915 863 972 q 1031 750 1031 858 q 983 596 1031 658 q 856 501 935 533 q 683 469 776 469 l 719 525 q 915 469 842 525 q 988 307 988 413 q 931 135 988 204 q 776 33 875 67 q 550 0 678 0 l 40 0 m 299 169 l 564 169 q 710 205 657 169 q 764 310 764 240 q 724 387 764 364 q 618 410 685 410 l 321 410 l 354 574 l 607 574 q 708 589 665 574 q 772 635 750 604 q 794 711 794 667 q 757 781 794 760 q 651 803 719 803 l 424 803 l 299 169 z "},"C":{"ha":1018,"x_min":71,"x_max":1057,"o":"m 551 -17 q 295 37 403 -17 q 129 185 188 90 q 71 406 71 281 q 115 636 71 529 q 238 822 158 743 q 428 944 318 900 q 675 989 539 989 q 906 944 806 989 q 1057 817 1006 900 l 894 683 q 799 768 857 739 q 660 797 740 797 q 511 769 578 797 q 397 688 444 740 q 324 567 349 636 q 299 419 299 497 q 331 291 299 346 q 424 206 363 236 q 571 175 485 175 q 711 202 646 175 q 829 288 776 229 l 963 151 q 781 23 886 63 q 551 -17 676 -17 z "},"D":{"ha":1147,"x_min":40,"x_max":1121,"o":"m 40 0 l 235 972 l 642 972 q 899 923 792 972 q 1064 783 1007 874 q 1121 567 1121 692 q 1077 333 1121 438 q 953 155 1033 229 q 761 40 872 81 q 515 0 650 0 l 40 0 m 303 185 l 522 185 q 723 233 640 185 q 849 365 806 282 q 893 554 893 449 q 863 678 893 626 q 770 759 832 731 q 617 788 708 788 l 424 788 l 303 185 z "},"E":{"ha":932,"x_min":40,"x_max":969,"o":"m 364 581 l 832 581 l 797 406 l 329 406 l 364 581 m 300 181 l 831 181 l 793 0 l 40 0 l 235 972 l 969 972 l 932 792 l 422 792 l 300 181 z "},"F":{"ha":888,"x_min":40,"x_max":969,"o":"m 356 535 l 824 535 l 786 354 l 319 354 l 356 535 m 267 0 l 40 0 l 235 972 l 969 972 l 932 792 l 424 792 l 267 0 z "},"G":{"ha":1071,"x_min":71,"x_max":1088,"o":"m 551 -17 q 297 37 404 -17 q 130 185 189 90 q 71 406 71 281 q 115 636 71 529 q 239 822 158 743 q 432 944 319 900 q 682 989 544 989 q 923 945 821 989 q 1088 819 1025 901 l 926 689 q 816 772 878 747 q 672 797 754 797 q 517 769 586 797 q 400 689 449 740 q 325 569 351 638 q 299 419 299 500 q 331 291 299 346 q 426 206 363 236 q 581 175 489 175 q 714 199 650 175 q 838 272 778 222 l 924 101 q 753 14 850 44 q 551 -17 657 -17 m 726 136 l 799 501 l 1004 501 l 924 101 l 726 136 z "},"H":{"ha":1122,"x_min":40,"x_max":1126,"o":"m 901 972 l 1126 972 l 932 0 l 707 0 l 901 972 m 267 0 l 40 0 l 235 972 l 461 972 l 267 0 m 804 399 l 331 399 l 368 589 l 842 589 l 804 399 z "},"I":{"ha":456,"x_min":40,"x_max":461,"o":"m 40 0 l 235 972 l 461 972 l 267 0 l 40 0 z "},"J":{"ha":751,"x_min":-68,"x_max":765,"o":"m 249 -17 q 57 21 138 -17 q -68 129 -24 58 l 81 271 q 153 195 110 222 q 251 168 196 168 q 356 204 315 168 q 413 319 397 240 l 506 792 l 164 792 l 201 972 l 765 972 l 636 331 q 560 127 611 203 q 432 17 510 51 q 249 -17 354 -17 z "},"K":{"ha":1028,"x_min":40,"x_max":1146,"o":"m 290 222 l 321 483 l 874 972 l 1146 972 l 633 521 l 485 394 l 290 222 m 40 0 l 235 972 l 458 972 l 264 0 l 40 0 m 719 0 l 442 424 l 601 575 l 972 0 l 719 0 z "},"L":{"ha":839,"x_min":40,"x_max":790,"o":"m 40 0 l 235 972 l 461 972 l 303 183 l 790 183 l 753 0 l 40 0 z "},"M":{"ha":1326,"x_min":40,"x_max":1329,"o":"m 40 0 l 235 972 l 418 972 l 694 283 l 597 285 l 1136 972 l 1329 972 l 1136 0 l 925 0 l 1054 651 l 1097 651 l 668 103 l 568 103 l 339 653 l 381 649 l 251 0 l 40 0 z "},"N":{"ha":1122,"x_min":40,"x_max":1126,"o":"m 40 0 l 235 972 l 421 972 l 839 268 l 765 272 l 904 972 l 1126 972 l 932 0 l 747 0 l 328 704 l 403 700 l 263 0 l 40 0 z "},"O":{"ha":1172,"x_min":71,"x_max":1146,"o":"m 544 -17 q 291 37 397 -17 q 128 185 185 90 q 71 406 71 281 q 114 637 71 531 q 237 822 157 743 q 427 944 317 900 q 672 989 538 989 q 926 935 819 989 q 1089 787 1032 882 q 1146 567 1146 692 q 1103 335 1146 442 q 980 151 1060 229 q 790 28 900 72 q 544 -17 679 -17 m 564 175 q 712 205 646 175 q 824 288 778 235 q 894 409 869 340 q 918 554 918 478 q 888 681 918 626 q 798 767 857 736 q 653 797 739 797 q 506 767 571 797 q 394 685 440 738 q 323 563 347 632 q 299 418 299 494 q 330 291 299 346 q 420 206 361 236 q 564 175 479 175 z "},"P":{"ha":1017,"x_min":40,"x_max":1008,"o":"m 40 0 l 235 972 l 628 972 q 909 892 810 972 q 1008 669 1008 813 q 951 456 1008 547 q 788 317 894 365 q 536 268 682 268 l 221 268 l 340 371 l 267 0 l 40 0 m 335 344 l 256 451 l 546 451 q 719 502 657 451 q 781 650 781 553 q 733 755 781 721 q 600 789 686 789 l 326 789 l 446 899 l 335 344 z "},"Q":{"ha":1172,"x_min":71,"x_max":1146,"o":"m 544 -17 q 291 37 397 -17 q 128 185 185 90 q 71 406 71 281 q 114 637 71 531 q 237 822 157 743 q 427 944 317 900 q 672 989 538 989 q 926 935 819 989 q 1089 787 1032 882 q 1146 567 1146 692 q 1103 335 1146 442 q 980 151 1060 229 q 790 28 900 72 q 544 -17 679 -17 m 817 -224 q 583 -160 682 -224 q 417 31 483 -96 l 664 81 q 733 -26 693 4 q 831 -57 774 -57 q 917 -39 875 -57 q 994 11 960 -21 l 1079 -124 q 963 -199 1032 -174 q 817 -224 894 -224 m 564 175 q 712 205 646 175 q 824 288 778 235 q 894 409 869 340 q 918 554 918 478 q 888 681 918 626 q 798 767 857 736 q 653 797 739 797 q 506 767 571 797 q 394 685 440 738 q 323 563 347 632 q 299 418 299 494 q 330 291 299 346 q 420 206 361 236 q 564 175 479 175 z "},"R":{"ha":1021,"x_min":40,"x_max":1011,"o":"m 40 0 l 235 972 l 631 972 q 912 893 813 972 q 1011 671 1011 814 q 953 459 1011 549 q 790 321 896 369 q 539 272 683 272 l 222 272 l 340 371 l 267 0 l 40 0 m 665 0 l 467 353 l 703 353 l 903 0 l 665 0 m 335 344 l 257 451 l 547 451 q 722 502 660 451 q 783 650 783 553 q 735 755 783 721 q 601 789 688 789 l 328 789 l 446 899 l 335 344 z "},"S":{"ha":886,"x_min":-11,"x_max":901,"o":"m 379 -17 q 226 -2 300 -17 q 91 38 151 13 q -11 92 31 63 l 81 265 q 178 210 126 233 q 288 176 231 188 q 401 164 344 164 q 509 178 464 164 q 578 217 554 192 q 603 278 603 242 q 576 332 603 311 q 508 367 550 353 q 414 396 465 382 q 310 428 363 410 q 216 476 258 447 q 147 549 174 504 q 121 660 121 593 q 176 833 121 760 q 331 948 231 907 q 565 989 431 989 q 751 967 664 989 q 901 906 839 946 l 817 733 q 693 790 761 771 q 553 808 625 808 q 441 793 488 808 q 370 751 394 778 q 346 689 346 724 q 372 633 346 654 q 440 597 397 611 q 535 568 483 582 q 638 536 586 554 q 732 490 689 518 q 801 420 775 463 q 828 314 828 378 q 772 140 828 214 q 616 24 717 65 q 379 -17 515 -17 z "},"T":{"ha":858,"x_min":88,"x_max":972,"o":"m 242 0 l 399 789 l 88 789 l 125 972 l 972 972 l 935 789 l 625 789 l 467 0 l 242 0 z "},"U":{"ha":1094,"x_min":92,"x_max":1106,"o":"m 499 -17 q 263 39 357 -17 q 130 194 168 94 q 118 428 92 293 l 226 972 l 453 972 l 344 432 q 338 318 332 367 q 366 238 343 269 q 429 190 389 206 q 524 175 469 175 q 642 201 592 175 q 725 285 692 228 q 776 432 758 342 l 885 972 l 1106 972 l 996 418 q 828 93 953 203 q 499 -17 703 -17 z "},"V":{"ha":1036,"x_min":107,"x_max":1169,"o":"m 332 0 l 107 972 l 339 972 l 535 110 l 389 110 l 936 972 l 1169 972 l 554 0 l 332 0 z "},"W":{"ha":1615,"x_min":150,"x_max":1706,"o":"m 274 0 l 150 972 l 372 972 l 481 113 l 364 113 l 824 972 l 1032 972 l 1136 113 l 1025 113 l 1482 972 l 1706 972 l 1192 0 l 951 0 l 854 756 l 922 756 l 515 0 l 274 0 z "},"X":{"ha":992,"x_min":-69,"x_max":1086,"o":"m -69 0 l 454 567 l 432 438 l 144 972 l 385 972 l 585 589 l 486 592 l 831 972 l 1086 972 l 594 438 l 601 565 l 910 0 l 667 0 l 456 406 l 557 401 l 200 0 l -69 0 z "},"Y":{"ha":939,"x_min":100,"x_max":1079,"o":"m 282 0 l 361 400 l 386 258 l 100 972 l 325 972 l 543 426 l 407 425 l 847 972 l 1079 972 l 510 257 l 586 400 l 507 0 l 282 0 z "},"Z":{"ha":932,"x_min":-24,"x_max":1003,"o":"m -24 0 l 6 146 l 744 871 l 764 789 l 149 789 l 186 972 l 1003 972 l 974 826 l 236 101 l 217 183 l 864 183 l 826 0 l -24 0 z "},"[":{"ha":513,"x_min":-15,"x_max":621,"o":"m -15 -269 l 244 1031 l 621 1031 l 588 860 l 429 860 l 238 -99 l 396 -99 l 363 -269 l -15 -269 z "},"\\":{"ha":544,"x_min":99,"x_max":489,"o":"m 489 -139 l 303 -139 l 99 1169 l 285 1169 l 489 -139 z "},"]":{"ha":511,"x_min":-106,"x_max":529,"o":"m 269 -269 l -106 -269 l -72 -99 l 86 -99 l 278 860 l 118 860 l 153 1031 l 529 1031 l 269 -269 z "},"^":{"ha":833,"x_min":44,"x_max":718,"o":"m 44 196 l 410 776 l 583 776 l 718 196 l 561 196 l 449 719 l 542 719 l 219 196 l 44 196 z "},"_":{"ha":694,"x_min":-100,"x_max":619,"o":"m -100 -125 l -75 0 l 619 0 l 594 -125 l -100 -125 z "},"`":{"ha":833,"x_min":257,"x_max":636,"o":"m 468 843 l 257 1043 l 489 1043 l 636 843 l 468 843 z "},"a":{"ha":958,"x_min":42,"x_max":933,"o":"m 364 -11 q 204 28 278 -11 q 86 143 131 68 q 42 324 42 218 q 73 497 42 418 q 161 635 104 576 q 293 726 218 693 q 454 758 368 758 q 614 724 547 758 q 713 616 681 689 q 736 428 746 543 q 682 197 729 296 q 555 43 635 97 q 364 -11 475 -11 m 431 168 q 544 199 494 168 q 622 285 593 231 q 650 414 650 340 q 605 535 650 490 q 479 579 560 579 q 367 548 417 579 q 288 462 317 517 q 260 333 260 407 q 305 213 260 257 q 431 168 350 168 m 579 0 l 608 149 l 657 371 l 686 593 l 717 747 l 933 747 l 785 0 l 579 0 z "},"b":{"ha":958,"x_min":26,"x_max":918,"o":"m 26 0 l 232 1031 l 449 1031 l 361 596 l 303 378 l 269 186 l 232 0 l 26 0 m 504 -11 q 353 19 418 -11 q 253 113 289 50 q 218 272 218 176 q 243 463 218 374 q 317 617 268 551 q 435 721 365 683 q 594 758 506 758 q 756 719 682 758 q 874 605 829 679 q 918 424 918 531 q 886 251 918 331 q 798 113 854 171 q 667 22 742 54 q 504 -11 592 -11 m 479 168 q 593 199 544 168 q 670 285 642 231 q 699 414 699 340 q 654 535 699 490 q 528 579 610 579 q 415 548 465 579 q 338 462 365 517 q 310 333 310 407 q 354 213 310 257 q 479 168 399 168 z "},"c":{"ha":821,"x_min":40,"x_max":832,"o":"m 421 -11 q 220 31 306 -11 q 88 147 135 72 q 40 324 40 222 q 99 547 40 449 q 260 701 157 644 q 496 758 363 758 q 703 709 615 758 q 832 569 790 660 l 649 478 q 583 555 625 531 q 482 579 540 579 q 368 548 418 579 q 289 462 318 517 q 260 335 260 407 q 305 213 260 258 q 433 168 350 168 q 538 192 490 168 q 617 268 585 217 l 776 168 q 630 36 724 83 q 421 -11 536 -11 z "},"d":{"ha":961,"x_min":44,"x_max":992,"o":"m 367 -11 q 207 28 281 -11 q 89 143 133 68 q 44 324 44 218 q 76 497 44 418 q 164 635 107 576 q 296 726 221 693 q 457 758 371 758 q 608 728 544 758 q 708 634 672 697 q 743 475 743 571 q 719 284 743 372 q 646 130 694 196 q 527 26 597 64 q 367 -11 457 -11 m 433 168 q 547 199 497 168 q 624 285 596 231 q 653 414 653 340 q 608 535 653 490 q 482 579 563 579 q 369 548 419 579 q 291 462 319 517 q 263 333 263 407 q 308 213 263 257 q 433 168 353 168 m 581 0 l 611 149 l 658 371 l 688 593 l 775 1031 l 992 1031 l 786 0 l 581 0 z "},"e":{"ha":872,"x_min":42,"x_max":838,"o":"m 424 -11 q 222 31 307 -11 q 89 147 136 72 q 42 324 42 222 q 98 547 42 449 q 253 701 154 644 q 482 758 353 758 q 671 717 592 758 q 794 603 750 676 q 838 429 838 531 q 834 371 838 400 q 825 315 831 342 l 207 315 l 229 442 l 724 442 l 635 403 q 628 508 646 465 q 569 573 610 550 q 472 596 529 596 q 352 562 401 596 q 278 468 303 528 q 253 333 253 408 q 301 205 253 247 q 446 163 349 163 q 556 181 503 163 q 646 232 608 199 l 736 89 q 590 13 671 38 q 424 -11 508 -11 z "},"f":{"ha":538,"x_min":49,"x_max":704,"o":"m 51 0 l 207 774 q 313 969 232 896 q 532 1042 394 1042 q 628 1031 583 1042 q 704 1000 672 1021 l 619 844 q 533 871 582 871 q 456 844 483 871 q 415 758 428 817 l 400 689 l 389 601 l 269 0 l 51 0 m 49 564 l 82 731 l 600 731 l 567 564 l 49 564 z "},"g":{"ha":972,"x_min":-11,"x_max":946,"o":"m 344 -281 q 145 -256 236 -281 q -11 -182 54 -231 l 92 -25 q 206 -83 136 -61 q 354 -106 276 -106 q 523 -57 467 -106 q 599 88 579 -8 l 625 222 l 675 397 l 708 586 l 739 747 l 946 747 l 822 125 q 659 -185 779 -90 q 344 -281 539 -281 m 376 36 q 210 74 285 36 q 90 181 135 111 q 46 350 46 251 q 77 510 46 436 q 165 640 108 583 q 297 727 221 696 q 463 758 372 758 q 611 728 544 758 q 715 629 678 697 q 742 447 751 561 q 688 231 733 324 q 563 88 642 139 q 376 36 485 36 m 435 214 q 547 242 499 214 q 624 319 596 269 q 651 432 651 368 q 607 540 651 500 q 483 579 563 579 q 370 551 419 579 q 292 474 321 524 q 264 361 264 425 q 310 253 264 293 q 435 214 356 214 z "},"h":{"ha":960,"x_min":26,"x_max":894,"o":"m 610 758 q 771 719 704 758 q 866 603 838 679 q 872 414 894 526 l 789 0 l 572 0 l 653 400 q 640 526 669 482 q 531 571 610 571 q 394 524 449 571 q 318 379 339 476 l 243 0 l 26 0 l 232 1031 l 449 1031 l 350 536 l 307 600 q 441 720 361 682 q 610 758 521 758 z "},"i":{"ha":417,"x_min":26,"x_max":464,"o":"m 26 0 l 175 747 l 390 747 l 242 0 l 26 0 m 319 851 q 228 884 263 851 q 193 964 193 917 q 233 1056 193 1019 q 336 1093 272 1093 q 428 1062 393 1093 q 464 985 464 1031 q 424 888 464 925 q 319 851 385 851 z "},"j":{"ha":425,"x_min":-250,"x_max":472,"o":"m -71 -281 q -169 -270 -124 -281 q -250 -239 -214 -260 l -164 -82 q -74 -108 -126 -108 q -3 -82 -29 -108 q 33 1 22 -56 l 183 747 l 400 747 l 251 7 q -71 -281 194 -281 m 328 851 q 236 884 271 851 q 201 964 201 917 q 241 1056 201 1019 q 344 1093 281 1093 q 437 1062 401 1093 q 472 985 472 1031 q 433 888 472 925 q 328 851 393 851 z "},"k":{"ha":896,"x_min":26,"x_max":974,"o":"m 243 150 l 290 418 l 692 747 l 974 747 l 556 399 l 435 310 l 243 150 m 26 0 l 232 1031 l 449 1031 l 243 0 l 26 0 m 589 0 l 397 314 l 549 479 l 840 0 l 589 0 z "},"l":{"ha":418,"x_min":26,"x_max":449,"o":"m 26 0 l 232 1031 l 449 1031 l 243 0 l 26 0 z "},"m":{"ha":1457,"x_min":26,"x_max":1393,"o":"m 1113 758 q 1272 719 1207 758 q 1365 603 1338 679 q 1369 414 1393 526 l 1288 0 l 1071 0 l 1150 399 q 1139 526 1168 482 q 1038 571 1110 571 q 911 526 961 571 q 842 383 861 481 l 765 0 l 549 0 l 628 399 q 616 526 644 482 q 515 571 588 571 q 389 526 439 571 q 318 381 339 481 l 243 0 l 26 0 l 175 747 l 381 747 l 342 557 l 308 600 q 436 719 360 681 q 599 758 513 758 q 724 733 668 758 q 815 659 779 708 q 856 536 850 610 l 772 557 q 915 707 828 656 q 1113 758 1001 758 z "},"n":{"ha":960,"x_min":26,"x_max":894,"o":"m 610 758 q 772 719 706 758 q 867 603 839 679 q 872 414 894 526 l 789 0 l 572 0 l 653 400 q 640 526 669 482 q 531 571 610 571 q 394 524 449 571 q 318 379 339 476 l 243 0 l 26 0 l 175 747 l 381 747 l 338 536 l 307 600 q 441 720 361 682 q 610 758 521 758 z "},"o":{"ha":908,"x_min":40,"x_max":868,"o":"m 417 -11 q 218 31 303 -11 q 87 147 133 72 q 40 324 40 222 q 99 547 40 449 q 259 701 157 644 q 492 758 361 758 q 691 717 607 758 q 822 601 775 675 q 868 424 868 526 q 810 201 868 300 q 650 46 751 103 q 417 -11 549 -11 m 431 167 q 544 198 494 167 q 621 285 593 229 q 649 414 649 340 q 604 535 649 489 q 479 581 560 581 q 366 549 415 581 q 288 463 317 518 q 260 333 260 407 q 304 212 260 257 q 431 167 349 167 z "},"p":{"ha":958,"x_min":-28,"x_max":918,"o":"m 504 -11 q 347 24 414 -11 q 246 131 279 58 q 222 319 213 204 q 277 551 231 453 q 404 704 324 650 q 594 758 485 758 q 756 719 682 758 q 874 605 829 679 q 918 424 918 531 q 886 251 918 331 q 798 113 854 171 q 667 22 742 54 q 504 -11 592 -11 m -28 -269 l 175 747 l 381 747 l 350 599 l 303 376 l 274 154 l 189 -269 l -28 -269 m 479 168 q 593 199 544 168 q 670 285 642 231 q 699 414 699 340 q 654 535 699 490 q 528 579 610 579 q 415 548 465 579 q 338 462 365 517 q 310 333 310 407 q 354 213 310 257 q 479 168 399 168 z "},"q":{"ha":958,"x_min":42,"x_max":933,"o":"m 364 -11 q 204 28 278 -11 q 86 143 131 68 q 42 324 42 218 q 73 497 42 418 q 161 635 104 576 q 293 726 218 693 q 454 758 368 758 q 614 724 547 758 q 713 616 681 689 q 736 428 746 543 q 682 197 729 296 q 555 43 635 97 q 364 -11 475 -11 m 431 168 q 544 199 494 168 q 622 285 593 231 q 650 414 650 340 q 605 535 650 490 q 479 579 560 579 q 367 548 417 579 q 288 462 317 517 q 260 333 260 407 q 305 213 260 257 q 431 168 350 168 m 514 -269 l 597 151 l 656 369 l 693 581 l 726 747 l 933 747 l 731 -269 l 514 -269 z "},"r":{"ha":599,"x_min":26,"x_max":642,"o":"m 26 0 l 175 747 l 381 747 l 338 535 l 318 596 q 449 722 368 686 q 642 758 529 758 l 603 558 q 577 560 589 560 q 553 561 565 561 q 397 514 457 561 q 315 361 336 467 l 243 0 l 26 0 z "},"s":{"ha":738,"x_min":-21,"x_max":724,"o":"m 299 -11 q 113 11 200 -11 q -21 67 26 33 l 63 224 q 181 172 111 192 q 322 153 251 153 q 433 172 399 153 q 468 225 468 192 q 439 265 468 251 q 365 286 410 278 q 270 306 321 294 q 174 337 219 317 q 101 395 129 357 q 72 496 72 433 q 120 639 72 581 q 253 728 168 697 q 447 758 339 758 q 599 742 525 758 q 724 696 672 725 l 646 538 q 535 583 593 571 q 425 594 478 594 q 315 573 349 594 q 281 521 281 551 q 309 480 281 494 q 382 456 338 465 q 478 437 426 447 q 574 406 529 426 q 647 349 618 386 q 675 250 675 313 q 626 106 675 165 q 492 18 576 47 q 299 -11 407 -11 z "},"t":{"ha":604,"x_min":49,"x_max":600,"o":"m 331 -11 q 193 22 250 -11 q 112 116 136 54 q 104 263 88 178 l 233 913 l 450 913 l 321 264 q 331 189 313 217 q 397 161 349 161 q 442 168 419 161 q 485 188 465 175 l 517 33 q 428 -1 476 8 q 331 -11 379 -11 m 49 564 l 82 731 l 600 731 l 567 564 l 49 564 z "},"u":{"ha":954,"x_min":65,"x_max":928,"o":"m 346 -11 q 188 28 254 -11 q 93 144 121 68 q 88 333 65 221 l 169 747 l 386 747 l 307 347 q 320 221 290 265 q 426 176 350 176 q 562 224 507 176 q 635 368 617 271 l 711 747 l 928 747 l 779 0 l 574 0 l 615 211 l 646 147 q 514 27 593 65 q 346 -11 435 -11 z "},"v":{"ha":831,"x_min":64,"x_max":917,"o":"m 229 0 l 64 747 l 278 747 l 415 104 l 304 104 l 700 747 l 917 747 l 453 0 l 229 0 z "},"w":{"ha":1307,"x_min":72,"x_max":1385,"o":"m 204 0 l 72 747 l 269 747 l 375 104 l 274 104 l 632 747 l 818 747 l 926 104 l 825 104 l 1181 747 l 1385 747 l 972 0 l 758 0 l 657 551 l 721 551 l 415 0 l 204 0 z "},"x":{"ha":826,"x_min":-74,"x_max":892,"o":"m -74 0 l 357 442 l 329 332 l 101 747 l 326 747 l 482 460 l 382 461 l 653 747 l 892 747 l 481 319 l 499 435 l 740 0 l 511 0 l 351 297 l 453 297 l 174 0 l -74 0 z "},"y":{"ha":831,"x_min":-125,"x_max":917,"o":"m 78 -281 q -35 -262 21 -281 q -125 -215 -92 -244 l -25 -60 q 28 -93 -1 -81 q 94 -106 58 -106 q 167 -85 136 -106 q 229 -14 199 -64 l 289 81 l 308 103 l 703 747 l 917 747 l 419 -50 q 313 -188 364 -137 q 206 -260 263 -239 q 78 -281 150 -281 m 243 -29 l 64 747 l 281 747 l 417 122 l 243 -29 z "},"z":{"ha":754,"x_min":-26,"x_max":776,"o":"m -26 0 l 0 131 l 535 653 l 569 581 l 101 581 l 135 747 l 776 747 l 751 617 l 217 94 l 179 167 l 674 167 l 640 0 l -26 0 z "},"{":{"ha":544,"x_min":57,"x_max":653,"o":"m 314 -269 q 181 -238 233 -269 q 108 -150 128 -207 q 103 -15 88 -93 l 151 231 q 144 280 158 264 q 104 296 131 296 l 57 296 l 90 465 l 138 465 q 185 482 165 465 q 211 531 204 499 l 263 786 q 362 972 289 914 q 574 1031 435 1031 l 653 1031 l 619 860 l 596 860 q 513 836 540 860 q 475 763 485 813 l 429 536 q 396 440 417 475 q 337 389 375 404 q 235 368 299 374 l 240 392 q 351 344 321 385 q 367 225 382 303 l 324 11 q 335 -71 314 -43 q 401 -99 356 -99 l 428 -99 l 393 -269 l 314 -269 z "},"|":{"ha":429,"x_min":-12,"x_max":444,"o":"m -12 -269 l 247 1031 l 444 1031 l 185 -269 l -12 -269 z "},"}":{"ha":544,"x_min":-107,"x_max":490,"o":"m -107 -269 l -74 -99 l -49 -99 q 35 -74 7 -99 q 72 -1 63 -50 l 118 225 q 151 322 131 286 q 211 373 172 357 q 311 393 250 389 l 306 369 q 195 417 226 376 q 179 536 164 458 l 222 750 q 212 832 233 804 q 144 860 190 860 l 119 860 l 153 1031 l 233 1031 q 366 999 314 1031 q 439 911 418 968 q 444 776 460 854 l 394 531 q 402 482 389 499 q 442 465 415 465 l 490 465 l 456 296 l 410 296 q 362 280 381 296 q 336 231 343 264 l 283 -25 q 185 -211 258 -153 q -26 -269 113 -269 l -107 -269 z "},"~":{"ha":832,"x_min":67,"x_max":811,"o":"m 569 349 q 481 367 518 349 q 417 408 444 385 q 364 451 389 432 q 310 469 339 469 q 240 440 268 469 q 203 361 213 411 l 67 361 q 115 508 79 450 q 203 597 151 567 q 310 626 254 626 q 399 608 363 626 q 463 566 435 589 q 515 524 490 543 q 569 506 540 506 q 639 535 611 506 q 675 614 667 564 l 811 614 q 763 468 799 528 q 677 378 728 408 q 569 349 626 349 z "}," ":{"ha":393,"x_min":0,"x_max":0,"o":""},"¡":{"ha":401,"x_min":-46,"x_max":386,"o":"m -46 -214 l 122 410 l 293 410 l 213 -214 l -46 -214 m 247 507 q 155 540 190 507 q 119 622 119 574 q 138 690 119 660 q 188 740 156 721 q 260 758 221 758 q 351 724 315 758 q 386 640 386 690 q 346 545 386 583 q 247 507 306 507 z "},"¢":{"ha":821,"x_min":40,"x_max":832,"o":"m 421 -11 q 220 31 306 -11 q 88 147 135 72 q 40 324 40 222 q 99 547 40 449 q 260 701 157 644 q 496 758 363 758 q 703 709 615 758 q 832 569 790 660 l 649 478 q 583 555 625 531 q 482 579 540 579 q 368 548 418 579 q 289 462 318 517 q 260 335 260 407 q 305 213 260 258 q 433 168 350 168 q 538 192 490 168 q 617 268 585 217 l 776 168 q 630 36 724 83 q 421 -11 536 -11 m 269 -167 l 485 914 l 624 914 l 407 -167 l 269 -167 z "},"£":{"ha":928,"x_min":-33,"x_max":1014,"o":"m 111 24 l 225 590 q 326 818 253 731 q 503 947 399 906 q 732 989 608 989 q 890 972 818 989 q 1014 921 963 954 l 919 749 q 824 786 875 775 q 717 797 772 797 q 540 749 607 797 q 449 585 472 700 l 338 24 l 111 24 m -33 0 l 4 181 l 844 181 l 808 0 l -33 0 m 50 418 l 76 554 l 775 554 l 749 418 l 50 418 z "},"¤":{"ha":972,"x_min":49,"x_max":950,"o":"m 203 613 l 49 767 l 169 893 l 325 739 l 203 613 m 796 613 l 674 739 l 829 893 l 950 767 l 796 613 m 829 -11 l 674 143 l 796 269 l 950 115 l 829 -11 m 169 -11 l 49 115 l 203 269 l 325 143 l 169 -11 m 500 86 q 358 114 425 86 q 242 191 292 142 q 163 306 192 240 q 135 446 135 371 q 163 586 135 521 q 242 701 192 651 q 358 778 292 750 q 500 807 425 807 q 642 778 575 807 q 758 701 708 750 q 837 586 808 651 q 865 446 865 521 q 837 306 865 371 q 758 191 808 240 q 642 114 708 142 q 500 86 576 86 m 500 257 q 597 283 553 257 q 669 351 642 308 q 696 444 696 393 q 669 540 696 497 q 597 609 642 583 q 499 635 553 635 q 402 609 446 635 q 332 540 358 583 q 306 446 306 497 q 332 351 306 394 q 402 283 358 308 q 500 257 446 257 z "},"¥":{"ha":1022,"x_min":88,"x_max":1163,"o":"m 324 0 l 408 425 l 433 304 l 100 972 l 331 972 l 593 431 l 451 431 l 928 972 l 1163 972 l 557 283 l 635 425 l 550 0 l 324 0 m 88 125 l 111 240 l 857 240 l 833 125 l 88 125 m 126 317 l 150 432 l 896 432 l 872 317 l 126 317 z "},"¦":{"ha":429,"x_min":-12,"x_max":444,"o":"m 150 544 l 247 1031 l 444 1031 l 347 544 l 150 544 m -12 -269 l 85 217 l 282 217 l 185 -269 l -12 -269 z "},"§":{"ha":725,"x_min":-53,"x_max":800,"o":"m 492 203 l 385 304 q 476 349 444 319 q 507 415 507 379 q 481 467 507 450 q 413 497 454 485 q 323 521 371 508 q 233 555 275 533 q 165 614 192 576 q 138 714 138 651 q 188 860 138 800 q 325 952 238 921 q 522 983 413 983 q 617 976 567 983 q 716 954 668 968 q 800 917 764 940 l 718 767 q 612 812 668 799 q 497 825 556 825 q 372 798 413 825 q 331 735 331 771 q 357 688 331 704 q 426 662 383 672 q 514 639 468 651 q 602 605 560 626 q 671 546 644 583 q 697 446 697 508 q 638 295 697 357 q 492 203 579 233 m 238 -149 q 77 -128 156 -149 q -53 -65 -1 -107 l 29 86 q 138 28 82 47 q 256 10 193 10 q 372 37 333 10 q 411 100 411 64 q 385 146 411 129 q 317 174 358 163 q 228 199 275 186 q 139 233 181 211 q 70 290 97 254 q 43 388 43 326 q 101 537 43 472 q 249 631 158 601 l 354 531 q 264 483 293 514 q 235 418 235 453 q 261 369 235 386 q 330 339 288 351 q 419 314 372 326 q 508 280 467 301 q 577 221 550 258 q 604 121 604 183 q 556 -24 604 38 q 426 -117 508 -85 q 238 -149 343 -149 z "},"¨":{"ha":833,"x_min":293,"x_max":768,"o":"m 665 850 q 601 874 626 850 q 575 936 575 897 q 606 1013 575 983 q 678 1042 636 1042 q 742 1018 715 1042 q 768 956 768 994 q 737 879 768 908 q 665 850 706 850 m 383 850 q 319 874 346 850 q 293 936 293 897 q 324 1013 293 983 q 396 1042 356 1042 q 461 1018 435 1042 q 488 956 488 994 q 456 879 488 908 q 383 850 424 850 z "},"©":{"ha":1090,"x_min":76,"x_max":1057,"o":"m 565 -4 q 372 33 461 -4 q 217 138 283 71 q 113 294 150 206 q 76 486 76 383 q 114 678 76 589 q 218 834 151 767 q 374 939 285 901 q 568 976 464 976 q 762 940 672 976 q 917 836 851 903 q 1020 681 983 769 q 1057 489 1057 593 q 1019 295 1057 385 q 915 138 982 206 q 758 33 847 71 q 565 -4 669 -4 m 565 86 q 722 117 650 86 q 849 203 794 149 q 933 331 903 257 q 963 489 963 404 q 933 647 963 574 q 851 773 904 719 q 726 856 799 826 q 569 886 654 886 q 410 856 483 886 q 284 770 338 825 q 201 643 231 715 q 172 486 172 571 q 201 328 172 401 q 284 201 231 256 q 410 117 338 147 q 565 86 482 86 m 583 206 q 431 241 499 206 q 326 340 364 276 q 288 486 288 404 q 326 632 288 568 q 431 731 364 696 q 583 767 499 767 q 729 731 667 767 q 821 635 792 696 l 696 561 q 647 611 676 596 q 582 626 618 626 q 516 610 546 626 q 468 561 486 593 q 450 486 450 529 q 468 411 450 443 q 516 363 486 379 q 582 346 546 346 q 647 361 618 346 q 696 411 676 376 l 821 339 q 729 242 792 278 q 583 206 667 206 z "},"ª":{"ha":574,"x_min":107,"x_max":614,"o":"m 406 589 l 422 675 l 415 693 l 447 846 q 432 910 456 886 q 354 933 408 933 q 278 922 318 933 q 211 893 239 911 l 178 988 q 274 1027 217 1013 q 386 1042 331 1042 q 558 990 503 1042 q 593 831 614 938 l 544 589 l 406 589 m 267 582 q 148 617 189 582 q 107 700 107 651 q 137 786 107 753 q 218 835 167 819 q 333 851 269 851 l 463 851 l 449 772 l 342 772 q 274 758 297 772 q 251 718 251 744 q 317 675 251 675 q 378 688 351 675 q 425 726 406 700 l 436 668 q 374 606 411 631 q 267 582 336 582 z "},"«":{"ha":789,"x_min":50,"x_max":813,"o":"m 192 103 l 50 374 l 300 646 l 499 646 l 190 297 l 204 465 l 382 103 l 192 103 m 506 103 l 364 374 l 614 646 l 813 646 l 504 297 l 518 465 l 696 103 l 506 103 z "},"¬":{"ha":833,"x_min":92,"x_max":786,"o":"m 786 571 l 706 160 l 526 160 l 575 403 l 92 403 l 125 571 l 786 571 z "},"­":{"ha":536,"x_min":58,"x_max":486,"o":"m 58 304 l 93 478 l 486 478 l 451 304 l 58 304 z "},"®":{"ha":1090,"x_min":76,"x_max":1057,"o":"m 565 -4 q 372 33 461 -4 q 217 138 283 71 q 113 294 150 206 q 76 486 76 383 q 114 678 76 589 q 218 834 151 767 q 374 939 285 901 q 568 976 464 976 q 762 940 672 976 q 917 836 851 903 q 1020 681 983 769 q 1057 489 1057 593 q 1019 295 1057 385 q 915 138 982 206 q 758 33 847 71 q 565 -4 669 -4 m 696 217 l 563 422 l 707 422 l 840 217 l 696 217 m 565 86 q 722 117 650 86 q 849 203 794 149 q 933 331 903 257 q 963 489 963 404 q 933 647 963 574 q 851 773 904 719 q 726 856 799 826 q 569 886 654 886 q 410 856 483 886 q 284 770 338 825 q 201 643 231 715 q 172 486 172 571 q 201 328 172 401 q 284 201 231 256 q 410 117 338 147 q 565 86 482 86 m 354 217 l 354 756 l 589 756 q 762 704 700 756 q 824 564 824 653 q 762 422 824 471 q 589 372 700 372 l 499 372 l 499 217 l 354 217 m 497 481 l 579 481 q 655 503 628 481 q 682 564 682 525 q 655 626 682 604 q 579 649 628 649 l 497 649 l 497 481 z "},"¯":{"ha":833,"x_min":263,"x_max":799,"o":"m 263 882 l 286 1004 l 799 1004 l 775 882 l 263 882 z "},"°":{"ha":579,"x_min":121,"x_max":608,"o":"m 365 508 q 242 540 297 508 q 153 625 186 571 q 121 746 121 679 q 153 867 121 813 q 242 953 186 921 q 365 985 297 985 q 488 953 433 985 q 576 867 543 921 q 608 746 608 813 q 576 626 608 679 q 488 540 543 572 q 365 508 433 508 m 365 615 q 431 633 401 615 q 477 679 460 650 q 494 746 494 708 q 477 813 494 783 q 431 860 460 843 q 365 876 401 876 q 299 860 328 876 q 253 814 269 843 q 236 746 236 785 q 253 679 236 708 q 299 633 269 650 q 365 615 328 615 z "},"±":{"ha":832,"x_min":11,"x_max":807,"o":"m 11 0 l 44 171 l 706 171 l 672 0 l 11 0 m 308 289 l 432 908 l 611 908 l 489 289 l 308 289 m 113 517 l 146 681 l 807 681 l 774 517 l 113 517 z "},"²":{"ha":597,"x_min":72,"x_max":618,"o":"m 72 454 l 90 547 l 374 749 q 426 792 407 774 q 453 826 446 810 q 461 860 461 843 q 438 904 461 888 q 368 921 415 921 q 292 905 326 921 q 231 863 257 889 l 136 933 q 240 1011 175 981 q 396 1042 306 1042 q 558 996 497 1042 q 618 878 618 950 q 608 818 618 847 q 567 756 599 789 q 471 676 535 722 l 251 519 l 224 571 l 579 571 l 557 454 l 72 454 z "},"³":{"ha":597,"x_min":63,"x_max":651,"o":"m 308 443 q 165 463 232 443 q 63 511 99 482 l 125 621 q 217 579 164 594 q 319 564 269 564 q 415 584 381 564 q 450 642 450 604 q 428 683 450 669 q 360 697 406 697 l 269 697 l 289 792 l 494 967 l 513 915 l 158 915 l 181 1031 l 651 1031 l 632 938 l 424 763 l 357 804 l 403 804 q 553 761 503 804 q 604 651 604 718 q 567 542 604 589 q 463 469 529 494 q 308 443 396 443 z "},"´":{"ha":833,"x_min":382,"x_max":829,"o":"m 382 843 l 590 1043 l 829 1043 l 557 843 l 382 843 z "},"µ":{"ha":958,"x_min":-28,"x_max":933,"o":"m -28 -269 l 175 747 l 392 747 l 313 347 q 326 221 296 265 q 433 176 356 176 q 567 224 513 176 q 640 368 621 271 l 717 747 l 933 747 l 785 0 l 589 0 l 631 211 l 657 163 q 585 63 628 101 q 494 6 542 24 q 400 -11 446 -11 q 281 14 328 -11 q 207 90 233 39 l 275 158 l 189 -269 l -28 -269 z "},"¶":{"ha":953,"x_min":94,"x_max":968,"o":"m 213 -139 l 340 500 q 216 529 272 503 q 127 604 160 556 q 94 722 94 653 q 145 898 94 831 q 286 998 196 965 q 492 1031 376 1031 l 968 1031 l 735 -139 l 558 -139 l 761 874 l 592 874 l 389 -139 l 213 -139 z "},"·":{"ha":419,"x_min":78,"x_max":349,"o":"m 206 256 q 114 291 150 256 q 78 381 78 326 q 120 485 78 446 q 221 525 163 525 q 313 490 278 525 q 349 400 349 456 q 329 325 349 357 q 277 274 310 293 q 206 256 244 256 z "},"¸":{"ha":833,"x_min":111,"x_max":469,"o":"m 243 -322 q 170 -314 204 -322 q 111 -293 136 -306 l 160 -200 q 203 -215 179 -210 q 253 -221 226 -221 q 310 -208 292 -221 q 329 -175 329 -194 q 317 -146 331 -156 q 269 -136 303 -136 l 221 -136 l 288 11 l 403 11 l 368 -69 q 444 -106 419 -76 q 465 -176 469 -136 q 399 -283 460 -244 q 243 -322 339 -322 z "},"¹":{"ha":597,"x_min":117,"x_max":563,"o":"m 263 468 l 364 978 l 419 917 l 222 917 l 244 1031 l 531 1031 l 418 468 l 263 468 m 117 454 l 139 568 l 563 568 l 540 454 l 117 454 z "},"º":{"ha":594,"x_min":119,"x_max":649,"o":"m 357 582 q 233 609 286 582 q 149 682 179 636 q 119 788 119 728 q 158 919 119 863 q 263 1009 196 976 q 413 1042 329 1042 q 537 1015 483 1042 q 619 943 590 989 q 649 838 649 897 q 610 705 649 763 q 506 615 572 647 q 357 582 440 582 m 369 697 q 437 714 407 697 q 484 760 467 731 q 501 831 501 790 q 473 901 501 875 q 400 926 444 926 q 330 908 360 926 q 283 860 300 890 q 267 793 267 831 q 294 724 267 750 q 369 697 322 697 z "},"»":{"ha":790,"x_min":-22,"x_max":740,"o":"m 285 646 l 426 374 l 176 103 l -22 103 l 286 450 l 272 283 l 94 646 l 285 646 m 599 646 l 740 374 l 490 103 l 292 103 l 600 450 l 586 283 l 408 646 l 599 646 z "},"¼":{"ha":1450,"x_min":106,"x_max":1396,"o":"m 236 0 l 1085 972 l 1260 972 l 410 0 l 236 0 m 817 117 l 836 214 l 1165 576 l 1338 576 l 1006 214 l 935 235 l 1396 235 l 1374 117 l 817 117 m 1106 0 l 1131 117 l 1169 233 l 1189 332 l 1321 332 l 1256 0 l 1106 0 z "},"½":{"ha":1450,"x_min":106,"x_max":1381,"o":"m 236 0 l 1085 972 l 1260 972 l 410 0 l 236 0 m 835 0 l 853 93 l 1136 294 q 1189 338 1169 319 q 1216 372 1208 356 q 1224 406 1224 389 q 1201 450 1224 433 q 1131 467 1178 467 q 1054 451 1089 467 q 993 408 1019 435 l 899 479 q 1003 557 938 526 q 1158 588 1068 588 q 1320 542 1260 588 q 1381 424 1381 496 q 1371 364 1381 393 q 1329 301 1361 335 q 1233 222 1297 268 l 1014 65 l 986 117 l 1342 117 l 1319 0 l 835 0 z "},"¾":{"ha":1450,"x_min":51,"x_max":1396,"o":"m 236 0 l 1085 972 l 1260 972 l 410 0 l 236 0 m 817 117 l 836 214 l 1165 576 l 1338 576 l 1006 214 l 935 235 l 1396 235 l 1374 117 l 817 117 m 1106 0 l 1131 117 l 1169 233 l 1189 332 l 1321 332 l 1256 0 l 1106 0 z "},"¿":{"ha":818,"x_min":4,"x_max":733,"o":"m 326 -229 q 156 -201 228 -229 q 44 -121 83 -172 q 4 0 4 -69 q 24 102 4 60 q 76 177 44 144 q 145 237 108 210 q 217 289 182 264 q 279 343 253 314 q 315 410 306 372 l 525 410 q 490 323 515 360 q 433 257 465 286 q 365 203 400 228 q 301 155 331 179 q 253 103 272 131 q 235 42 235 76 q 269 -22 235 3 q 371 -47 304 -47 q 494 -20 439 -47 q 589 57 549 7 l 733 -49 q 567 -180 672 -131 q 326 -229 463 -229 m 458 507 q 367 540 403 507 q 332 622 332 574 q 350 692 332 661 q 400 740 368 722 q 471 758 432 758 q 562 724 526 758 q 597 642 597 690 q 558 545 597 583 q 458 507 518 507 z "},"À":{"ha":1064,"x_min":-87,"x_max":1003,"o":"m -87 0 l 540 972 l 764 972 l 1003 0 l 778 0 l 589 861 l 678 861 l 153 0 l -87 0 m 172 208 l 264 379 l 765 379 l 792 208 l 172 208 z "},"Á":{"ha":1064,"x_min":-87,"x_max":1003,"o":"m -87 0 l 540 972 l 764 972 l 1003 0 l 778 0 l 589 861 l 678 861 l 153 0 l -87 0 m 172 208 l 264 379 l 765 379 l 792 208 l 172 208 z "},"Â":{"ha":1064,"x_min":-87,"x_max":1003,"o":"m -87 0 l 540 972 l 764 972 l 1003 0 l 778 0 l 589 861 l 678 861 l 153 0 l -87 0 m 172 208 l 264 379 l 765 379 l 792 208 l 172 208 z "},"Ã":{"ha":1064,"x_min":-87,"x_max":1003,"o":"m -87 0 l 540 972 l 764 972 l 1003 0 l 778 0 l 589 861 l 678 861 l 153 0 l -87 0 m 172 208 l 264 379 l 765 379 l 792 208 l 172 208 z "},"Ä":{"ha":1064,"x_min":-87,"x_max":1003,"o":"m -87 0 l 540 972 l 764 972 l 1003 0 l 778 0 l 589 861 l 678 861 l 153 0 l -87 0 m 172 208 l 264 379 l 765 379 l 792 208 l 172 208 z "},"Å":{"ha":1064,"x_min":-87,"x_max":1003,"o":"m -87 0 l 540 972 l 764 972 l 1003 0 l 778 0 l 589 861 l 678 861 l 153 0 l -87 0 m 172 208 l 264 379 l 765 379 l 792 208 l 172 208 m 700 1047 q 613 1070 651 1047 q 551 1131 574 1093 q 528 1215 528 1168 q 551 1299 528 1261 q 613 1360 574 1338 q 700 1383 653 1383 q 789 1360 750 1383 q 851 1299 828 1338 q 874 1215 874 1261 q 851 1131 874 1168 q 789 1070 828 1093 q 700 1047 750 1047 m 700 1131 q 761 1154 738 1131 q 785 1214 785 1178 q 761 1276 785 1251 q 700 1300 738 1300 q 641 1276 665 1300 q 617 1215 617 1253 q 640 1154 617 1178 q 700 1131 664 1131 z "},"Æ":{"ha":1503,"x_min":-89,"x_max":1540,"o":"m -89 0 l 647 972 l 883 972 l 849 793 l 656 793 l 815 886 l 158 0 l -89 0 m 244 208 l 282 379 l 764 379 l 732 208 l 244 208 m 613 0 l 807 972 l 1540 972 l 1504 792 l 993 792 l 871 181 l 1401 181 l 1365 0 l 613 0 m 899 406 l 935 581 l 1403 581 l 1368 406 l 899 406 z "},"Ç":{"ha":1018,"x_min":71,"x_max":1057,"o":"m 551 -17 q 295 37 403 -17 q 129 185 188 90 q 71 406 71 281 q 115 636 71 529 q 238 822 158 743 q 428 944 318 900 q 675 989 539 989 q 906 944 806 989 q 1057 817 1006 900 l 894 683 q 799 768 857 739 q 660 797 740 797 q 511 769 578 797 q 397 688 444 740 q 324 567 349 636 q 299 419 299 497 q 331 291 299 346 q 424 206 363 236 q 571 175 485 175 q 711 202 646 175 q 829 288 776 229 l 963 151 q 781 23 886 63 q 551 -17 676 -17 m 392 -322 q 319 -314 353 -322 q 260 -293 285 -306 l 308 -200 q 351 -215 328 -210 q 401 -221 375 -221 q 459 -208 440 -221 q 478 -175 478 -194 q 465 -146 479 -156 q 418 -136 451 -136 l 369 -136 l 436 11 l 551 11 l 517 -69 q 593 -106 568 -76 q 614 -176 618 -136 q 548 -283 608 -244 q 392 -322 488 -322 z "},"È":{"ha":932,"x_min":40,"x_max":969,"o":"m 364 581 l 832 581 l 797 406 l 329 406 l 364 581 m 300 181 l 831 181 l 793 0 l 40 0 l 235 972 l 969 972 l 932 792 l 422 792 l 300 181 z "},"É":{"ha":932,"x_min":40,"x_max":969,"o":"m 364 581 l 832 581 l 797 406 l 329 406 l 364 581 m 300 181 l 831 181 l 793 0 l 40 0 l 235 972 l 969 972 l 932 792 l 422 792 l 300 181 z "},"Ê":{"ha":932,"x_min":40,"x_max":969,"o":"m 364 581 l 832 581 l 797 406 l 329 406 l 364 581 m 300 181 l 831 181 l 793 0 l 40 0 l 235 972 l 969 972 l 932 792 l 422 792 l 300 181 z "},"Ë":{"ha":932,"x_min":40,"x_max":969,"o":"m 364 581 l 832 581 l 797 406 l 329 406 l 364 581 m 300 181 l 831 181 l 793 0 l 40 0 l 235 972 l 969 972 l 932 792 l 422 792 l 300 181 z "},"Ì":{"ha":456,"x_min":40,"x_max":489,"o":"m 40 0 l 235 972 l 461 972 l 267 0 l 40 0 z "},"Í":{"ha":456,"x_min":40,"x_max":682,"o":"m 40 0 l 235 972 l 461 972 l 267 0 l 40 0 z "},"Î":{"ha":456,"x_min":40,"x_max":643,"o":"m 40 0 l 235 972 l 461 972 l 267 0 l 40 0 z "},"Ï":{"ha":456,"x_min":40,"x_max":621,"o":"m 40 0 l 235 972 l 461 972 l 267 0 l 40 0 z "},"Ð":{"ha":1165,"x_min":10,"x_max":1139,"o":"m 58 0 l 253 972 l 660 972 q 917 923 810 972 q 1082 783 1025 874 q 1139 567 1139 692 q 1095 333 1139 438 q 971 155 1051 229 q 779 40 890 81 q 533 0 668 0 l 58 0 m 321 185 l 540 185 q 741 233 658 185 q 867 365 824 282 q 911 554 911 449 q 881 678 911 626 q 788 759 850 731 q 635 788 726 788 l 442 788 l 321 185 m 10 419 l 40 569 l 640 569 l 611 419 l 10 419 z "},"Ñ":{"ha":1122,"x_min":40,"x_max":1126,"o":"m 40 0 l 235 972 l 421 972 l 839 268 l 765 272 l 904 972 l 1126 972 l 932 0 l 747 0 l 328 704 l 403 700 l 263 0 l 40 0 z "},"Ò":{"ha":1172,"x_min":71,"x_max":1146,"o":"m 544 -17 q 291 37 397 -17 q 128 185 185 90 q 71 406 71 281 q 114 637 71 531 q 237 822 157 743 q 427 944 317 900 q 672 989 538 989 q 926 935 819 989 q 1089 787 1032 882 q 1146 567 1146 692 q 1103 335 1146 442 q 980 151 1060 229 q 790 28 900 72 q 544 -17 679 -17 m 564 175 q 712 205 646 175 q 824 288 778 235 q 894 409 869 340 q 918 554 918 478 q 888 681 918 626 q 798 767 857 736 q 653 797 739 797 q 506 767 571 797 q 394 685 440 738 q 323 563 347 632 q 299 418 299 494 q 330 291 299 346 q 420 206 361 236 q 564 175 479 175 z "},"Ó":{"ha":1172,"x_min":71,"x_max":1146,"o":"m 544 -17 q 291 37 397 -17 q 128 185 185 90 q 71 406 71 281 q 114 637 71 531 q 237 822 157 743 q 427 944 317 900 q 672 989 538 989 q 926 935 819 989 q 1089 787 1032 882 q 1146 567 1146 692 q 1103 335 1146 442 q 980 151 1060 229 q 790 28 900 72 q 544 -17 679 -17 m 564 175 q 712 205 646 175 q 824 288 778 235 q 894 409 869 340 q 918 554 918 478 q 888 681 918 626 q 798 767 857 736 q 653 797 739 797 q 506 767 571 797 q 394 685 440 738 q 323 563 347 632 q 299 418 299 494 q 330 291 299 346 q 420 206 361 236 q 564 175 479 175 z "},"Ô":{"ha":1172,"x_min":71,"x_max":1146,"o":"m 544 -17 q 291 37 397 -17 q 128 185 185 90 q 71 406 71 281 q 114 637 71 531 q 237 822 157 743 q 427 944 317 900 q 672 989 538 989 q 926 935 819 989 q 1089 787 1032 882 q 1146 567 1146 692 q 1103 335 1146 442 q 980 151 1060 229 q 790 28 900 72 q 544 -17 679 -17 m 564 175 q 712 205 646 175 q 824 288 778 235 q 894 409 869 340 q 918 554 918 478 q 888 681 918 626 q 798 767 857 736 q 653 797 739 797 q 506 767 571 797 q 394 685 440 738 q 323 563 347 632 q 299 418 299 494 q 330 291 299 346 q 420 206 361 236 q 564 175 479 175 z "},"Õ":{"ha":1172,"x_min":71,"x_max":1146,"o":"m 544 -17 q 291 37 397 -17 q 128 185 185 90 q 71 406 71 281 q 114 637 71 531 q 237 822 157 743 q 427 944 317 900 q 672 989 538 989 q 926 935 819 989 q 1089 787 1032 882 q 1146 567 1146 692 q 1103 335 1146 442 q 980 151 1060 229 q 790 28 900 72 q 544 -17 679 -17 m 564 175 q 712 205 646 175 q 824 288 778 235 q 894 409 869 340 q 918 554 918 478 q 888 681 918 626 q 798 767 857 736 q 653 797 739 797 q 506 767 571 797 q 394 685 440 738 q 323 563 347 632 q 299 418 299 494 q 330 291 299 346 q 420 206 361 236 q 564 175 479 175 z "},"Ö":{"ha":1172,"x_min":71,"x_max":1146,"o":"m 544 -17 q 291 37 397 -17 q 128 185 185 90 q 71 406 71 281 q 114 637 71 531 q 237 822 157 743 q 427 944 317 900 q 672 989 538 989 q 926 935 819 989 q 1089 787 1032 882 q 1146 567 1146 692 q 1103 335 1146 442 q 980 151 1060 229 q 790 28 900 72 q 544 -17 679 -17 m 564 175 q 712 205 646 175 q 824 288 778 235 q 894 409 869 340 q 918 554 918 478 q 888 681 918 626 q 798 767 857 736 q 653 797 739 797 q 506 767 571 797 q 394 685 440 738 q 323 563 347 632 q 299 418 299 494 q 330 291 299 346 q 420 206 361 236 q 564 175 479 175 z "},"×":{"ha":832,"x_min":124,"x_max":754,"o":"m 124 317 l 646 782 l 754 656 l 232 190 l 124 317 m 171 665 l 299 782 l 707 307 l 579 190 l 171 665 z "},"Ø":{"ha":1172,"x_min":1,"x_max":1214,"o":"m 544 -17 q 291 37 397 -17 q 128 185 185 90 q 71 406 71 281 q 114 637 71 531 q 237 822 157 743 q 427 944 317 900 q 672 989 538 989 q 926 935 819 989 q 1089 787 1032 882 q 1146 567 1146 692 q 1103 335 1146 442 q 980 151 1060 229 q 790 28 900 72 q 544 -17 679 -17 m 564 175 q 712 205 646 175 q 824 288 778 235 q 894 409 869 340 q 918 554 918 478 q 888 681 918 626 q 798 767 857 736 q 653 797 739 797 q 506 767 571 797 q 394 685 440 738 q 323 563 347 632 q 299 418 299 494 q 330 291 299 346 q 420 206 361 236 q 564 175 479 175 m 1 -97 l 1064 1069 l 1214 1069 l 153 -97 l 1 -97 z "},"Ù":{"ha":1094,"x_min":92,"x_max":1106,"o":"m 499 -17 q 263 39 357 -17 q 130 194 168 94 q 118 428 92 293 l 226 972 l 453 972 l 344 432 q 338 318 332 367 q 366 238 343 269 q 429 190 389 206 q 524 175 469 175 q 642 201 592 175 q 725 285 692 228 q 776 432 758 342 l 885 972 l 1106 972 l 996 418 q 828 93 953 203 q 499 -17 703 -17 z "},"Ú":{"ha":1094,"x_min":92,"x_max":1106,"o":"m 499 -17 q 263 39 357 -17 q 130 194 168 94 q 118 428 92 293 l 226 972 l 453 972 l 344 432 q 338 318 332 367 q 366 238 343 269 q 429 190 389 206 q 524 175 469 175 q 642 201 592 175 q 725 285 692 228 q 776 432 758 342 l 885 972 l 1106 972 l 996 418 q 828 93 953 203 q 499 -17 703 -17 z "},"Û":{"ha":1094,"x_min":92,"x_max":1106,"o":"m 499 -17 q 263 39 357 -17 q 130 194 168 94 q 118 428 92 293 l 226 972 l 453 972 l 344 432 q 338 318 332 367 q 366 238 343 269 q 429 190 389 206 q 524 175 469 175 q 642 201 592 175 q 725 285 692 228 q 776 432 758 342 l 885 972 l 1106 972 l 996 418 q 828 93 953 203 q 499 -17 703 -17 z "},"Ü":{"ha":1094,"x_min":92,"x_max":1106,"o":"m 499 -17 q 263 39 357 -17 q 130 194 168 94 q 118 428 92 293 l 226 972 l 453 972 l 344 432 q 338 318 332 367 q 366 238 343 269 q 429 190 389 206 q 524 175 469 175 q 642 201 592 175 q 725 285 692 228 q 776 432 758 342 l 885 972 l 1106 972 l 996 418 q 828 93 953 203 q 499 -17 703 -17 z "},"Ý":{"ha":939,"x_min":100,"x_max":1079,"o":"m 282 0 l 361 400 l 386 258 l 100 972 l 325 972 l 543 426 l 407 425 l 847 972 l 1079 972 l 510 257 l 586 400 l 507 0 l 282 0 z "},"Þ":{"ha":1017,"x_min":40,"x_max":988,"o":"m 251 161 l 286 344 l 525 344 q 698 395 636 344 q 760 542 760 446 q 713 648 760 614 q 579 682 665 682 l 356 682 l 390 865 l 611 865 q 889 786 790 865 q 988 563 988 707 q 931 349 988 440 q 767 210 874 258 q 515 161 661 161 l 251 161 m 40 0 l 235 972 l 461 972 l 267 0 l 40 0 z "},"ß":{"ha":963,"x_min":25,"x_max":908,"o":"m 514 -11 q 410 -3 460 -11 q 335 17 361 6 l 390 185 q 444 172 414 176 q 507 167 474 167 q 599 183 560 167 q 661 233 639 200 q 683 311 683 267 q 644 392 683 365 q 538 419 604 419 l 464 419 l 499 590 q 604 613 560 592 q 674 671 649 633 q 699 760 699 708 q 666 838 699 810 q 574 865 633 865 q 449 825 500 865 q 382 699 399 785 l 242 0 l 25 0 l 161 681 q 247 885 186 806 q 396 1003 307 965 q 592 1042 485 1042 q 759 1010 688 1042 q 869 922 831 979 q 908 785 908 864 q 863 626 908 696 q 733 515 817 556 q 538 475 650 475 l 593 567 q 753 538 685 567 q 861 453 822 508 q 900 319 900 399 q 850 145 900 219 q 713 30 800 71 q 514 -11 625 -11 z "},"à":{"ha":958,"x_min":42,"x_max":933,"o":"m 364 -11 q 204 28 278 -11 q 86 143 131 68 q 42 324 42 218 q 73 497 42 418 q 161 635 104 576 q 293 726 218 693 q 454 758 368 758 q 614 724 547 758 q 713 616 681 689 q 736 428 746 543 q 682 197 729 296 q 555 43 635 97 q 364 -11 475 -11 m 431 168 q 544 199 494 168 q 622 285 593 231 q 650 414 650 340 q 605 535 650 490 q 479 579 560 579 q 367 548 417 579 q 288 462 317 517 q 260 333 260 407 q 305 213 260 257 q 431 168 350 168 m 579 0 l 608 149 l 657 371 l 686 593 l 717 747 l 933 747 l 785 0 l 579 0 m 536 843 l 325 1043 l 557 1043 l 704 843 l 536 843 z "},"á":{"ha":958,"x_min":42,"x_max":933,"o":"m 364 -11 q 204 28 278 -11 q 86 143 131 68 q 42 324 42 218 q 73 497 42 418 q 161 635 104 576 q 293 726 218 693 q 454 758 368 758 q 614 724 547 758 q 713 616 681 689 q 736 428 746 543 q 682 197 729 296 q 555 43 635 97 q 364 -11 475 -11 m 431 168 q 544 199 494 168 q 622 285 593 231 q 650 414 650 340 q 605 535 650 490 q 479 579 560 579 q 367 548 417 579 q 288 462 317 517 q 260 333 260 407 q 305 213 260 257 q 431 168 350 168 m 579 0 l 608 149 l 657 371 l 686 593 l 717 747 l 933 747 l 785 0 l 579 0 m 450 843 l 658 1043 l 897 1043 l 625 843 l 450 843 z "},"â":{"ha":958,"x_min":42,"x_max":933,"o":"m 364 -11 q 204 28 278 -11 q 86 143 131 68 q 42 324 42 218 q 73 497 42 418 q 161 635 104 576 q 293 726 218 693 q 454 758 368 758 q 614 724 547 758 q 713 616 681 689 q 736 428 746 543 q 682 197 729 296 q 555 43 635 97 q 364 -11 475 -11 m 431 168 q 544 199 494 168 q 622 285 593 231 q 650 414 650 340 q 605 535 650 490 q 479 579 560 579 q 367 548 417 579 q 288 462 317 517 q 260 333 260 407 q 305 213 260 257 q 431 168 350 168 m 579 0 l 608 149 l 657 371 l 686 593 l 717 747 l 933 747 l 785 0 l 579 0 m 300 843 l 511 1043 l 701 1043 l 858 843 l 704 843 l 533 1010 l 676 1010 l 463 843 l 300 843 z "},"ã":{"ha":958,"x_min":42,"x_max":933,"o":"m 364 -11 q 204 28 278 -11 q 86 143 131 68 q 42 324 42 218 q 73 497 42 418 q 161 635 104 576 q 293 726 218 693 q 454 758 368 758 q 614 724 547 758 q 713 616 681 689 q 736 428 746 543 q 682 197 729 296 q 555 43 635 97 q 364 -11 475 -11 m 431 168 q 544 199 494 168 q 622 285 593 231 q 650 414 650 340 q 605 535 650 490 q 479 579 560 579 q 367 548 417 579 q 288 462 317 517 q 260 333 260 407 q 305 213 260 257 q 431 168 350 168 m 579 0 l 608 149 l 657 371 l 686 593 l 717 747 l 933 747 l 785 0 l 579 0 m 696 839 q 633 852 660 839 q 584 883 606 865 q 543 913 563 900 q 501 926 524 926 q 454 906 474 926 q 428 849 435 885 l 318 849 q 382 999 333 947 q 503 1051 431 1051 q 566 1038 539 1051 q 615 1007 593 1025 q 656 976 636 989 q 696 963 675 963 q 744 984 725 963 q 769 1038 764 1006 l 879 1038 q 816 891 864 943 q 696 839 768 839 z "},"ä":{"ha":958,"x_min":42,"x_max":933,"o":"m 364 -11 q 204 28 278 -11 q 86 143 131 68 q 42 324 42 218 q 73 497 42 418 q 161 635 104 576 q 293 726 218 693 q 454 758 368 758 q 614 724 547 758 q 713 616 681 689 q 736 428 746 543 q 682 197 729 296 q 555 43 635 97 q 364 -11 475 -11 m 431 168 q 544 199 494 168 q 622 285 593 231 q 650 414 650 340 q 605 535 650 490 q 479 579 560 579 q 367 548 417 579 q 288 462 317 517 q 260 333 260 407 q 305 213 260 257 q 431 168 350 168 m 579 0 l 608 149 l 657 371 l 686 593 l 717 747 l 933 747 l 785 0 l 579 0 m 733 850 q 669 874 694 850 q 643 936 643 897 q 674 1013 643 983 q 746 1042 704 1042 q 810 1018 783 1042 q 836 956 836 994 q 805 879 836 908 q 733 850 774 850 m 451 850 q 388 874 414 850 q 361 936 361 897 q 392 1013 361 983 q 464 1042 424 1042 q 529 1018 503 1042 q 556 956 556 994 q 524 879 556 908 q 451 850 492 850 z "},"å":{"ha":958,"x_min":42,"x_max":933,"o":"m 364 -11 q 204 28 278 -11 q 86 143 131 68 q 42 324 42 218 q 73 497 42 418 q 161 635 104 576 q 293 726 218 693 q 454 758 368 758 q 614 724 547 758 q 713 616 681 689 q 736 428 746 543 q 682 197 729 296 q 555 43 635 97 q 364 -11 475 -11 m 431 168 q 544 199 494 168 q 622 285 593 231 q 650 414 650 340 q 605 535 650 490 q 479 579 560 579 q 367 548 417 579 q 288 462 317 517 q 260 333 260 407 q 305 213 260 257 q 431 168 350 168 m 579 0 l 608 149 l 657 371 l 686 593 l 717 747 l 933 747 l 785 0 l 579 0 m 607 822 q 519 845 558 822 q 458 906 481 868 q 435 990 435 943 q 458 1074 435 1036 q 520 1135 481 1113 q 607 1158 560 1158 q 696 1135 657 1158 q 758 1074 735 1113 q 781 990 781 1036 q 758 906 781 943 q 696 845 735 868 q 607 822 657 822 m 607 906 q 668 929 644 906 q 692 989 692 953 q 668 1051 692 1026 q 607 1075 644 1075 q 548 1051 572 1075 q 524 990 524 1028 q 547 929 524 953 q 607 906 571 906 z "},"æ":{"ha":1382,"x_min":22,"x_max":1347,"o":"m 318 -11 q 159 17 225 -11 q 58 92 93 44 q 22 203 22 140 q 109 376 22 313 q 364 440 196 440 l 571 440 l 549 314 l 368 314 q 268 289 303 314 q 233 218 233 264 q 263 158 233 181 q 351 135 292 135 q 429 150 394 135 q 488 197 464 165 q 522 279 513 229 l 554 436 q 529 547 568 508 q 403 585 490 585 q 287 568 344 585 q 186 525 229 551 l 129 679 q 225 724 172 707 q 334 749 278 740 q 440 758 390 758 q 647 714 572 758 q 744 583 722 669 l 651 588 q 742 680 692 642 q 853 738 792 718 q 986 758 914 758 q 1177 717 1096 758 q 1303 603 1258 676 q 1347 429 1347 531 q 1344 371 1347 400 q 1333 314 1340 342 l 718 314 l 740 440 l 1203 440 l 1139 403 q 1131 508 1150 465 q 1072 573 1113 550 q 975 596 1032 596 q 856 562 906 596 q 780 468 806 528 q 754 333 754 408 q 803 203 754 243 q 949 163 851 163 q 1060 180 1010 163 q 1149 232 1111 197 l 1243 89 q 1094 13 1176 38 q 926 -11 1013 -11 q 774 14 847 -11 q 647 92 700 39 q 571 231 594 146 l 683 229 q 591 84 646 136 q 467 10 536 32 q 318 -11 399 -11 z "},"ç":{"ha":821,"x_min":40,"x_max":832,"o":"m 421 -11 q 220 31 306 -11 q 88 147 135 72 q 40 324 40 222 q 99 547 40 449 q 260 701 157 644 q 496 758 363 758 q 703 709 615 758 q 832 569 790 660 l 649 478 q 583 555 625 531 q 482 579 540 579 q 368 548 418 579 q 289 462 318 517 q 260 335 260 407 q 305 213 260 258 q 433 168 350 168 q 538 192 490 168 q 617 268 585 217 l 776 168 q 630 36 724 83 q 421 -11 536 -11 m 293 -322 q 220 -314 254 -322 q 161 -293 186 -306 l 210 -200 q 253 -215 229 -210 q 303 -221 276 -221 q 360 -208 342 -221 q 379 -175 379 -194 q 367 -146 381 -156 q 319 -136 353 -136 l 271 -136 l 338 11 l 453 11 l 418 -69 q 494 -106 469 -76 q 515 -176 519 -136 q 449 -283 510 -244 q 293 -322 389 -322 z "},"è":{"ha":872,"x_min":42,"x_max":838,"o":"m 424 -11 q 222 31 307 -11 q 89 147 136 72 q 42 324 42 222 q 98 547 42 449 q 253 701 154 644 q 482 758 353 758 q 671 717 592 758 q 794 603 750 676 q 838 429 838 531 q 834 371 838 400 q 825 315 831 342 l 207 315 l 229 442 l 724 442 l 635 403 q 628 508 646 465 q 569 573 610 550 q 472 596 529 596 q 352 562 401 596 q 278 468 303 528 q 253 333 253 408 q 301 205 253 247 q 446 163 349 163 q 556 181 503 163 q 646 232 608 199 l 736 89 q 590 13 671 38 q 424 -11 508 -11 m 486 842 l 275 1042 l 507 1042 l 654 842 l 486 842 z "},"é":{"ha":872,"x_min":42,"x_max":847,"o":"m 424 -11 q 222 31 307 -11 q 89 147 136 72 q 42 324 42 222 q 98 547 42 449 q 253 701 154 644 q 482 758 353 758 q 671 717 592 758 q 794 603 750 676 q 838 429 838 531 q 834 371 838 400 q 825 315 831 342 l 207 315 l 229 442 l 724 442 l 635 403 q 628 508 646 465 q 569 573 610 550 q 472 596 529 596 q 352 562 401 596 q 278 468 303 528 q 253 333 253 408 q 301 205 253 247 q 446 163 349 163 q 556 181 503 163 q 646 232 608 199 l 736 89 q 590 13 671 38 q 424 -11 508 -11 m 400 842 l 608 1042 l 847 1042 l 575 842 l 400 842 z "},"ê":{"ha":872,"x_min":42,"x_max":838,"o":"m 424 -11 q 222 31 307 -11 q 89 147 136 72 q 42 324 42 222 q 98 547 42 449 q 253 701 154 644 q 482 758 353 758 q 671 717 592 758 q 794 603 750 676 q 838 429 838 531 q 834 371 838 400 q 825 315 831 342 l 207 315 l 229 442 l 724 442 l 635 403 q 628 508 646 465 q 569 573 610 550 q 472 596 529 596 q 352 562 401 596 q 278 468 303 528 q 253 333 253 408 q 301 205 253 247 q 446 163 349 163 q 556 181 503 163 q 646 232 608 199 l 736 89 q 590 13 671 38 q 424 -11 508 -11 m 250 842 l 461 1042 l 651 1042 l 808 842 l 654 842 l 483 1008 l 626 1008 l 413 842 l 250 842 z "},"ë":{"ha":872,"x_min":42,"x_max":838,"o":"m 424 -11 q 222 31 307 -11 q 89 147 136 72 q 42 324 42 222 q 98 547 42 449 q 253 701 154 644 q 482 758 353 758 q 671 717 592 758 q 794 603 750 676 q 838 429 838 531 q 834 371 838 400 q 825 315 831 342 l 207 315 l 229 442 l 724 442 l 635 403 q 628 508 646 465 q 569 573 610 550 q 472 596 529 596 q 352 562 401 596 q 278 468 303 528 q 253 333 253 408 q 301 205 253 247 q 446 163 349 163 q 556 181 503 163 q 646 232 608 199 l 736 89 q 590 13 671 38 q 424 -11 508 -11 m 683 849 q 619 872 644 849 q 593 935 593 896 q 624 1011 593 982 q 696 1040 654 1040 q 760 1017 733 1040 q 786 954 786 993 q 755 878 786 907 q 683 849 724 849 m 401 849 q 338 872 364 849 q 311 935 311 896 q 342 1011 311 982 q 414 1040 374 1040 q 479 1017 453 1040 q 506 954 506 993 q 474 878 506 907 q 401 849 442 849 z "},"ì":{"ha":417,"x_min":26,"x_max":428,"o":"m 26 0 l 175 747 l 390 747 l 242 0 l 26 0 m 260 843 l 49 1043 l 281 1043 l 428 843 l 260 843 z "},"í":{"ha":417,"x_min":26,"x_max":621,"o":"m 26 0 l 175 747 l 390 747 l 242 0 l 26 0 m 174 843 l 382 1043 l 621 1043 l 349 843 l 174 843 z "},"î":{"ha":417,"x_min":26,"x_max":547,"o":"m 26 0 l 175 747 l 390 747 l 242 0 l 26 0 m 58 843 l 238 1043 l 424 1043 l 547 843 l 397 843 l 264 1010 l 394 1010 l 217 843 l 58 843 z "},"ï":{"ha":417,"x_min":26,"x_max":526,"o":"m 26 0 l 175 747 l 390 747 l 242 0 l 26 0 m 431 850 q 370 874 394 850 q 346 936 346 899 q 374 1012 346 982 q 443 1042 401 1042 q 502 1017 478 1042 q 526 956 526 993 q 499 880 526 910 q 431 850 472 850 m 203 850 q 141 874 165 850 q 117 936 117 899 q 144 1012 117 982 q 215 1042 172 1042 q 275 1017 251 1042 q 299 953 299 992 q 271 879 299 908 q 203 850 243 850 z "},"ð":{"ha":913,"x_min":32,"x_max":940,"o":"m 375 -17 q 195 20 272 -17 q 75 122 118 57 q 32 271 32 186 q 83 452 32 374 q 223 575 133 531 q 428 619 313 619 q 560 597 501 619 q 658 531 619 574 q 710 425 697 488 l 633 383 q 661 478 651 425 q 674 586 671 532 q 617 792 685 721 q 418 863 550 863 q 326 856 375 863 q 235 836 278 850 l 242 1003 q 345 1023 293 1017 q 453 1029 397 1029 q 686 980 586 1029 q 842 838 786 931 q 899 613 899 744 q 876 417 899 511 q 809 244 853 324 q 701 107 765 165 q 556 16 638 49 q 375 -17 474 -17 m 403 151 q 479 164 443 151 q 542 198 515 176 q 585 250 569 219 q 600 318 600 281 q 558 417 600 381 q 446 453 517 453 q 343 431 388 453 q 274 373 299 410 q 249 286 249 336 q 290 188 249 224 q 403 151 332 151 m 283 646 l 244 756 l 901 996 l 940 885 l 283 646 z "},"ñ":{"ha":960,"x_min":26,"x_max":894,"o":"m 610 758 q 772 719 706 758 q 867 603 839 679 q 872 414 894 526 l 789 0 l 572 0 l 653 400 q 640 526 669 482 q 531 571 610 571 q 394 524 449 571 q 318 379 339 476 l 243 0 l 26 0 l 175 747 l 381 747 l 338 536 l 307 600 q 441 720 361 682 q 610 758 521 758 m 694 839 q 631 852 658 839 q 583 883 604 865 q 542 913 561 900 q 500 926 522 926 q 453 906 472 926 q 426 849 433 885 l 317 849 q 381 999 332 947 q 501 1051 429 1051 q 565 1038 538 1051 q 613 1007 592 1025 q 654 976 635 989 q 694 963 674 963 q 743 984 724 963 q 768 1038 763 1006 l 878 1038 q 815 891 863 943 q 694 839 767 839 z "},"ò":{"ha":908,"x_min":40,"x_max":868,"o":"m 417 -11 q 218 31 303 -11 q 87 147 133 72 q 40 324 40 222 q 99 547 40 449 q 259 701 157 644 q 492 758 361 758 q 691 717 607 758 q 822 601 775 675 q 868 424 868 526 q 810 201 868 300 q 650 46 751 103 q 417 -11 549 -11 m 431 167 q 544 198 494 167 q 621 285 593 229 q 649 414 649 340 q 604 535 649 489 q 479 581 560 581 q 366 549 415 581 q 288 463 317 518 q 260 333 260 407 q 304 212 260 257 q 431 167 349 167 m 501 843 l 290 1043 l 522 1043 l 669 843 l 501 843 z "},"ó":{"ha":908,"x_min":40,"x_max":868,"o":"m 417 -11 q 218 31 303 -11 q 87 147 133 72 q 40 324 40 222 q 99 547 40 449 q 259 701 157 644 q 492 758 361 758 q 691 717 607 758 q 822 601 775 675 q 868 424 868 526 q 810 201 868 300 q 650 46 751 103 q 417 -11 549 -11 m 431 167 q 544 198 494 167 q 621 285 593 229 q 649 414 649 340 q 604 535 649 489 q 479 581 560 581 q 366 549 415 581 q 288 463 317 518 q 260 333 260 407 q 304 212 260 257 q 431 167 349 167 m 415 843 l 624 1043 l 863 1043 l 590 843 l 415 843 z "},"ô":{"ha":908,"x_min":40,"x_max":868,"o":"m 417 -11 q 218 31 303 -11 q 87 147 133 72 q 40 324 40 222 q 99 547 40 449 q 259 701 157 644 q 492 758 361 758 q 691 717 607 758 q 822 601 775 675 q 868 424 868 526 q 810 201 868 300 q 650 46 751 103 q 417 -11 549 -11 m 431 167 q 544 198 494 167 q 621 285 593 229 q 649 414 649 340 q 604 535 649 489 q 479 581 560 581 q 366 549 415 581 q 288 463 317 518 q 260 333 260 407 q 304 212 260 257 q 431 167 349 167 m 265 843 l 476 1043 l 667 1043 l 824 843 l 669 843 l 499 1010 l 642 1010 l 428 843 l 265 843 z "},"õ":{"ha":908,"x_min":40,"x_max":868,"o":"m 417 -11 q 218 31 303 -11 q 87 147 133 72 q 40 324 40 222 q 99 547 40 449 q 259 701 157 644 q 492 758 361 758 q 691 717 607 758 q 822 601 775 675 q 868 424 868 526 q 810 201 868 300 q 650 46 751 103 q 417 -11 549 -11 m 431 167 q 544 198 494 167 q 621 285 593 229 q 649 414 649 340 q 604 535 649 489 q 479 581 560 581 q 366 549 415 581 q 288 463 317 518 q 260 333 260 407 q 304 212 260 257 q 431 167 349 167 m 661 839 q 598 852 625 839 q 549 883 571 865 q 508 913 528 900 q 467 926 489 926 q 419 906 439 926 q 393 849 400 885 l 283 849 q 347 999 299 947 q 468 1051 396 1051 q 531 1038 504 1051 q 580 1007 558 1025 q 621 976 601 989 q 661 963 640 963 q 710 984 690 963 q 735 1038 729 1006 l 844 1038 q 781 891 829 943 q 661 839 733 839 z "},"ö":{"ha":908,"x_min":40,"x_max":868,"o":"m 417 -11 q 218 31 303 -11 q 87 147 133 72 q 40 324 40 222 q 99 547 40 449 q 259 701 157 644 q 492 758 361 758 q 691 717 607 758 q 822 601 775 675 q 868 424 868 526 q 810 201 868 300 q 650 46 751 103 q 417 -11 549 -11 m 431 167 q 544 198 494 167 q 621 285 593 229 q 649 414 649 340 q 604 535 649 489 q 479 581 560 581 q 366 549 415 581 q 288 463 317 518 q 260 333 260 407 q 304 212 260 257 q 431 167 349 167 m 699 850 q 634 874 660 850 q 608 936 608 897 q 639 1013 608 983 q 711 1042 669 1042 q 775 1018 749 1042 q 801 956 801 994 q 770 879 801 908 q 699 850 739 850 m 417 850 q 353 874 379 850 q 326 936 326 897 q 358 1013 326 983 q 429 1042 389 1042 q 494 1018 468 1042 q 521 956 521 994 q 489 879 521 908 q 417 850 457 850 z "},"÷":{"ha":832,"x_min":92,"x_max":786,"o":"m 92 401 l 125 571 l 786 571 l 753 401 l 92 401 m 372 82 q 296 112 326 82 q 265 188 265 142 q 301 278 265 243 q 389 313 338 313 q 465 284 433 313 q 496 208 496 256 q 460 118 496 154 q 372 82 424 82 m 488 660 q 410 690 442 660 q 379 765 379 721 q 416 856 379 822 q 504 890 453 890 q 581 862 550 890 q 611 788 611 833 q 575 696 611 732 q 488 660 539 660 z "},"ø":{"ha":908,"x_min":-3,"x_max":904,"o":"m 417 -11 q 218 31 303 -11 q 87 147 133 72 q 40 324 40 222 q 99 547 40 449 q 259 701 157 644 q 492 758 361 758 q 691 717 607 758 q 822 601 775 675 q 868 424 868 526 q 810 201 868 300 q 650 46 751 103 q 417 -11 549 -11 m 431 167 q 544 198 494 167 q 621 285 593 229 q 649 414 649 340 q 604 535 649 489 q 479 581 560 581 q 366 549 415 581 q 288 463 317 518 q 260 333 260 407 q 304 212 260 257 q 431 167 349 167 m -3 -97 l 790 840 l 904 840 l 111 -97 l -3 -97 z "},"ù":{"ha":954,"x_min":65,"x_max":928,"o":"m 346 -11 q 188 28 254 -11 q 93 144 121 68 q 88 333 65 221 l 169 747 l 386 747 l 307 347 q 320 221 290 265 q 426 176 350 176 q 562 224 507 176 q 635 368 617 271 l 711 747 l 928 747 l 779 0 l 574 0 l 615 211 l 646 147 q 514 27 593 65 q 346 -11 435 -11 m 525 843 l 314 1043 l 546 1043 l 693 843 l 525 843 z "},"ú":{"ha":954,"x_min":65,"x_max":928,"o":"m 346 -11 q 188 28 254 -11 q 93 144 121 68 q 88 333 65 221 l 169 747 l 386 747 l 307 347 q 320 221 290 265 q 426 176 350 176 q 562 224 507 176 q 635 368 617 271 l 711 747 l 928 747 l 779 0 l 574 0 l 615 211 l 646 147 q 514 27 593 65 q 346 -11 435 -11 m 439 843 l 647 1043 l 886 1043 l 614 843 l 439 843 z "},"û":{"ha":954,"x_min":65,"x_max":928,"o":"m 346 -11 q 188 28 254 -11 q 93 144 121 68 q 88 333 65 221 l 169 747 l 386 747 l 307 347 q 320 221 290 265 q 426 176 350 176 q 562 224 507 176 q 635 368 617 271 l 711 747 l 928 747 l 779 0 l 574 0 l 615 211 l 646 147 q 514 27 593 65 q 346 -11 435 -11 m 289 843 l 500 1043 l 690 1043 l 847 843 l 693 843 l 522 1010 l 665 1010 l 451 843 l 289 843 z "},"ü":{"ha":954,"x_min":65,"x_max":928,"o":"m 346 -11 q 188 28 254 -11 q 93 144 121 68 q 88 333 65 221 l 169 747 l 386 747 l 307 347 q 320 221 290 265 q 426 176 350 176 q 562 224 507 176 q 635 368 617 271 l 711 747 l 928 747 l 779 0 l 574 0 l 615 211 l 646 147 q 514 27 593 65 q 346 -11 435 -11 m 722 850 q 658 874 683 850 q 632 936 632 897 q 663 1013 632 983 q 735 1042 693 1042 q 799 1018 772 1042 q 825 956 825 994 q 794 879 825 908 q 722 850 763 850 m 440 850 q 376 874 403 850 q 350 936 350 897 q 381 1013 350 983 q 453 1042 413 1042 q 518 1018 492 1042 q 544 956 544 994 q 513 879 544 908 q 440 850 481 850 z "},"ý":{"ha":831,"x_min":-125,"x_max":917,"o":"m 78 -281 q -35 -262 21 -281 q -125 -215 -92 -244 l -25 -60 q 28 -93 -1 -81 q 94 -106 58 -106 q 167 -85 136 -106 q 229 -14 199 -64 l 289 81 l 308 103 l 703 747 l 917 747 l 419 -50 q 313 -188 364 -137 q 206 -260 263 -239 q 78 -281 150 -281 m 243 -29 l 64 747 l 281 747 l 417 122 l 243 -29 m 365 843 l 574 1043 l 813 1043 l 540 843 l 365 843 z "},"þ":{"ha":958,"x_min":-28,"x_max":918,"o":"m -28 -269 l 232 1031 l 449 1031 l 361 599 l 303 376 l 274 160 l 189 -269 l -28 -269 m 504 -11 q 347 24 414 -11 q 246 131 279 58 q 222 319 213 204 q 277 551 231 453 q 404 704 324 650 q 594 758 485 758 q 756 719 682 758 q 874 605 829 679 q 918 424 918 531 q 886 251 918 331 q 798 113 854 171 q 667 22 742 54 q 504 -11 592 -11 m 479 168 q 593 199 544 168 q 670 285 642 231 q 699 414 699 340 q 654 535 699 490 q 528 579 610 579 q 415 548 465 579 q 338 462 365 517 q 310 333 310 407 q 354 213 310 257 q 479 168 399 168 z "},"ÿ":{"ha":831,"x_min":-125,"x_max":917,"o":"m 78 -281 q -35 -262 21 -281 q -125 -215 -92 -244 l -25 -60 q 28 -93 -1 -81 q 94 -106 58 -106 q 167 -85 136 -106 q 229 -14 199 -64 l 289 81 l 308 103 l 703 747 l 917 747 l 419 -50 q 313 -188 364 -137 q 206 -260 263 -239 q 78 -281 150 -281 m 243 -29 l 64 747 l 281 747 l 417 122 l 243 -29 m 649 850 q 584 874 610 850 q 558 936 558 897 q 589 1013 558 983 q 661 1042 619 1042 q 725 1018 699 1042 q 751 956 751 994 q 720 879 751 908 q 649 850 689 850 m 367 850 q 303 874 329 850 q 276 936 276 897 q 308 1013 276 983 q 379 1042 339 1042 q 444 1018 418 1042 q 471 956 471 994 q 439 879 471 908 q 367 850 407 850 z "},"Ā":{"ha":1064,"x_min":-87,"x_max":1003,"o":"m -87 0 l 540 972 l 764 972 l 1003 0 l 778 0 l 589 861 l 678 861 l 153 0 l -87 0 m 172 208 l 264 379 l 765 379 l 792 208 l 172 208 z "},"ā":{"ha":958,"x_min":42,"x_max":933,"o":"m 364 -11 q 204 28 278 -11 q 86 143 131 68 q 42 324 42 218 q 73 497 42 418 q 161 635 104 576 q 293 726 218 693 q 454 758 368 758 q 614 724 547 758 q 713 616 681 689 q 736 428 746 543 q 682 197 729 296 q 555 43 635 97 q 364 -11 475 -11 m 431 168 q 544 199 494 168 q 622 285 593 231 q 650 414 650 340 q 605 535 650 490 q 479 579 560 579 q 367 548 417 579 q 288 462 317 517 q 260 333 260 407 q 305 213 260 257 q 431 168 350 168 m 579 0 l 608 149 l 657 371 l 686 593 l 717 747 l 933 747 l 785 0 l 579 0 m 331 882 l 354 1004 l 867 1004 l 843 882 l 331 882 z "},"Ă":{"ha":1064,"x_min":-87,"x_max":1003,"o":"m -87 0 l 540 972 l 764 972 l 1003 0 l 778 0 l 589 861 l 678 861 l 153 0 l -87 0 m 172 208 l 264 379 l 765 379 l 792 208 l 172 208 z "},"ă":{"ha":958,"x_min":42,"x_max":933,"o":"m 364 -11 q 204 28 278 -11 q 86 143 131 68 q 42 324 42 218 q 73 497 42 418 q 161 635 104 576 q 293 726 218 693 q 454 758 368 758 q 614 724 547 758 q 713 616 681 689 q 736 428 746 543 q 682 197 729 296 q 555 43 635 97 q 364 -11 475 -11 m 431 168 q 544 199 494 168 q 622 285 593 231 q 650 414 650 340 q 605 535 650 490 q 479 579 560 579 q 367 548 417 579 q 288 462 317 517 q 260 333 260 407 q 305 213 260 257 q 431 168 350 168 m 579 0 l 608 149 l 657 371 l 686 593 l 717 747 l 933 747 l 785 0 l 579 0 m 592 832 q 468 858 522 832 q 385 931 414 883 q 363 1043 357 979 l 494 1043 q 524 971 493 997 q 604 944 554 944 q 690 971 656 944 q 733 1043 725 997 l 874 1043 q 779 889 856 946 q 592 832 703 832 z "},"Ą":{"ha":1064,"x_min":-87,"x_max":1003,"o":"m -87 0 l 540 972 l 764 972 l 1003 0 l 778 0 l 589 861 l 678 861 l 153 0 l -87 0 m 172 208 l 264 379 l 765 379 l 792 208 l 172 208 m 842 -322 q 717 -286 765 -322 q 668 -185 668 -250 q 700 -85 668 -131 q 790 -4 732 -40 q 924 60 847 32 l 1003 0 q 892 -49 935 -24 q 831 -101 850 -75 q 811 -154 811 -126 q 830 -197 811 -182 q 878 -212 849 -212 q 925 -206 901 -212 q 967 -192 949 -200 l 982 -290 q 919 -313 954 -304 q 842 -322 885 -322 z "},"ą":{"ha":958,"x_min":42,"x_max":933,"o":"m 364 -11 q 204 28 278 -11 q 86 143 131 68 q 42 324 42 218 q 73 497 42 418 q 161 635 104 576 q 293 726 218 693 q 454 758 368 758 q 614 724 547 758 q 713 616 681 689 q 736 428 746 543 q 682 197 729 296 q 555 43 635 97 q 364 -11 475 -11 m 431 168 q 544 199 494 168 q 622 285 593 231 q 650 414 650 340 q 605 535 650 490 q 479 579 560 579 q 367 548 417 579 q 288 462 317 517 q 260 333 260 407 q 305 213 260 257 q 431 168 350 168 m 579 0 l 608 149 l 657 371 l 686 593 l 717 747 l 933 747 l 785 0 l 579 0 m 622 -322 q 497 -286 546 -322 q 449 -185 449 -250 q 481 -85 449 -131 q 570 -4 513 -40 q 704 60 628 32 l 783 0 q 673 -49 715 -24 q 611 -101 631 -75 q 592 -154 592 -126 q 610 -197 592 -182 q 658 -212 629 -212 q 706 -206 682 -212 q 747 -192 729 -200 l 763 -290 q 700 -313 735 -304 q 622 -322 665 -322 z "},"Ć":{"ha":1018,"x_min":71,"x_max":1057,"o":"m 551 -17 q 295 37 403 -17 q 129 185 188 90 q 71 406 71 281 q 115 636 71 529 q 238 822 158 743 q 428 944 318 900 q 675 989 539 989 q 906 944 806 989 q 1057 817 1006 900 l 894 683 q 799 768 857 739 q 660 797 740 797 q 511 769 578 797 q 397 688 444 740 q 324 567 349 636 q 299 419 299 497 q 331 291 299 346 q 424 206 363 236 q 571 175 485 175 q 711 202 646 175 q 829 288 776 229 l 963 151 q 781 23 886 63 q 551 -17 676 -17 z "},"ć":{"ha":821,"x_min":40,"x_max":844,"o":"m 421 -11 q 220 31 306 -11 q 88 147 135 72 q 40 324 40 222 q 99 547 40 449 q 260 701 157 644 q 496 758 363 758 q 703 709 615 758 q 832 569 790 660 l 649 478 q 583 555 625 531 q 482 579 540 579 q 368 548 418 579 q 289 462 318 517 q 260 335 260 407 q 305 213 260 258 q 433 168 350 168 q 538 192 490 168 q 617 268 585 217 l 776 168 q 630 36 724 83 q 421 -11 536 -11 m 397 843 l 606 1043 l 844 1043 l 572 843 l 397 843 z "},"Ĉ":{"ha":1018,"x_min":71,"x_max":1057,"o":"m 551 -17 q 295 37 403 -17 q 129 185 188 90 q 71 406 71 281 q 115 636 71 529 q 238 822 158 743 q 428 944 318 900 q 675 989 539 989 q 906 944 806 989 q 1057 817 1006 900 l 894 683 q 799 768 857 739 q 660 797 740 797 q 511 769 578 797 q 397 688 444 740 q 324 567 349 636 q 299 419 299 497 q 331 291 299 346 q 424 206 363 236 q 571 175 485 175 q 711 202 646 175 q 829 288 776 229 l 963 151 q 781 23 886 63 q 551 -17 676 -17 z "},"ĉ":{"ha":821,"x_min":40,"x_max":832,"o":"m 421 -11 q 220 31 306 -11 q 88 147 135 72 q 40 324 40 222 q 99 547 40 449 q 260 701 157 644 q 496 758 363 758 q 703 709 615 758 q 832 569 790 660 l 649 478 q 583 555 625 531 q 482 579 540 579 q 368 548 418 579 q 289 462 318 517 q 260 335 260 407 q 305 213 260 258 q 433 168 350 168 q 538 192 490 168 q 617 268 585 217 l 776 168 q 630 36 724 83 q 421 -11 536 -11 m 247 843 l 458 1043 l 649 1043 l 806 843 l 651 843 l 481 1010 l 624 1010 l 410 843 l 247 843 z "},"Ċ":{"ha":1018,"x_min":71,"x_max":1057,"o":"m 551 -17 q 295 37 403 -17 q 129 185 188 90 q 71 406 71 281 q 115 636 71 529 q 238 822 158 743 q 428 944 318 900 q 675 989 539 989 q 906 944 806 989 q 1057 817 1006 900 l 894 683 q 799 768 857 739 q 660 797 740 797 q 511 769 578 797 q 397 688 444 740 q 324 567 349 636 q 299 419 299 497 q 331 291 299 346 q 424 206 363 236 q 571 175 485 175 q 711 202 646 175 q 829 288 776 229 l 963 151 q 781 23 886 63 q 551 -17 676 -17 z "},"ċ":{"ha":821,"x_min":40,"x_max":832,"o":"m 421 -11 q 220 31 306 -11 q 88 147 135 72 q 40 324 40 222 q 99 547 40 449 q 260 701 157 644 q 496 758 363 758 q 703 709 615 758 q 832 569 790 660 l 649 478 q 583 555 625 531 q 482 579 540 579 q 368 548 418 579 q 289 462 318 517 q 260 335 260 407 q 305 213 260 258 q 433 168 350 168 q 538 192 490 168 q 617 268 585 217 l 776 168 q 630 36 724 83 q 421 -11 536 -11 m 543 850 q 463 879 493 850 q 433 953 433 908 q 470 1048 433 1011 q 560 1085 507 1085 q 638 1056 608 1085 q 668 981 668 1026 q 632 886 668 922 q 543 850 596 850 z "},"Č":{"ha":1018,"x_min":71,"x_max":1057,"o":"m 551 -17 q 295 37 403 -17 q 129 185 188 90 q 71 406 71 281 q 115 636 71 529 q 238 822 158 743 q 428 944 318 900 q 675 989 539 989 q 906 944 806 989 q 1057 817 1006 900 l 894 683 q 799 768 857 739 q 660 797 740 797 q 511 769 578 797 q 397 688 444 740 q 324 567 349 636 q 299 419 299 497 q 331 291 299 346 q 424 206 363 236 q 571 175 485 175 q 711 202 646 175 q 829 288 776 229 l 963 151 q 781 23 886 63 q 551 -17 676 -17 z "},"č":{"ha":821,"x_min":40,"x_max":836,"o":"m 421 -11 q 220 31 306 -11 q 88 147 135 72 q 40 324 40 222 q 99 547 40 449 q 260 701 157 644 q 496 758 363 758 q 703 709 615 758 q 832 569 790 660 l 649 478 q 583 555 625 531 q 482 579 540 579 q 368 548 418 579 q 289 462 318 517 q 260 335 260 407 q 305 213 260 258 q 433 168 350 168 q 538 192 490 168 q 617 268 585 217 l 776 168 q 630 36 724 83 q 421 -11 536 -11 m 435 843 l 279 1043 l 433 1043 l 604 878 l 461 878 l 675 1043 l 836 1043 l 626 843 l 435 843 z "},"Ď":{"ha":1147,"x_min":40,"x_max":1121,"o":"m 40 0 l 235 972 l 642 972 q 899 923 792 972 q 1064 783 1007 874 q 1121 567 1121 692 q 1077 333 1121 438 q 953 155 1033 229 q 761 40 872 81 q 515 0 650 0 l 40 0 m 303 185 l 522 185 q 723 233 640 185 q 849 365 806 282 q 893 554 893 449 q 863 678 893 626 q 770 759 832 731 q 617 788 708 788 l 424 788 l 303 185 z "},"ď":{"ha":961,"x_min":44,"x_max":1279,"o":"m 367 -11 q 207 28 281 -11 q 89 143 133 68 q 44 324 44 218 q 76 497 44 418 q 164 635 107 576 q 296 726 221 693 q 457 758 371 758 q 608 728 544 758 q 708 634 672 697 q 743 475 743 571 q 719 284 743 372 q 646 130 694 196 q 527 26 597 64 q 367 -11 457 -11 m 433 168 q 547 199 497 168 q 624 285 596 231 q 653 414 653 340 q 608 535 653 490 q 482 579 563 579 q 369 548 419 579 q 291 462 319 517 q 263 333 263 407 q 308 213 263 257 q 433 168 353 168 m 581 0 l 611 149 l 658 371 l 688 593 l 775 1031 l 992 1031 l 786 0 l 581 0 m 1061 808 l 1117 1088 l 1279 1088 l 1194 808 l 1061 808 z "},"Đ":{"ha":1165,"x_min":10,"x_max":1139,"o":"m 58 0 l 253 972 l 660 972 q 917 923 810 972 q 1082 783 1025 874 q 1139 567 1139 692 q 1095 333 1139 438 q 971 155 1051 229 q 779 40 890 81 q 533 0 668 0 l 58 0 m 321 185 l 540 185 q 741 233 658 185 q 867 365 824 282 q 911 554 911 449 q 881 678 911 626 q 788 759 850 731 q 635 788 726 788 l 442 788 l 321 185 m 10 419 l 40 569 l 640 569 l 611 419 l 10 419 z "},"đ":{"ha":961,"x_min":44,"x_max":1075,"o":"m 367 -11 q 207 28 281 -11 q 89 143 133 68 q 44 324 44 218 q 76 497 44 418 q 164 635 107 576 q 296 726 221 693 q 457 758 371 758 q 608 728 544 758 q 708 634 672 697 q 743 475 743 571 q 719 284 743 372 q 646 130 694 196 q 527 26 597 64 q 367 -11 457 -11 m 433 168 q 547 199 497 168 q 624 285 596 231 q 653 414 653 340 q 608 535 653 490 q 482 579 563 579 q 369 548 419 579 q 291 462 319 517 q 263 333 263 407 q 308 213 263 257 q 433 168 353 168 m 581 0 l 611 149 l 658 371 l 688 593 l 775 1031 l 992 1031 l 786 0 l 581 0 m 479 824 l 504 949 l 1075 949 l 1051 824 l 479 824 z "},"Ē":{"ha":932,"x_min":40,"x_max":969,"o":"m 364 581 l 832 581 l 797 406 l 329 406 l 364 581 m 300 181 l 831 181 l 793 0 l 40 0 l 235 972 l 969 972 l 932 792 l 422 792 l 300 181 z "},"ē":{"ha":872,"x_min":42,"x_max":838,"o":"m 424 -11 q 222 31 307 -11 q 89 147 136 72 q 42 324 42 222 q 98 547 42 449 q 253 701 154 644 q 482 758 353 758 q 671 717 592 758 q 794 603 750 676 q 838 429 838 531 q 834 371 838 400 q 825 315 831 342 l 207 315 l 229 442 l 724 442 l 635 403 q 628 508 646 465 q 569 573 610 550 q 472 596 529 596 q 352 562 401 596 q 278 468 303 528 q 253 333 253 408 q 301 205 253 247 q 446 163 349 163 q 556 181 503 163 q 646 232 608 199 l 736 89 q 590 13 671 38 q 424 -11 508 -11 m 281 881 l 304 1003 l 817 1003 l 793 881 l 281 881 z "},"Ĕ":{"ha":932,"x_min":40,"x_max":969,"o":"m 364 581 l 832 581 l 797 406 l 329 406 l 364 581 m 300 181 l 831 181 l 793 0 l 40 0 l 235 972 l 969 972 l 932 792 l 422 792 l 300 181 z "},"ĕ":{"ha":872,"x_min":42,"x_max":838,"o":"m 424 -11 q 222 31 307 -11 q 89 147 136 72 q 42 324 42 222 q 98 547 42 449 q 253 701 154 644 q 482 758 353 758 q 671 717 592 758 q 794 603 750 676 q 838 429 838 531 q 834 371 838 400 q 825 315 831 342 l 207 315 l 229 442 l 724 442 l 635 403 q 628 508 646 465 q 569 573 610 550 q 472 596 529 596 q 352 562 401 596 q 278 468 303 528 q 253 333 253 408 q 301 205 253 247 q 446 163 349 163 q 556 181 503 163 q 646 232 608 199 l 736 89 q 590 13 671 38 q 424 -11 508 -11 m 542 831 q 418 856 472 831 q 335 930 364 882 q 313 1042 307 978 l 444 1042 q 474 969 443 996 q 554 943 504 943 q 640 969 606 943 q 683 1042 675 996 l 824 1042 q 729 888 806 944 q 542 831 653 831 z "},"Ė":{"ha":932,"x_min":40,"x_max":969,"o":"m 364 581 l 832 581 l 797 406 l 329 406 l 364 581 m 300 181 l 831 181 l 793 0 l 40 0 l 235 972 l 969 972 l 932 792 l 422 792 l 300 181 z "},"ė":{"ha":872,"x_min":42,"x_max":838,"o":"m 424 -11 q 222 31 307 -11 q 89 147 136 72 q 42 324 42 222 q 98 547 42 449 q 253 701 154 644 q 482 758 353 758 q 671 717 592 758 q 794 603 750 676 q 838 429 838 531 q 834 371 838 400 q 825 315 831 342 l 207 315 l 229 442 l 724 442 l 635 403 q 628 508 646 465 q 569 573 610 550 q 472 596 529 596 q 352 562 401 596 q 278 468 303 528 q 253 333 253 408 q 301 205 253 247 q 446 163 349 163 q 556 181 503 163 q 646 232 608 199 l 736 89 q 590 13 671 38 q 424 -11 508 -11 m 546 849 q 466 878 496 849 q 436 951 436 907 q 473 1047 436 1010 q 563 1083 510 1083 q 641 1054 611 1083 q 671 979 671 1025 q 635 885 671 921 q 546 849 599 849 z "},"Ę":{"ha":932,"x_min":40,"x_max":969,"o":"m 364 581 l 832 581 l 797 406 l 329 406 l 364 581 m 300 181 l 831 181 l 793 0 l 40 0 l 235 972 l 969 972 l 932 792 l 422 792 l 300 181 m 632 -322 q 507 -286 556 -322 q 458 -185 458 -250 q 490 -85 458 -131 q 580 -4 522 -40 q 714 60 638 32 l 793 0 q 683 -49 725 -24 q 621 -101 640 -75 q 601 -154 601 -126 q 620 -197 601 -182 q 668 -212 639 -212 q 715 -206 692 -212 q 757 -192 739 -200 l 772 -290 q 710 -313 744 -304 q 632 -322 675 -322 z "},"ę":{"ha":872,"x_min":42,"x_max":838,"o":"m 500 -322 q 378 -286 425 -322 q 331 -185 331 -250 q 351 -102 331 -142 q 409 -29 372 -62 q 496 28 446 4 l 526 1 q 471 -8 496 -6 q 424 -11 446 -11 q 222 31 308 -11 q 89 147 136 72 q 42 324 42 222 q 98 547 42 449 q 253 701 154 644 q 482 758 353 758 q 671 717 592 758 q 794 603 750 676 q 838 429 838 531 q 834 371 838 400 q 825 315 831 342 l 208 315 l 231 442 l 724 442 l 635 403 q 628 508 646 465 q 569 573 610 550 q 472 596 529 596 q 352 562 401 596 q 278 468 303 528 q 253 333 253 408 q 301 205 253 247 q 447 163 349 163 q 556 180 504 163 q 646 232 608 197 l 736 89 q 699 63 719 75 q 664 42 679 51 q 518 -58 567 -10 q 469 -153 469 -106 q 488 -197 469 -181 q 536 -212 506 -212 q 581 -206 558 -212 q 621 -192 604 -200 l 636 -290 q 576 -313 610 -304 q 500 -322 542 -322 z "},"Ě":{"ha":932,"x_min":40,"x_max":969,"o":"m 364 581 l 832 581 l 797 406 l 329 406 l 364 581 m 300 181 l 831 181 l 793 0 l 40 0 l 235 972 l 969 972 l 932 792 l 422 792 l 300 181 z "},"ě":{"ha":872,"x_min":42,"x_max":839,"o":"m 424 -11 q 222 31 307 -11 q 89 147 136 72 q 42 324 42 222 q 98 547 42 449 q 253 701 154 644 q 482 758 353 758 q 671 717 592 758 q 794 603 750 676 q 838 429 838 531 q 834 371 838 400 q 825 315 831 342 l 207 315 l 229 442 l 724 442 l 635 403 q 628 508 646 465 q 569 573 610 550 q 472 596 529 596 q 352 562 401 596 q 278 468 303 528 q 253 333 253 408 q 301 205 253 247 q 446 163 349 163 q 556 181 503 163 q 646 232 608 199 l 736 89 q 590 13 671 38 q 424 -11 508 -11 m 438 842 l 282 1042 l 436 1042 l 607 876 l 464 876 l 678 1042 l 839 1042 l 629 842 l 438 842 z "},"Ĝ":{"ha":1071,"x_min":71,"x_max":1088,"o":"m 551 -17 q 297 37 404 -17 q 130 185 189 90 q 71 406 71 281 q 115 636 71 529 q 239 822 158 743 q 432 944 319 900 q 682 989 544 989 q 923 945 821 989 q 1088 819 1025 901 l 926 689 q 816 772 878 747 q 672 797 754 797 q 517 769 586 797 q 400 689 449 740 q 325 569 351 638 q 299 419 299 500 q 331 291 299 346 q 426 206 363 236 q 581 175 489 175 q 714 199 650 175 q 838 272 778 222 l 924 101 q 753 14 850 44 q 551 -17 657 -17 m 726 136 l 799 501 l 1004 501 l 924 101 l 726 136 z "},"ĝ":{"ha":972,"x_min":-11,"x_max":946,"o":"m 344 -281 q 145 -256 236 -281 q -11 -182 54 -231 l 92 -25 q 206 -83 136 -61 q 354 -106 276 -106 q 523 -57 467 -106 q 599 88 579 -8 l 625 222 l 675 397 l 708 586 l 739 747 l 946 747 l 822 125 q 659 -185 779 -90 q 344 -281 539 -281 m 376 36 q 210 74 285 36 q 90 181 135 111 q 46 350 46 251 q 77 510 46 436 q 165 640 108 583 q 297 727 221 696 q 463 758 372 758 q 611 728 544 758 q 715 629 678 697 q 742 447 751 561 q 688 231 733 324 q 563 88 642 139 q 376 36 485 36 m 435 214 q 547 242 499 214 q 624 319 596 269 q 651 432 651 368 q 607 540 651 500 q 483 579 563 579 q 370 551 419 579 q 292 474 321 524 q 264 361 264 425 q 310 253 264 293 q 435 214 356 214 m 289 843 l 500 1043 l 690 1043 l 847 843 l 693 843 l 522 1010 l 665 1010 l 451 843 l 289 843 z "},"Ğ":{"ha":1071,"x_min":71,"x_max":1088,"o":"m 551 -17 q 297 37 404 -17 q 130 185 189 90 q 71 406 71 281 q 115 636 71 529 q 239 822 158 743 q 432 944 319 900 q 682 989 544 989 q 923 945 821 989 q 1088 819 1025 901 l 926 689 q 816 772 878 747 q 672 797 754 797 q 517 769 586 797 q 400 689 449 740 q 325 569 351 638 q 299 419 299 500 q 331 291 299 346 q 426 206 363 236 q 581 175 489 175 q 714 199 650 175 q 838 272 778 222 l 924 101 q 753 14 850 44 q 551 -17 657 -17 m 726 136 l 799 501 l 1004 501 l 924 101 l 726 136 z "},"ğ":{"ha":972,"x_min":-11,"x_max":946,"o":"m 344 -281 q 145 -256 236 -281 q -11 -182 54 -231 l 92 -25 q 206 -83 136 -61 q 354 -106 276 -106 q 523 -57 467 -106 q 599 88 579 -8 l 625 222 l 675 397 l 708 586 l 739 747 l 946 747 l 822 125 q 659 -185 779 -90 q 344 -281 539 -281 m 376 36 q 210 74 285 36 q 90 181 135 111 q 46 350 46 251 q 77 510 46 436 q 165 640 108 583 q 297 727 221 696 q 463 758 372 758 q 611 728 544 758 q 715 629 678 697 q 742 447 751 561 q 688 231 733 324 q 563 88 642 139 q 376 36 485 36 m 435 214 q 547 242 499 214 q 624 319 596 269 q 651 432 651 368 q 607 540 651 500 q 483 579 563 579 q 370 551 419 579 q 292 474 321 524 q 264 361 264 425 q 310 253 264 293 q 435 214 356 214 m 581 832 q 457 858 511 832 q 374 931 403 883 q 351 1043 346 979 l 483 1043 q 513 971 482 997 q 593 944 543 944 q 679 971 644 944 q 722 1043 714 997 l 863 1043 q 768 889 844 946 q 581 832 692 832 z "},"Ġ":{"ha":1071,"x_min":71,"x_max":1088,"o":"m 551 -17 q 297 37 404 -17 q 130 185 189 90 q 71 406 71 281 q 115 636 71 529 q 239 822 158 743 q 432 944 319 900 q 682 989 544 989 q 923 945 821 989 q 1088 819 1025 901 l 926 689 q 816 772 878 747 q 672 797 754 797 q 517 769 586 797 q 400 689 449 740 q 325 569 351 638 q 299 419 299 500 q 331 291 299 346 q 426 206 363 236 q 581 175 489 175 q 714 199 650 175 q 838 272 778 222 l 924 101 q 753 14 850 44 q 551 -17 657 -17 m 726 136 l 799 501 l 1004 501 l 924 101 l 726 136 z "},"ġ":{"ha":972,"x_min":-11,"x_max":946,"o":"m 344 -281 q 145 -256 236 -281 q -11 -182 54 -231 l 92 -25 q 206 -83 136 -61 q 354 -106 276 -106 q 523 -57 467 -106 q 599 88 579 -8 l 625 222 l 675 397 l 708 586 l 739 747 l 946 747 l 822 125 q 659 -185 779 -90 q 344 -281 539 -281 m 376 36 q 210 74 285 36 q 90 181 135 111 q 46 350 46 251 q 77 510 46 436 q 165 640 108 583 q 297 727 221 696 q 463 758 372 758 q 611 728 544 758 q 715 629 678 697 q 742 447 751 561 q 688 231 733 324 q 563 88 642 139 q 376 36 485 36 m 435 214 q 547 242 499 214 q 624 319 596 269 q 651 432 651 368 q 607 540 651 500 q 483 579 563 579 q 370 551 419 579 q 292 474 321 524 q 264 361 264 425 q 310 253 264 293 q 435 214 356 214 m 585 850 q 505 879 535 850 q 475 953 475 908 q 512 1048 475 1011 q 601 1085 549 1085 q 680 1056 650 1085 q 710 981 710 1026 q 674 886 710 922 q 585 850 638 850 z "},"Ģ":{"ha":1071,"x_min":71,"x_max":1088,"o":"m 551 -17 q 297 37 404 -17 q 130 185 189 90 q 71 406 71 281 q 115 636 71 529 q 239 822 158 743 q 432 944 319 900 q 682 989 544 989 q 923 945 821 989 q 1088 819 1025 901 l 926 689 q 816 772 878 747 q 672 797 754 797 q 517 769 586 797 q 400 689 449 740 q 325 569 351 638 q 299 419 299 500 q 331 291 299 346 q 426 206 363 236 q 581 175 489 175 q 714 199 650 175 q 838 272 778 222 l 924 101 q 753 14 850 44 q 551 -17 657 -17 m 726 136 l 799 501 l 1004 501 l 924 101 l 726 136 m 342 -369 l 431 -192 l 444 -265 q 379 -246 401 -265 q 357 -196 357 -226 q 383 -128 357 -156 q 458 -101 408 -101 q 528 -123 506 -101 q 551 -175 551 -144 q 542 -218 551 -197 q 508 -274 533 -239 l 440 -369 l 342 -369 z "},"ģ":{"ha":972,"x_min":-11,"x_max":946,"o":"m 344 -281 q 145 -256 236 -281 q -11 -182 54 -231 l 92 -25 q 206 -83 136 -61 q 354 -106 276 -106 q 523 -57 467 -106 q 599 88 579 -8 l 625 222 l 675 397 l 708 586 l 739 747 l 946 747 l 822 125 q 659 -185 779 -90 q 344 -281 539 -281 m 376 36 q 210 74 285 36 q 90 181 135 111 q 46 350 46 251 q 77 510 46 436 q 165 640 108 583 q 297 727 221 696 q 463 758 372 758 q 611 728 544 758 q 715 629 678 697 q 742 447 751 561 q 688 231 733 324 q 563 88 642 139 q 376 36 485 36 m 435 214 q 547 242 499 214 q 624 319 596 269 q 651 432 651 368 q 607 540 651 500 q 483 579 563 579 q 370 551 419 579 q 292 474 321 524 q 264 361 264 425 q 310 253 264 293 q 435 214 356 214 m 575 832 q 497 853 524 832 q 471 907 471 875 q 481 949 471 929 q 518 1004 490 968 l 607 1129 l 724 1129 l 611 922 l 593 996 q 667 978 642 996 q 693 926 693 960 q 664 860 693 888 q 575 832 635 832 z "},"Ĥ":{"ha":1122,"x_min":40,"x_max":1126,"o":"m 901 972 l 1126 972 l 932 0 l 707 0 l 901 972 m 267 0 l 40 0 l 235 972 l 461 972 l 267 0 m 804 399 l 331 399 l 368 589 l 842 589 l 804 399 z "},"ĥ":{"ha":960,"x_min":26,"x_max":894,"o":"m 610 758 q 771 719 704 758 q 866 603 838 679 q 872 414 894 526 l 789 0 l 572 0 l 653 400 q 640 526 669 482 q 531 571 610 571 q 394 524 449 571 q 318 379 339 476 l 243 0 l 26 0 l 232 1031 l 449 1031 l 350 536 l 307 600 q 441 720 361 682 q 610 758 521 758 z "},"Ħ":{"ha":1160,"x_min":58,"x_max":1254,"o":"m 919 972 l 1144 972 l 950 0 l 725 0 l 919 972 m 285 0 l 58 0 l 253 972 l 479 972 l 285 0 m 822 399 l 349 399 l 386 589 l 860 589 l 822 399 m 68 708 l 96 858 l 1254 858 l 1225 708 l 68 708 z "},"ħ":{"ha":960,"x_min":26,"x_max":894,"o":"m 610 758 q 771 719 704 758 q 866 603 838 679 q 872 414 894 526 l 789 0 l 572 0 l 653 400 q 640 526 669 482 q 531 571 610 571 q 394 524 449 571 q 318 379 339 476 l 243 0 l 26 0 l 232 1031 l 449 1031 l 350 536 l 307 600 q 441 720 361 682 q 610 758 521 758 m 89 824 l 114 949 l 685 949 l 661 824 l 89 824 z "},"Ĩ":{"ha":456,"x_min":40,"x_max":664,"o":"m 40 0 l 235 972 l 461 972 l 267 0 l 40 0 z "},"ĩ":{"ha":417,"x_min":26,"x_max":565,"o":"m 26 0 l 175 747 l 390 747 l 242 0 l 26 0 m 404 839 q 347 852 371 839 q 306 884 324 865 q 274 916 289 903 q 242 929 258 929 q 208 908 222 929 q 188 849 193 888 l 79 849 q 133 1000 90 949 q 243 1051 175 1051 q 299 1038 276 1051 q 340 1006 322 1024 q 372 974 357 988 q 403 961 388 961 q 440 981 425 961 q 458 1038 454 1001 l 565 1038 q 513 890 554 942 q 404 839 471 839 z "},"Ī":{"ha":456,"x_min":40,"x_max":604,"o":"m 40 0 l 235 972 l 461 972 l 267 0 l 40 0 z "},"ī":{"ha":417,"x_min":26,"x_max":543,"o":"m 26 0 l 175 747 l 390 747 l 242 0 l 26 0 m 103 882 l 126 1004 l 543 1004 l 519 882 l 103 882 z "},"Ĭ":{"ha":456,"x_min":40,"x_max":658,"o":"m 40 0 l 235 972 l 461 972 l 267 0 l 40 0 z "},"ĭ":{"ha":417,"x_min":26,"x_max":563,"o":"m 26 0 l 175 747 l 390 747 l 242 0 l 26 0 m 321 832 q 208 858 256 832 q 137 931 160 883 q 121 1043 114 979 l 247 1043 q 263 970 242 997 q 328 943 285 943 q 431 1043 417 943 l 563 1043 q 485 888 549 944 q 321 832 422 832 z "},"Į":{"ha":456,"x_min":3,"x_max":461,"o":"m 40 0 l 235 972 l 461 972 l 267 0 l 40 0 m 153 -322 q 41 -284 79 -322 q 3 -189 3 -246 q 61 -46 3 -108 q 208 58 119 17 l 265 0 q 176 -84 206 -42 q 146 -165 146 -126 q 158 -199 146 -186 q 192 -212 171 -212 q 215 -209 203 -212 q 240 -199 228 -206 l 253 -296 q 208 -315 235 -308 q 153 -322 182 -322 z "},"į":{"ha":417,"x_min":-21,"x_max":464,"o":"m 26 0 l 175 747 l 390 747 l 242 0 l 26 0 m 319 851 q 228 884 263 851 q 193 964 193 917 q 233 1056 193 1019 q 336 1093 272 1093 q 428 1062 393 1093 q 464 985 464 1031 q 424 888 464 925 q 319 851 385 851 m 129 -322 q 17 -284 56 -322 q -21 -189 -21 -246 q 38 -46 -21 -108 q 185 58 96 17 l 242 0 q 152 -84 182 -42 q 122 -165 122 -126 q 135 -199 122 -186 q 168 -212 147 -212 q 192 -209 179 -212 q 217 -199 204 -206 l 229 -296 q 185 -315 211 -308 q 129 -322 158 -322 z "},"İ":{"ha":456,"x_min":40,"x_max":506,"o":"m 40 0 l 235 972 l 461 972 l 267 0 l 40 0 z "},"ı":{"ha":417,"x_min":26,"x_max":390,"o":"m 26 0 l 175 747 l 390 747 l 242 0 l 26 0 z "},"Ĳ":{"ha":1006,"x_min":31,"x_max":1018,"o":"m 411 -17 q 193 13 288 -17 q 31 92 99 43 l 142 263 q 276 195 204 218 q 424 172 347 172 q 595 232 533 172 q 683 426 657 292 l 792 972 l 1018 972 l 907 417 q 739 90 863 196 q 411 -17 615 -17 m 121 447 l 226 972 l 453 972 l 347 447 l 121 447 z "},"ĳ":{"ha":843,"x_min":26,"x_max":889,"o":"m 26 0 l 175 747 l 390 747 l 242 0 l 26 0 m 319 851 q 228 884 263 851 q 193 964 193 917 q 233 1056 193 1019 q 336 1093 272 1093 q 428 1062 393 1093 q 464 985 464 1031 q 424 888 464 925 q 319 851 385 851 m 346 -281 q 248 -270 293 -281 q 167 -239 203 -260 l 253 -82 q 343 -108 290 -108 q 413 -82 388 -108 q 450 1 439 -56 l 600 747 l 817 747 l 668 7 q 346 -281 611 -281 m 744 851 q 653 884 688 851 q 618 964 618 917 q 658 1056 618 1019 q 761 1093 697 1093 q 853 1062 818 1093 q 889 985 889 1031 q 849 888 889 925 q 744 851 810 851 z "},"Ĵ":{"ha":751,"x_min":-68,"x_max":778,"o":"m 249 -17 q 57 21 138 -17 q -68 129 -24 58 l 81 271 q 153 195 110 222 q 251 168 196 168 q 356 204 315 168 q 413 319 397 240 l 506 792 l 164 792 l 201 972 l 765 972 l 636 331 q 560 127 611 203 q 432 17 510 51 q 249 -17 354 -17 z "},"ĵ":{"ha":425,"x_min":-250,"x_max":556,"o":"m -71 -281 q -169 -270 -124 -281 q -250 -239 -214 -260 l -164 -82 q -74 -108 -126 -108 q -3 -82 -29 -108 q 33 1 22 -56 l 183 747 l 400 747 l 251 7 q -71 -281 194 -281 m 67 843 l 246 1043 l 432 1043 l 556 843 l 406 843 l 272 1010 l 403 1010 l 225 843 l 67 843 z "},"Ķ":{"ha":1028,"x_min":40,"x_max":1146,"o":"m 290 222 l 321 483 l 874 972 l 1146 972 l 633 521 l 485 394 l 290 222 m 40 0 l 235 972 l 458 972 l 264 0 l 40 0 m 719 0 l 442 424 l 601 575 l 972 0 l 719 0 m 303 -369 l 392 -192 l 406 -265 q 340 -246 363 -265 q 318 -196 318 -226 q 344 -128 318 -156 q 419 -101 369 -101 q 490 -123 467 -101 q 513 -175 513 -144 q 503 -218 513 -197 q 469 -274 494 -239 l 401 -369 l 303 -369 z "},"ķ":{"ha":896,"x_min":26,"x_max":974,"o":"m 243 150 l 290 418 l 692 747 l 974 747 l 556 399 l 435 310 l 243 150 m 26 0 l 232 1031 l 449 1031 l 243 0 l 26 0 m 589 0 l 397 314 l 549 479 l 840 0 l 589 0 m 218 -369 l 307 -192 l 321 -265 q 256 -246 278 -265 q 233 -196 233 -226 q 259 -128 233 -156 q 335 -101 285 -101 q 405 -123 382 -101 q 428 -175 428 -144 q 419 -218 428 -197 q 385 -274 410 -239 l 317 -369 l 218 -369 z "},"ĸ":{"ha":896,"x_min":26,"x_max":974,"o":"m 243 150 l 290 418 l 692 747 l 974 747 l 556 399 l 435 310 l 243 150 m 26 0 l 175 747 l 392 747 l 243 0 l 26 0 m 589 0 l 397 314 l 549 479 l 840 0 l 589 0 z "},"Ĺ":{"ha":839,"x_min":40,"x_max":790,"o":"m 40 0 l 235 972 l 461 972 l 303 183 l 790 183 l 753 0 l 40 0 z "},"ĺ":{"ha":418,"x_min":26,"x_max":674,"o":"m 26 0 l 232 1031 l 449 1031 l 243 0 l 26 0 z "},"Ļ":{"ha":839,"x_min":40,"x_max":790,"o":"m 40 0 l 235 972 l 461 972 l 303 183 l 790 183 l 753 0 l 40 0 m 264 -369 l 353 -192 l 367 -265 q 301 -246 324 -265 q 279 -196 279 -226 q 305 -128 279 -156 q 381 -101 331 -101 q 451 -123 428 -101 q 474 -175 474 -144 q 465 -218 474 -197 q 431 -274 456 -239 l 363 -369 l 264 -369 z "},"ļ":{"ha":418,"x_min":-15,"x_max":449,"o":"m 26 0 l 232 1031 l 449 1031 l 243 0 l 26 0 m -15 -369 l 74 -192 l 88 -265 q 22 -246 44 -265 q 0 -196 0 -226 q 26 -128 0 -156 q 101 -101 51 -101 q 172 -123 149 -101 q 194 -175 194 -144 q 185 -218 194 -197 q 151 -274 176 -239 l 83 -369 l -15 -369 z "},"Ľ":{"ha":839,"x_min":40,"x_max":893,"o":"m 40 0 l 235 972 l 461 972 l 303 183 l 790 183 l 753 0 l 40 0 m 675 750 l 731 1029 l 893 1029 l 808 750 l 675 750 z "},"ľ":{"ha":418,"x_min":26,"x_max":733,"o":"m 26 0 l 232 1031 l 449 1031 l 243 0 l 26 0 m 515 808 l 571 1088 l 733 1088 l 649 808 l 515 808 z "},"Ŀ":{"ha":839,"x_min":40,"x_max":808,"o":"m 40 0 l 235 972 l 461 972 l 303 183 l 790 183 l 753 0 l 40 0 m 683 457 q 603 489 635 457 q 571 568 571 521 q 608 663 571 626 q 697 699 646 699 q 777 667 746 699 q 808 586 808 636 q 771 493 808 529 q 683 457 733 457 z "},"ŀ":{"ha":583,"x_min":26,"x_max":635,"o":"m 26 0 l 232 1031 l 449 1031 l 243 0 l 26 0 m 521 396 q 449 424 478 396 q 419 497 419 453 q 451 581 419 549 q 532 614 483 614 q 606 586 576 614 q 635 514 635 558 q 602 430 635 464 q 521 396 569 396 z "},"Ł":{"ha":858,"x_min":-17,"x_max":808,"o":"m 58 0 l 253 972 l 479 972 l 321 183 l 808 183 l 771 0 l 58 0 m 57 311 l -17 422 l 583 815 l 656 703 l 57 311 z "},"ł":{"ha":454,"x_min":-40,"x_max":546,"o":"m 44 0 l 250 1031 l 467 1031 l 261 0 l 44 0 m 28 279 l -40 390 l 478 729 l 546 618 l 28 279 z "},"Ń":{"ha":1122,"x_min":40,"x_max":1126,"o":"m 40 0 l 235 972 l 421 972 l 839 268 l 765 272 l 904 972 l 1126 972 l 932 0 l 747 0 l 328 704 l 403 700 l 263 0 l 40 0 z "},"ń":{"ha":960,"x_min":26,"x_max":896,"o":"m 610 758 q 772 719 706 758 q 867 603 839 679 q 872 414 894 526 l 789 0 l 572 0 l 653 400 q 640 526 669 482 q 531 571 610 571 q 394 524 449 571 q 318 379 339 476 l 243 0 l 26 0 l 175 747 l 381 747 l 338 536 l 307 600 q 441 720 361 682 q 610 758 521 758 m 449 843 l 657 1043 l 896 1043 l 624 843 l 449 843 z "},"Ņ":{"ha":1122,"x_min":40,"x_max":1126,"o":"m 40 0 l 235 972 l 421 972 l 839 268 l 765 272 l 904 972 l 1126 972 l 932 0 l 747 0 l 328 704 l 403 700 l 263 0 l 40 0 m 338 -369 l 426 -192 l 440 -265 q 375 -246 397 -265 q 353 -196 353 -226 q 378 -128 353 -156 q 454 -101 404 -101 q 524 -123 501 -101 q 547 -175 547 -144 q 538 -218 547 -197 q 504 -274 529 -239 l 436 -369 l 338 -369 z "},"ņ":{"ha":960,"x_min":26,"x_max":894,"o":"m 610 758 q 772 719 706 758 q 867 603 839 679 q 872 414 894 526 l 789 0 l 572 0 l 653 400 q 640 526 669 482 q 531 571 610 571 q 394 524 449 571 q 318 379 339 476 l 243 0 l 26 0 l 175 747 l 381 747 l 338 536 l 307 600 q 441 720 361 682 q 610 758 521 758 m 260 -369 l 349 -192 l 363 -265 q 297 -246 319 -265 q 275 -196 275 -226 q 301 -128 275 -156 q 376 -101 326 -101 q 447 -123 424 -101 q 469 -175 469 -144 q 460 -218 469 -197 q 426 -274 451 -239 l 358 -369 l 260 -369 z "},"Ň":{"ha":1122,"x_min":40,"x_max":1126,"o":"m 40 0 l 235 972 l 421 972 l 839 268 l 765 272 l 904 972 l 1126 972 l 932 0 l 747 0 l 328 704 l 403 700 l 263 0 l 40 0 z "},"ň":{"ha":960,"x_min":26,"x_max":894,"o":"m 610 758 q 772 719 706 758 q 867 603 839 679 q 872 414 894 526 l 789 0 l 572 0 l 653 400 q 640 526 669 482 q 531 571 610 571 q 394 524 449 571 q 318 379 339 476 l 243 0 l 26 0 l 175 747 l 381 747 l 338 536 l 307 600 q 441 720 361 682 q 610 758 521 758 m 486 843 l 331 1043 l 485 1043 l 656 878 l 513 878 l 726 1043 l 888 1043 l 678 843 l 486 843 z "},"ŉ":{"ha":1107,"x_min":4,"x_max":1043,"o":"m 758 758 q 921 719 854 758 q 1015 603 988 679 q 1021 414 1043 526 l 938 0 l 721 0 l 801 400 q 788 526 818 482 q 679 571 758 571 q 542 524 597 571 q 467 379 488 476 l 392 0 l 175 0 l 324 747 l 529 747 l 486 536 l 456 600 q 590 720 510 682 q 758 758 669 758 z "},"Ŋ":{"ha":1122,"x_min":40,"x_max":1126,"o":"m 40 0 l 235 972 l 421 972 l 839 268 l 747 0 l 328 704 l 403 700 l 263 0 l 40 0 m 558 -281 q 414 -255 485 -281 q 300 -183 343 -229 l 421 -33 q 483 -79 447 -62 q 564 -96 519 -96 q 667 -62 628 -96 q 722 57 706 -28 l 904 972 l 1126 972 l 951 93 q 869 -134 922 -53 q 738 -248 815 -215 q 558 -281 661 -281 z "},"ŋ":{"ha":960,"x_min":26,"x_max":894,"o":"m 468 -281 q 370 -270 415 -281 q 289 -239 325 -260 l 375 -82 q 465 -108 413 -108 q 535 -82 510 -108 q 572 1 560 -56 l 653 400 q 640 526 669 482 q 531 571 610 571 q 394 524 449 571 q 318 379 339 476 l 243 0 l 26 0 l 175 747 l 381 747 l 338 536 l 307 600 q 441 720 361 682 q 610 758 521 758 q 772 719 706 758 q 867 603 839 679 q 872 414 894 526 l 790 7 q 468 -281 733 -281 z "},"Ō":{"ha":1172,"x_min":71,"x_max":1146,"o":"m 544 -17 q 291 37 397 -17 q 128 185 185 90 q 71 406 71 281 q 114 637 71 531 q 237 822 157 743 q 427 944 317 900 q 672 989 538 989 q 926 935 819 989 q 1089 787 1032 882 q 1146 567 1146 692 q 1103 335 1146 442 q 980 151 1060 229 q 790 28 900 72 q 544 -17 679 -17 m 564 175 q 712 205 646 175 q 824 288 778 235 q 894 409 869 340 q 918 554 918 478 q 888 681 918 626 q 798 767 857 736 q 653 797 739 797 q 506 767 571 797 q 394 685 440 738 q 323 563 347 632 q 299 418 299 494 q 330 291 299 346 q 420 206 361 236 q 564 175 479 175 z "},"ō":{"ha":908,"x_min":40,"x_max":868,"o":"m 417 -11 q 218 31 303 -11 q 87 147 133 72 q 40 324 40 222 q 99 547 40 449 q 259 701 157 644 q 492 758 361 758 q 691 717 607 758 q 822 601 775 675 q 868 424 868 526 q 810 201 868 300 q 650 46 751 103 q 417 -11 549 -11 m 431 167 q 544 198 494 167 q 621 285 593 229 q 649 414 649 340 q 604 535 649 489 q 479 581 560 581 q 366 549 415 581 q 288 463 317 518 q 260 333 260 407 q 304 212 260 257 q 431 167 349 167 m 296 882 l 319 1004 l 832 1004 l 808 882 l 296 882 z "},"Ŏ":{"ha":1172,"x_min":71,"x_max":1146,"o":"m 544 -17 q 291 37 397 -17 q 128 185 185 90 q 71 406 71 281 q 114 637 71 531 q 237 822 157 743 q 427 944 317 900 q 672 989 538 989 q 926 935 819 989 q 1089 787 1032 882 q 1146 567 1146 692 q 1103 335 1146 442 q 980 151 1060 229 q 790 28 900 72 q 544 -17 679 -17 m 564 175 q 712 205 646 175 q 824 288 778 235 q 894 409 869 340 q 918 554 918 478 q 888 681 918 626 q 798 767 857 736 q 653 797 739 797 q 506 767 571 797 q 394 685 440 738 q 323 563 347 632 q 299 418 299 494 q 330 291 299 346 q 420 206 361 236 q 564 175 479 175 z "},"ŏ":{"ha":908,"x_min":40,"x_max":868,"o":"m 417 -11 q 218 31 303 -11 q 87 147 133 72 q 40 324 40 222 q 99 547 40 449 q 259 701 157 644 q 492 758 361 758 q 691 717 607 758 q 822 601 775 675 q 868 424 868 526 q 810 201 868 300 q 650 46 751 103 q 417 -11 549 -11 m 431 167 q 544 198 494 167 q 621 285 593 229 q 649 414 649 340 q 604 535 649 489 q 479 581 560 581 q 366 549 415 581 q 288 463 317 518 q 260 333 260 407 q 304 212 260 257 q 431 167 349 167 m 557 832 q 433 858 488 832 q 351 931 379 883 q 328 1043 322 979 l 460 1043 q 489 971 458 997 q 569 944 519 944 q 656 971 621 944 q 699 1043 690 997 l 839 1043 q 744 889 821 946 q 557 832 668 832 z "},"Ő":{"ha":1172,"x_min":71,"x_max":1146,"o":"m 544 -17 q 291 37 397 -17 q 128 185 185 90 q 71 406 71 281 q 114 637 71 531 q 237 822 157 743 q 427 944 317 900 q 672 989 538 989 q 926 935 819 989 q 1089 787 1032 882 q 1146 567 1146 692 q 1103 335 1146 442 q 980 151 1060 229 q 790 28 900 72 q 544 -17 679 -17 m 564 175 q 712 205 646 175 q 824 288 778 235 q 894 409 869 340 q 918 554 918 478 q 888 681 918 626 q 798 767 857 736 q 653 797 739 797 q 506 767 571 797 q 394 685 440 738 q 323 563 347 632 q 299 418 299 494 q 330 291 299 346 q 420 206 361 236 q 564 175 479 175 z "},"ő":{"ha":908,"x_min":40,"x_max":933,"o":"m 417 -11 q 218 31 303 -11 q 87 147 133 72 q 40 324 40 222 q 99 547 40 449 q 259 701 157 644 q 492 758 361 758 q 691 717 607 758 q 822 601 775 675 q 868 424 868 526 q 810 201 868 300 q 650 46 751 103 q 417 -11 549 -11 m 431 167 q 544 198 494 167 q 621 285 593 229 q 649 414 649 340 q 604 535 649 489 q 479 581 560 581 q 366 549 415 581 q 288 463 317 518 q 260 333 260 407 q 304 212 260 257 q 431 167 349 167 m 604 843 l 725 1043 l 933 1043 l 765 843 l 604 843 m 322 843 l 444 1043 l 653 1043 l 486 843 l 322 843 z "},"Œ":{"ha":1578,"x_min":71,"x_max":1615,"o":"m 550 0 q 294 49 401 0 q 128 190 186 99 q 71 406 71 282 q 115 639 71 535 q 239 817 158 743 q 431 932 319 892 q 676 972 542 972 l 939 972 l 903 788 l 669 788 q 470 739 554 788 q 342 607 386 690 q 299 418 299 524 q 330 294 299 346 q 422 213 361 242 q 575 185 483 185 l 779 185 l 744 0 l 550 0 m 686 0 l 881 972 l 1615 972 l 1579 792 l 1068 792 l 946 181 l 1476 181 l 1439 0 l 686 0 m 975 406 l 1010 581 l 1478 581 l 1443 406 l 975 406 z "},"œ":{"ha":1472,"x_min":42,"x_max":1438,"o":"m 404 -11 q 214 31 296 -11 q 87 147 132 72 q 42 324 42 222 q 97 547 42 449 q 251 701 153 644 q 476 758 350 758 q 667 717 586 758 q 792 601 747 675 q 836 424 836 526 q 781 201 836 300 q 628 46 725 103 q 404 -11 531 -11 m 431 168 q 544 199 494 168 q 622 285 593 231 q 650 414 650 340 q 605 535 650 490 q 479 579 560 579 q 367 548 417 579 q 288 462 317 517 q 260 333 260 407 q 305 213 260 257 q 431 168 350 168 m 1024 -11 q 833 31 915 -11 q 704 147 750 72 q 658 324 658 222 q 714 547 658 449 q 865 701 769 644 q 1082 758 961 758 q 1271 717 1192 758 q 1394 603 1350 676 q 1438 429 1438 531 q 1434 371 1438 400 q 1425 315 1431 342 l 807 315 l 831 442 l 1324 442 l 1235 403 q 1228 508 1246 465 q 1169 573 1210 550 q 1072 596 1129 596 q 953 562 1001 596 q 878 468 904 528 q 853 333 853 408 q 901 205 853 247 q 1046 163 949 163 q 1156 181 1103 163 q 1246 232 1208 199 l 1336 89 q 1190 13 1272 38 q 1024 -11 1108 -11 z "},"Ŕ":{"ha":1021,"x_min":40,"x_max":1011,"o":"m 40 0 l 235 972 l 631 972 q 912 893 813 972 q 1011 671 1011 814 q 953 459 1011 549 q 790 321 896 369 q 539 272 683 272 l 222 272 l 340 371 l 267 0 l 40 0 m 665 0 l 467 353 l 703 353 l 903 0 l 665 0 m 335 344 l 257 451 l 547 451 q 722 502 660 451 q 783 650 783 553 q 735 755 783 721 q 601 789 688 789 l 328 789 l 446 899 l 335 344 z "},"ŕ":{"ha":599,"x_min":26,"x_max":744,"o":"m 26 0 l 175 747 l 381 747 l 338 535 l 318 596 q 449 722 368 686 q 642 758 529 758 l 603 558 q 577 560 589 560 q 553 561 565 561 q 397 514 457 561 q 315 361 336 467 l 243 0 l 26 0 m 297 843 l 506 1043 l 744 1043 l 472 843 l 297 843 z "},"Ŗ":{"ha":1021,"x_min":40,"x_max":1011,"o":"m 40 0 l 235 972 l 631 972 q 912 893 813 972 q 1011 671 1011 814 q 953 459 1011 549 q 790 321 896 369 q 539 272 683 272 l 222 272 l 340 371 l 267 0 l 40 0 m 665 0 l 467 353 l 703 353 l 903 0 l 665 0 m 335 344 l 257 451 l 547 451 q 722 502 660 451 q 783 650 783 553 q 735 755 783 721 q 601 789 688 789 l 328 789 l 446 899 l 335 344 m 296 -369 l 385 -192 l 399 -265 q 333 -246 356 -265 q 311 -196 311 -226 q 337 -128 311 -156 q 413 -101 363 -101 q 483 -123 460 -101 q 506 -175 506 -144 q 497 -218 506 -197 q 463 -274 488 -239 l 394 -369 l 296 -369 z "},"ŗ":{"ha":599,"x_min":-15,"x_max":642,"o":"m 26 0 l 175 747 l 381 747 l 338 535 l 318 596 q 449 722 368 686 q 642 758 529 758 l 603 558 q 577 560 589 560 q 553 561 565 561 q 397 514 457 561 q 315 361 336 467 l 243 0 l 26 0 m -15 -369 l 74 -192 l 88 -265 q 22 -246 44 -265 q 0 -196 0 -226 q 26 -128 0 -156 q 101 -101 51 -101 q 172 -123 149 -101 q 194 -175 194 -144 q 185 -218 194 -197 q 151 -274 176 -239 l 83 -369 l -15 -369 z "},"Ř":{"ha":1021,"x_min":40,"x_max":1011,"o":"m 40 0 l 235 972 l 631 972 q 912 893 813 972 q 1011 671 1011 814 q 953 459 1011 549 q 790 321 896 369 q 539 272 683 272 l 222 272 l 340 371 l 267 0 l 40 0 m 665 0 l 467 353 l 703 353 l 903 0 l 665 0 m 335 344 l 257 451 l 547 451 q 722 502 660 451 q 783 650 783 553 q 735 755 783 721 q 601 789 688 789 l 328 789 l 446 899 l 335 344 z "},"ř":{"ha":599,"x_min":26,"x_max":736,"o":"m 26 0 l 175 747 l 381 747 l 338 535 l 318 596 q 449 722 368 686 q 642 758 529 758 l 603 558 q 577 560 589 560 q 553 561 565 561 q 397 514 457 561 q 315 361 336 467 l 243 0 l 26 0 m 335 843 l 179 1043 l 333 1043 l 504 878 l 361 878 l 575 1043 l 736 1043 l 526 843 l 335 843 z "},"Ś":{"ha":886,"x_min":-11,"x_max":904,"o":"m 379 -17 q 226 -2 300 -17 q 91 38 151 13 q -11 92 31 63 l 81 265 q 178 210 126 233 q 288 176 231 188 q 401 164 344 164 q 509 178 464 164 q 578 217 554 192 q 603 278 603 242 q 576 332 603 311 q 508 367 550 353 q 414 396 465 382 q 310 428 363 410 q 216 476 258 447 q 147 549 174 504 q 121 660 121 593 q 176 833 121 760 q 331 948 231 907 q 565 989 431 989 q 751 967 664 989 q 901 906 839 946 l 817 733 q 693 790 761 771 q 553 808 625 808 q 441 793 488 808 q 370 751 394 778 q 346 689 346 724 q 372 633 346 654 q 440 597 397 611 q 535 568 483 582 q 638 536 586 554 q 732 490 689 518 q 801 420 775 463 q 828 314 828 378 q 772 140 828 214 q 616 24 717 65 q 379 -17 515 -17 z "},"ś":{"ha":738,"x_min":-21,"x_max":775,"o":"m 299 -11 q 113 11 200 -11 q -21 67 26 33 l 63 224 q 181 172 111 192 q 322 153 251 153 q 433 172 399 153 q 468 225 468 192 q 439 265 468 251 q 365 286 410 278 q 270 306 321 294 q 174 337 219 317 q 101 395 129 357 q 72 496 72 433 q 120 639 72 581 q 253 728 168 697 q 447 758 339 758 q 599 742 525 758 q 724 696 672 725 l 646 538 q 535 583 593 571 q 425 594 478 594 q 315 573 349 594 q 281 521 281 551 q 309 480 281 494 q 382 456 338 465 q 478 437 426 447 q 574 406 529 426 q 647 349 618 386 q 675 250 675 313 q 626 106 675 165 q 492 18 576 47 q 299 -11 407 -11 m 328 843 l 536 1043 l 775 1043 l 503 843 l 328 843 z "},"Ŝ":{"ha":886,"x_min":-11,"x_max":901,"o":"m 379 -17 q 226 -2 300 -17 q 91 38 151 13 q -11 92 31 63 l 81 265 q 178 210 126 233 q 288 176 231 188 q 401 164 344 164 q 509 178 464 164 q 578 217 554 192 q 603 278 603 242 q 576 332 603 311 q 508 367 550 353 q 414 396 465 382 q 310 428 363 410 q 216 476 258 447 q 147 549 174 504 q 121 660 121 593 q 176 833 121 760 q 331 948 231 907 q 565 989 431 989 q 751 967 664 989 q 901 906 839 946 l 817 733 q 693 790 761 771 q 553 808 625 808 q 441 793 488 808 q 370 751 394 778 q 346 689 346 724 q 372 633 346 654 q 440 597 397 611 q 535 568 483 582 q 638 536 586 554 q 732 490 689 518 q 801 420 775 463 q 828 314 828 378 q 772 140 828 214 q 616 24 717 65 q 379 -17 515 -17 z "},"ŝ":{"ha":738,"x_min":-21,"x_max":736,"o":"m 299 -11 q 113 11 200 -11 q -21 67 26 33 l 63 224 q 181 172 111 192 q 322 153 251 153 q 433 172 399 153 q 468 225 468 192 q 439 265 468 251 q 365 286 410 278 q 270 306 321 294 q 174 337 219 317 q 101 395 129 357 q 72 496 72 433 q 120 639 72 581 q 253 728 168 697 q 447 758 339 758 q 599 742 525 758 q 724 696 672 725 l 646 538 q 535 583 593 571 q 425 594 478 594 q 315 573 349 594 q 281 521 281 551 q 309 480 281 494 q 382 456 338 465 q 478 437 426 447 q 574 406 529 426 q 647 349 618 386 q 675 250 675 313 q 626 106 675 165 q 492 18 576 47 q 299 -11 407 -11 m 178 843 l 389 1043 l 579 1043 l 736 843 l 582 843 l 411 1010 l 554 1010 l 340 843 l 178 843 z "},"Ş":{"ha":886,"x_min":-11,"x_max":901,"o":"m 379 -17 q 226 -2 300 -17 q 91 38 151 13 q -11 92 31 63 l 81 265 q 178 210 126 233 q 288 176 231 188 q 401 164 344 164 q 509 178 464 164 q 578 217 554 192 q 603 278 603 242 q 576 332 603 311 q 508 367 550 353 q 414 396 465 382 q 310 428 363 410 q 216 476 258 447 q 147 549 174 504 q 121 660 121 593 q 176 833 121 760 q 331 948 231 907 q 565 989 431 989 q 751 967 664 989 q 901 906 839 946 l 817 733 q 693 790 761 771 q 553 808 625 808 q 441 793 488 808 q 370 751 394 778 q 346 689 346 724 q 372 633 346 654 q 440 597 397 611 q 535 568 483 582 q 638 536 586 554 q 732 490 689 518 q 801 420 775 463 q 828 314 828 378 q 772 140 828 214 q 616 24 717 65 q 379 -17 515 -17 m 276 -322 q 203 -314 238 -322 q 144 -293 169 -306 l 193 -200 q 236 -215 213 -210 q 286 -221 260 -221 q 344 -208 325 -221 q 363 -175 363 -194 q 350 -146 364 -156 q 303 -136 336 -136 l 254 -136 l 321 11 l 436 11 l 401 -69 q 478 -106 453 -76 q 499 -176 503 -136 q 433 -283 493 -244 q 276 -322 372 -322 z "},"ş":{"ha":738,"x_min":-21,"x_max":724,"o":"m 299 -11 q 113 11 200 -11 q -21 67 26 33 l 63 224 q 181 172 111 192 q 322 153 251 153 q 433 172 399 153 q 468 225 468 192 q 439 265 468 251 q 365 286 410 278 q 270 306 321 294 q 174 337 219 317 q 101 395 129 357 q 72 496 72 433 q 120 639 72 581 q 253 728 168 697 q 447 758 339 758 q 599 742 525 758 q 724 696 672 725 l 646 538 q 535 583 593 571 q 425 594 478 594 q 315 573 349 594 q 281 521 281 551 q 309 480 281 494 q 382 456 338 465 q 478 437 426 447 q 574 406 529 426 q 647 349 618 386 q 675 250 675 313 q 626 106 675 165 q 492 18 576 47 q 299 -11 407 -11 m 189 -322 q 116 -314 150 -322 q 57 -293 82 -306 l 106 -200 q 149 -215 125 -210 q 199 -221 172 -221 q 256 -208 238 -221 q 275 -175 275 -194 q 263 -146 276 -156 q 215 -136 249 -136 l 167 -136 l 233 11 l 349 11 l 314 -69 q 390 -106 365 -76 q 411 -176 415 -136 q 345 -283 406 -244 q 189 -322 285 -322 z "},"Š":{"ha":886,"x_min":-11,"x_max":901,"o":"m 379 -17 q 226 -2 300 -17 q 91 38 151 13 q -11 92 31 63 l 81 265 q 178 210 126 233 q 288 176 231 188 q 401 164 344 164 q 509 178 464 164 q 578 217 554 192 q 603 278 603 242 q 576 332 603 311 q 508 367 550 353 q 414 396 465 382 q 310 428 363 410 q 216 476 258 447 q 147 549 174 504 q 121 660 121 593 q 176 833 121 760 q 331 948 231 907 q 565 989 431 989 q 751 967 664 989 q 901 906 839 946 l 817 733 q 693 790 761 771 q 553 808 625 808 q 441 793 488 808 q 370 751 394 778 q 346 689 346 724 q 372 633 346 654 q 440 597 397 611 q 535 568 483 582 q 638 536 586 554 q 732 490 689 518 q 801 420 775 463 q 828 314 828 378 q 772 140 828 214 q 616 24 717 65 q 379 -17 515 -17 z "},"š":{"ha":738,"x_min":-21,"x_max":767,"o":"m 299 -11 q 113 11 200 -11 q -21 67 26 33 l 63 224 q 181 172 111 192 q 322 153 251 153 q 433 172 399 153 q 468 225 468 192 q 439 265 468 251 q 365 286 410 278 q 270 306 321 294 q 174 337 219 317 q 101 395 129 357 q 72 496 72 433 q 120 639 72 581 q 253 728 168 697 q 447 758 339 758 q 599 742 525 758 q 724 696 672 725 l 646 538 q 535 583 593 571 q 425 594 478 594 q 315 573 349 594 q 281 521 281 551 q 309 480 281 494 q 382 456 338 465 q 478 437 426 447 q 574 406 529 426 q 647 349 618 386 q 675 250 675 313 q 626 106 675 165 q 492 18 576 47 q 299 -11 407 -11 m 365 843 l 210 1043 l 364 1043 l 535 878 l 392 878 l 606 1043 l 767 1043 l 557 843 l 365 843 z "},"Ţ":{"ha":858,"x_min":88,"x_max":972,"o":"m 242 0 l 399 789 l 88 789 l 125 972 l 972 972 l 935 789 l 625 789 l 467 0 l 242 0 m 256 -322 q 183 -314 217 -322 q 124 -293 149 -306 l 172 -200 q 215 -215 192 -210 q 265 -221 239 -221 q 323 -208 304 -221 q 342 -175 342 -194 q 329 -146 343 -156 q 282 -136 315 -136 l 233 -136 l 300 11 l 415 11 l 381 -69 q 457 -106 432 -76 q 478 -176 482 -136 q 412 -283 472 -244 q 256 -322 351 -322 z "},"ţ":{"ha":604,"x_min":49,"x_max":600,"o":"m 331 -11 q 193 22 250 -11 q 112 116 136 54 q 104 263 88 178 l 233 913 l 450 913 l 321 264 q 331 189 313 217 q 397 161 349 161 q 442 168 419 161 q 485 188 465 175 l 517 33 q 428 -1 476 8 q 331 -11 379 -11 m 49 564 l 82 731 l 600 731 l 567 564 l 49 564 m 190 -322 q 117 -314 151 -322 q 58 -293 83 -306 l 107 -200 q 150 -215 126 -210 q 200 -221 174 -221 q 258 -208 239 -221 q 276 -175 276 -194 q 264 -146 278 -156 q 217 -136 250 -136 l 168 -136 l 235 11 l 350 11 l 315 -69 q 392 -106 367 -76 q 413 -176 417 -136 q 347 -283 407 -244 q 190 -322 286 -322 z "},"Ť":{"ha":858,"x_min":88,"x_max":972,"o":"m 242 0 l 399 789 l 88 789 l 125 972 l 972 972 l 935 789 l 625 789 l 467 0 l 242 0 z "},"ť":{"ha":604,"x_min":49,"x_max":742,"o":"m 331 -11 q 193 22 250 -11 q 112 116 136 54 q 104 263 88 178 l 233 913 l 450 913 l 321 264 q 331 189 313 217 q 397 161 349 161 q 442 168 419 161 q 485 188 465 175 l 517 33 q 428 -1 476 8 q 331 -11 379 -11 m 49 564 l 82 731 l 600 731 l 567 564 l 49 564 m 524 808 l 579 1088 l 742 1088 l 657 808 l 524 808 z "},"Ŧ":{"ha":858,"x_min":88,"x_max":972,"o":"m 242 0 l 399 789 l 88 789 l 125 972 l 972 972 l 935 789 l 625 789 l 467 0 l 242 0 m 131 381 l 161 531 l 761 531 l 732 381 l 131 381 z "},"ŧ":{"ha":618,"x_min":25,"x_max":607,"o":"m 338 -11 q 200 22 257 -11 q 119 116 143 54 q 111 263 94 178 l 240 913 l 457 913 l 328 264 q 338 189 319 217 q 404 161 356 161 q 449 168 426 161 q 492 188 472 175 l 524 33 q 435 -1 483 8 q 338 -11 386 -11 m 56 564 l 89 731 l 607 731 l 574 564 l 56 564 m 25 319 l 50 444 l 533 444 l 510 319 l 25 319 z "},"Ũ":{"ha":1094,"x_min":92,"x_max":1106,"o":"m 499 -17 q 263 39 357 -17 q 130 194 168 94 q 118 428 92 293 l 226 972 l 453 972 l 344 432 q 338 318 332 367 q 366 238 343 269 q 429 190 389 206 q 524 175 469 175 q 642 201 592 175 q 725 285 692 228 q 776 432 758 342 l 885 972 l 1106 972 l 996 418 q 828 93 953 203 q 499 -17 703 -17 z "},"ũ":{"ha":954,"x_min":65,"x_max":928,"o":"m 346 -11 q 188 28 254 -11 q 93 144 121 68 q 88 333 65 221 l 169 747 l 386 747 l 307 347 q 320 221 290 265 q 426 176 350 176 q 562 224 507 176 q 635 368 617 271 l 711 747 l 928 747 l 779 0 l 574 0 l 615 211 l 646 147 q 514 27 593 65 q 346 -11 435 -11 m 685 839 q 622 852 649 839 q 573 883 594 865 q 532 913 551 900 q 490 926 513 926 q 443 906 463 926 q 417 849 424 885 l 307 849 q 371 999 322 947 q 492 1051 419 1051 q 555 1038 528 1051 q 603 1007 582 1025 q 644 976 625 989 q 685 963 664 963 q 733 984 714 963 q 758 1038 753 1006 l 868 1038 q 805 891 853 943 q 685 839 757 839 z "},"Ū":{"ha":1094,"x_min":92,"x_max":1106,"o":"m 499 -17 q 263 39 357 -17 q 130 194 168 94 q 118 428 92 293 l 226 972 l 453 972 l 344 432 q 338 318 332 367 q 366 238 343 269 q 429 190 389 206 q 524 175 469 175 q 642 201 592 175 q 725 285 692 228 q 776 432 758 342 l 885 972 l 1106 972 l 996 418 q 828 93 953 203 q 499 -17 703 -17 z "},"ū":{"ha":954,"x_min":65,"x_max":928,"o":"m 346 -11 q 188 28 254 -11 q 93 144 121 68 q 88 333 65 221 l 169 747 l 386 747 l 307 347 q 320 221 290 265 q 426 176 350 176 q 562 224 507 176 q 635 368 617 271 l 711 747 l 928 747 l 779 0 l 574 0 l 615 211 l 646 147 q 514 27 593 65 q 346 -11 435 -11 m 319 882 l 343 1004 l 856 1004 l 832 882 l 319 882 z "},"Ŭ":{"ha":1094,"x_min":92,"x_max":1106,"o":"m 499 -17 q 263 39 357 -17 q 130 194 168 94 q 118 428 92 293 l 226 972 l 453 972 l 344 432 q 338 318 332 367 q 366 238 343 269 q 429 190 389 206 q 524 175 469 175 q 642 201 592 175 q 725 285 692 228 q 776 432 758 342 l 885 972 l 1106 972 l 996 418 q 828 93 953 203 q 499 -17 703 -17 z "},"ŭ":{"ha":954,"x_min":65,"x_max":928,"o":"m 346 -11 q 188 28 254 -11 q 93 144 121 68 q 88 333 65 221 l 169 747 l 386 747 l 307 347 q 320 221 290 265 q 426 176 350 176 q 562 224 507 176 q 635 368 617 271 l 711 747 l 928 747 l 779 0 l 574 0 l 615 211 l 646 147 q 514 27 593 65 q 346 -11 435 -11 m 581 832 q 457 858 511 832 q 374 931 403 883 q 351 1043 346 979 l 483 1043 q 513 971 482 997 q 593 944 543 944 q 679 971 644 944 q 722 1043 714 997 l 863 1043 q 768 889 844 946 q 581 832 692 832 z "},"Ů":{"ha":1094,"x_min":92,"x_max":1106,"o":"m 499 -17 q 263 39 357 -17 q 130 194 168 94 q 118 428 92 293 l 226 972 l 453 972 l 344 432 q 338 318 332 367 q 366 238 343 269 q 429 190 389 206 q 524 175 469 175 q 642 201 592 175 q 725 285 692 228 q 776 432 758 342 l 885 972 l 1106 972 l 996 418 q 828 93 953 203 q 499 -17 703 -17 m 715 1047 q 628 1070 667 1047 q 566 1131 589 1093 q 543 1215 543 1168 q 566 1299 543 1261 q 628 1360 589 1338 q 715 1383 668 1383 q 804 1360 765 1383 q 866 1299 843 1338 q 889 1215 889 1261 q 866 1131 889 1168 q 804 1070 843 1093 q 715 1047 765 1047 m 715 1131 q 776 1154 753 1131 q 800 1214 800 1178 q 776 1276 800 1251 q 715 1300 753 1300 q 656 1276 681 1300 q 632 1215 632 1253 q 656 1154 632 1178 q 715 1131 679 1131 z "},"ů":{"ha":954,"x_min":65,"x_max":928,"o":"m 346 -11 q 188 28 254 -11 q 93 144 121 68 q 88 333 65 221 l 169 747 l 386 747 l 307 347 q 320 221 290 265 q 426 176 350 176 q 562 224 507 176 q 635 368 617 271 l 711 747 l 928 747 l 779 0 l 574 0 l 615 211 l 646 147 q 514 27 593 65 q 346 -11 435 -11 m 596 822 q 508 845 547 822 q 447 906 469 868 q 424 990 424 943 q 447 1074 424 1036 q 509 1135 469 1113 q 596 1158 549 1158 q 685 1135 646 1158 q 747 1074 724 1113 q 769 990 769 1036 q 747 906 769 943 q 685 845 724 868 q 596 822 646 822 m 596 906 q 657 929 633 906 q 681 989 681 953 q 657 1051 681 1026 q 596 1075 633 1075 q 537 1051 561 1075 q 513 990 513 1028 q 536 929 513 953 q 596 906 560 906 z "},"Ű":{"ha":1094,"x_min":92,"x_max":1106,"o":"m 499 -17 q 263 39 357 -17 q 130 194 168 94 q 118 428 92 293 l 226 972 l 453 972 l 344 432 q 338 318 332 367 q 366 238 343 269 q 429 190 389 206 q 524 175 469 175 q 642 201 592 175 q 725 285 692 228 q 776 432 758 342 l 885 972 l 1106 972 l 996 418 q 828 93 953 203 q 499 -17 703 -17 z "},"ű":{"ha":954,"x_min":65,"x_max":957,"o":"m 346 -11 q 188 28 254 -11 q 93 144 121 68 q 88 333 65 221 l 169 747 l 386 747 l 307 347 q 320 221 290 265 q 426 176 350 176 q 562 224 507 176 q 635 368 617 271 l 711 747 l 928 747 l 779 0 l 574 0 l 615 211 l 646 147 q 514 27 593 65 q 346 -11 435 -11 m 628 843 l 749 1043 l 957 1043 l 789 843 l 628 843 m 346 843 l 468 1043 l 676 1043 l 510 843 l 346 843 z "},"Ų":{"ha":1094,"x_min":106,"x_max":1106,"o":"m 524 175 q 642 201 592 175 q 725 285 692 228 q 755 350 742 314 q 776 432 768 386 l 885 972 l 1106 972 l 996 418 q 872 138 961 243 q 640 -1 783 32 q 476 -69 525 -28 q 426 -154 426 -111 q 445 -197 426 -182 q 493 -212 464 -212 q 540 -206 517 -212 q 582 -192 564 -200 l 597 -290 q 535 -313 569 -304 q 458 -322 500 -322 q 332 -286 381 -322 q 283 -185 283 -250 q 313 -87 283 -133 q 397 -8 342 -40 q 388 -6 392 -7 q 379 -4 385 -6 q 215 72 282 14 q 121 218 147 129 q 107 317 108 264 q 118 428 106 369 l 226 972 l 453 972 l 344 433 q 336 334 333 378 q 354 260 339 290 q 418 196 375 217 q 524 175 461 175 z "},"ų":{"ha":954,"x_min":65,"x_max":928,"o":"m 346 -11 q 188 28 254 -11 q 93 144 121 68 q 88 333 65 221 l 169 747 l 386 747 l 307 347 q 320 221 290 265 q 426 176 350 176 q 562 224 507 176 q 635 368 617 271 l 711 747 l 928 747 l 779 0 l 574 0 l 615 211 l 646 147 q 514 27 593 65 q 346 -11 435 -11 m 618 -322 q 493 -286 542 -322 q 444 -185 444 -250 q 476 -85 444 -131 q 566 -4 508 -40 q 700 60 624 32 l 779 0 q 669 -49 711 -24 q 607 -101 626 -75 q 588 -154 588 -126 q 606 -197 588 -182 q 654 -212 625 -212 q 701 -206 678 -212 q 743 -192 725 -200 l 758 -290 q 696 -313 731 -304 q 618 -322 661 -322 z "},"Ŵ":{"ha":1615,"x_min":150,"x_max":1706,"o":"m 274 0 l 150 972 l 372 972 l 481 113 l 364 113 l 824 972 l 1032 972 l 1136 113 l 1025 113 l 1482 972 l 1706 972 l 1192 0 l 951 0 l 854 756 l 922 756 l 515 0 l 274 0 z "},"ŵ":{"ha":1307,"x_min":72,"x_max":1385,"o":"m 204 0 l 72 747 l 269 747 l 375 104 l 274 104 l 632 747 l 818 747 l 926 104 l 825 104 l 1181 747 l 1385 747 l 972 0 l 758 0 l 657 551 l 721 551 l 415 0 l 204 0 m 468 843 l 679 1043 l 869 1043 l 1026 843 l 872 843 l 701 1010 l 844 1010 l 631 843 l 468 843 z "},"Ŷ":{"ha":939,"x_min":100,"x_max":1079,"o":"m 282 0 l 361 400 l 386 258 l 100 972 l 325 972 l 543 426 l 407 425 l 847 972 l 1079 972 l 510 257 l 586 400 l 507 0 l 282 0 z "},"ŷ":{"ha":831,"x_min":-125,"x_max":917,"o":"m 78 -281 q -35 -262 21 -281 q -125 -215 -92 -244 l -25 -60 q 28 -93 -1 -81 q 94 -106 58 -106 q 167 -85 136 -106 q 229 -14 199 -64 l 289 81 l 308 103 l 703 747 l 917 747 l 419 -50 q 313 -188 364 -137 q 206 -260 263 -239 q 78 -281 150 -281 m 243 -29 l 64 747 l 281 747 l 417 122 l 243 -29 m 215 843 l 426 1043 l 617 1043 l 774 843 l 619 843 l 449 1010 l 592 1010 l 378 843 l 215 843 z "},"Ÿ":{"ha":939,"x_min":100,"x_max":1079,"o":"m 282 0 l 361 400 l 386 258 l 100 972 l 325 972 l 543 426 l 407 425 l 847 972 l 1079 972 l 510 257 l 586 400 l 507 0 l 282 0 z "},"Ź":{"ha":932,"x_min":-24,"x_max":1003,"o":"m -24 0 l 6 146 l 744 871 l 764 789 l 149 789 l 186 972 l 1003 972 l 974 826 l 236 101 l 217 183 l 864 183 l 826 0 l -24 0 z "},"ź":{"ha":754,"x_min":-26,"x_max":793,"o":"m -26 0 l 0 131 l 535 653 l 569 581 l 101 581 l 135 747 l 776 747 l 751 617 l 217 94 l 179 167 l 674 167 l 640 0 l -26 0 m 346 843 l 554 1043 l 793 1043 l 521 843 l 346 843 z "},"Ż":{"ha":932,"x_min":-24,"x_max":1003,"o":"m -24 0 l 6 146 l 744 871 l 764 789 l 149 789 l 186 972 l 1003 972 l 974 826 l 236 101 l 217 183 l 864 183 l 826 0 l -24 0 z "},"ż":{"ha":754,"x_min":-26,"x_max":776,"o":"m -26 0 l 0 131 l 535 653 l 569 581 l 101 581 l 135 747 l 776 747 l 751 617 l 217 94 l 179 167 l 674 167 l 640 0 l -26 0 m 492 850 q 412 879 442 850 q 382 953 382 908 q 419 1048 382 1011 q 508 1085 456 1085 q 587 1056 557 1085 q 617 981 617 1026 q 581 886 617 922 q 492 850 544 850 z "},"Ž":{"ha":932,"x_min":-24,"x_max":1003,"o":"m -24 0 l 6 146 l 744 871 l 764 789 l 149 789 l 186 972 l 1003 972 l 974 826 l 236 101 l 217 183 l 864 183 l 826 0 l -24 0 z "},"ž":{"ha":754,"x_min":-26,"x_max":785,"o":"m -26 0 l 0 131 l 535 653 l 569 581 l 101 581 l 135 747 l 776 747 l 751 617 l 217 94 l 179 167 l 674 167 l 640 0 l -26 0 m 383 843 l 228 1043 l 382 1043 l 553 878 l 410 878 l 624 1043 l 785 1043 l 575 843 l 383 843 z "},"ſ":{"ha":463,"x_min":64,"x_max":719,"o":"m 68 0 l 224 774 q 333 971 249 900 q 546 1042 418 1042 q 638 1031 593 1042 q 719 1000 683 1021 l 635 844 q 550 871 597 871 q 476 843 504 871 q 435 758 447 815 l 285 0 l 68 0 m 64 564 l 97 731 l 350 731 l 317 564 l 64 564 z "},"Ə":{"ha":1135,"x_min":67,"x_max":1107,"o":"m 533 -17 q 287 36 392 -17 q 124 183 182 89 q 67 397 67 276 q 72 463 67 428 q 86 543 76 497 l 914 543 l 883 390 l 213 390 l 296 458 q 291 426 293 439 q 289 394 289 414 q 317 272 289 325 q 403 191 346 219 q 546 163 461 163 q 694 197 631 163 q 798 290 757 232 q 860 418 839 349 q 881 554 881 488 q 851 683 881 628 q 761 767 821 738 q 614 797 701 797 q 456 770 532 797 q 319 690 381 743 l 213 846 q 403 952 294 915 q 631 989 511 989 q 886 935 781 989 q 1049 785 992 881 q 1107 561 1107 689 q 1065 329 1107 435 q 947 147 1024 224 q 765 26 871 69 q 533 -17 660 -17 z "},"ƒ":{"ha":671,"x_min":-246,"x_max":838,"o":"m -67 -281 q -171 -267 -124 -281 q -246 -232 -218 -253 l -146 -82 q -65 -108 -114 -108 q 10 -81 -24 -108 q 63 0 44 -54 l 311 764 q 449 973 356 904 q 671 1042 542 1042 q 767 1031 724 1042 q 838 1000 811 1021 l 733 843 q 699 863 719 857 q 653 869 678 869 q 573 842 608 869 q 519 761 538 815 l 497 693 l 475 600 l 272 -21 q 144 -215 232 -149 q -67 -281 57 -281 m 126 551 l 178 718 l 696 718 l 644 551 l 126 551 z "},"Ơ":{"ha":1172,"x_min":71,"x_max":1242,"o":"m 544 -17 q 291 37 397 -17 q 128 185 185 90 q 71 406 71 281 q 114 637 71 531 q 237 822 157 743 q 427 944 317 900 q 672 989 538 989 q 790 983 740 989 q 884 969 840 976 q 975 963 928 963 q 1065 990 1033 963 q 1096 1060 1096 1017 q 1088 1106 1096 1085 q 1068 1143 1081 1128 l 1197 1190 q 1229 1128 1217 1163 q 1242 1050 1242 1093 q 1211 928 1242 979 q 1126 851 1181 878 q 1001 824 1072 824 q 963 826 983 824 q 921 831 943 828 l 1021 869 q 1114 737 1082 814 q 1146 567 1146 660 q 1103 335 1146 442 q 980 151 1060 229 q 790 28 900 72 q 544 -17 679 -17 m 564 175 q 712 205 646 175 q 824 288 778 235 q 894 409 869 340 q 918 554 918 478 q 888 681 918 626 q 798 767 857 736 q 653 797 739 797 q 506 767 571 797 q 394 685 440 738 q 323 563 347 632 q 299 418 299 494 q 330 291 299 346 q 420 206 361 236 q 564 175 479 175 z "},"ơ":{"ha":908,"x_min":40,"x_max":949,"o":"m 417 -11 q 218 31 303 -11 q 87 147 133 72 q 40 324 40 222 q 99 547 40 449 q 258 701 157 644 q 492 758 360 758 q 581 756 544 758 q 647 749 617 753 q 710 746 676 746 q 774 770 744 746 q 804 836 804 794 q 796 882 804 861 q 776 919 788 903 l 904 967 q 937 903 925 938 q 949 828 949 868 q 918 708 949 758 q 833 633 888 658 q 708 607 779 607 q 658 609 679 607 q 613 614 636 611 l 751 674 q 836 568 806 631 q 867 424 867 506 q 809 201 867 300 q 650 46 751 103 q 417 -11 549 -11 m 431 168 q 544 199 494 168 q 621 285 593 231 q 649 414 649 340 q 604 535 649 490 q 479 579 560 579 q 366 548 415 579 q 288 462 317 517 q 260 333 260 407 q 304 213 260 257 q 431 168 349 168 z "},"Ư":{"ha":1114,"x_min":92,"x_max":1257,"o":"m 499 -17 q 263 39 357 -17 q 130 194 168 94 q 118 428 92 293 l 226 972 l 453 972 l 344 432 q 338 318 332 367 q 366 238 343 269 q 429 190 389 206 q 524 175 469 175 q 642 201 592 175 q 725 285 692 228 q 776 432 758 342 l 885 972 l 1106 972 l 996 418 q 828 93 953 203 q 499 -17 703 -17 m 990 828 l 990 972 l 1029 972 q 1090 997 1067 972 q 1113 1060 1113 1021 q 1105 1106 1113 1085 q 1085 1143 1097 1128 l 1213 1190 q 1245 1128 1233 1163 q 1257 1051 1257 1093 q 1228 932 1257 982 q 1147 855 1199 882 q 1024 828 1094 828 l 990 828 z "},"ư":{"ha":974,"x_min":65,"x_max":1053,"o":"m 346 -11 q 188 28 254 -11 q 93 144 121 68 q 88 333 65 221 l 169 747 l 386 747 l 307 347 q 320 221 290 265 q 426 176 350 176 q 562 224 507 176 q 635 368 617 271 l 711 747 l 928 747 l 779 0 l 574 0 l 615 211 l 646 147 q 514 27 593 65 q 346 -11 435 -11 m 786 603 l 786 747 l 825 747 q 885 772 863 747 q 908 835 908 796 q 901 881 908 860 q 881 918 893 903 l 1008 965 q 1041 903 1029 938 q 1053 826 1053 868 q 1024 707 1053 757 q 942 630 994 657 q 819 603 890 603 l 786 603 z "},"Ʒ":{"ha":856,"x_min":-19,"x_max":875,"o":"m 336 -17 q 136 13 229 -17 q -19 96 43 42 l 89 261 q 205 196 136 219 q 351 172 274 172 q 465 189 418 172 q 535 238 511 206 q 560 313 560 269 q 520 391 560 365 q 400 417 481 417 l 297 417 l 326 565 l 654 872 l 669 792 l 157 792 l 194 972 l 875 972 l 847 826 l 519 519 l 414 583 l 464 583 q 638 552 565 583 q 749 463 710 521 q 788 326 788 406 q 730 150 788 228 q 570 28 672 72 q 336 -17 468 -17 z "},"Ǆ":{"ha":2013,"x_min":40,"x_max":2081,"o":"m 40 0 l 235 972 l 642 972 q 899 923 792 972 q 1064 783 1007 874 q 1121 567 1121 692 q 1077 333 1121 438 q 953 155 1033 229 q 761 40 872 81 q 515 0 650 0 l 40 0 m 303 185 l 522 185 q 723 233 640 185 q 849 365 806 282 q 893 554 893 449 q 863 678 893 626 q 770 759 832 731 q 617 788 708 788 l 424 788 l 303 185 m 1054 0 l 1083 146 l 1822 871 l 1842 789 l 1226 789 l 1264 972 l 2081 972 l 2051 826 l 1314 101 l 1294 183 l 1942 183 l 1904 0 l 1054 0 z "},"ǅ":{"ha":1901,"x_min":40,"x_max":1932,"o":"m 40 0 l 235 972 l 642 972 q 899 923 792 972 q 1064 783 1007 874 q 1121 567 1121 692 q 1077 333 1121 438 q 953 155 1033 229 q 761 40 872 81 q 515 0 650 0 l 40 0 m 303 185 l 522 185 q 723 233 640 185 q 849 365 806 282 q 893 554 893 449 q 863 678 893 626 q 770 759 832 731 q 617 788 708 788 l 424 788 l 303 185 m 1121 0 l 1147 131 l 1682 653 l 1717 581 l 1249 581 l 1282 747 l 1924 747 l 1899 617 l 1364 94 l 1326 167 l 1821 167 l 1788 0 l 1121 0 m 1531 843 l 1375 1043 l 1529 1043 l 1700 878 l 1557 878 l 1771 1043 l 1932 1043 l 1722 843 l 1531 843 z "},"ǆ":{"ha":1717,"x_min":44,"x_max":1746,"o":"m 367 -11 q 207 28 281 -11 q 89 143 133 68 q 44 324 44 218 q 76 497 44 418 q 164 635 107 576 q 296 726 221 693 q 457 758 371 758 q 608 728 544 758 q 708 634 672 697 q 743 475 743 571 q 719 284 743 372 q 646 130 694 196 q 527 26 597 64 q 367 -11 457 -11 m 433 168 q 547 199 497 168 q 624 285 596 231 q 653 414 653 340 q 608 535 653 490 q 482 579 563 579 q 369 548 419 579 q 291 462 319 517 q 263 333 263 407 q 308 213 263 257 q 433 168 353 168 m 581 0 l 611 149 l 658 371 l 688 593 l 775 1031 l 992 1031 l 786 0 l 581 0 m 935 0 l 961 131 l 1496 653 l 1531 581 l 1063 581 l 1096 747 l 1738 747 l 1713 617 l 1178 94 l 1140 167 l 1635 167 l 1601 0 l 935 0 m 1344 843 l 1189 1043 l 1343 1043 l 1514 878 l 1371 878 l 1585 1043 l 1746 1043 l 1536 843 l 1344 843 z "},"Ǉ":{"ha":1592,"x_min":40,"x_max":1604,"o":"m 40 0 l 235 972 l 461 972 l 303 183 l 790 183 l 753 0 l 40 0 m 1088 -17 q 896 21 976 -17 q 771 129 815 58 l 919 271 q 992 195 949 222 q 1090 168 1035 168 q 1195 204 1154 168 q 1251 319 1236 240 l 1344 792 l 1003 792 l 1040 972 l 1604 972 l 1475 331 q 1399 127 1450 203 q 1271 17 1349 51 q 1088 -17 1193 -17 z "},"ǈ":{"ha":1265,"x_min":40,"x_max":1311,"o":"m 40 0 l 235 972 l 461 972 l 303 183 l 790 183 l 753 0 l 40 0 m 768 -281 q 670 -270 715 -281 q 589 -239 625 -260 l 675 -82 q 765 -108 713 -108 q 835 -82 810 -108 q 872 1 861 -56 l 1022 747 l 1239 747 l 1090 7 q 768 -281 1033 -281 m 1167 851 q 1075 884 1110 851 q 1040 964 1040 917 q 1080 1056 1040 1019 q 1183 1093 1119 1093 q 1276 1062 1240 1093 q 1311 985 1311 1031 q 1272 888 1311 925 q 1167 851 1232 851 z "},"ǉ":{"ha":843,"x_min":26,"x_max":890,"o":"m 26 0 l 232 1031 l 449 1031 l 243 0 l 26 0 m 347 -281 q 249 -270 294 -281 q 168 -239 204 -260 l 254 -82 q 344 -108 292 -108 q 415 -82 389 -108 q 451 1 440 -56 l 601 747 l 818 747 l 669 7 q 347 -281 613 -281 m 746 851 q 654 884 689 851 q 619 964 619 917 q 659 1056 619 1019 q 763 1093 699 1093 q 855 1062 819 1093 q 890 985 890 1031 q 851 888 890 925 q 746 851 811 851 z "},"Ǌ":{"ha":1875,"x_min":40,"x_max":1888,"o":"m 40 0 l 235 972 l 421 972 l 839 268 l 765 272 l 904 972 l 1126 972 l 932 0 l 747 0 l 328 704 l 403 700 l 263 0 l 40 0 m 1371 -17 q 1179 21 1260 -17 q 1054 129 1099 58 l 1203 271 q 1275 195 1232 222 q 1374 168 1318 168 q 1478 204 1438 168 q 1535 319 1519 240 l 1628 792 l 1286 792 l 1324 972 l 1888 972 l 1758 331 q 1683 127 1733 203 q 1554 17 1632 51 q 1371 -17 1476 -17 z "},"ǋ":{"ha":1549,"x_min":40,"x_max":1594,"o":"m 40 0 l 235 972 l 421 972 l 839 268 l 765 272 l 904 972 l 1126 972 l 932 0 l 747 0 l 328 704 l 403 700 l 263 0 l 40 0 m 1051 -281 q 953 -270 999 -281 q 872 -239 908 -260 l 958 -82 q 1049 -108 996 -108 q 1119 -82 1093 -108 q 1156 1 1144 -56 l 1306 747 l 1522 747 l 1374 7 q 1051 -281 1317 -281 m 1450 851 q 1358 884 1393 851 q 1324 964 1324 917 q 1363 1056 1324 1019 q 1467 1093 1403 1093 q 1559 1062 1524 1093 q 1594 985 1594 1031 q 1555 888 1594 925 q 1450 851 1515 851 z "},"ǌ":{"ha":1385,"x_min":26,"x_max":1432,"o":"m 610 758 q 772 719 706 758 q 867 603 839 679 q 872 414 894 526 l 789 0 l 572 0 l 653 400 q 640 526 669 482 q 531 571 610 571 q 394 524 449 571 q 318 379 339 476 l 243 0 l 26 0 l 175 747 l 381 747 l 338 536 l 307 600 q 441 720 361 682 q 610 758 521 758 m 889 -281 q 791 -270 836 -281 q 710 -239 746 -260 l 796 -82 q 886 -108 833 -108 q 956 -82 931 -108 q 993 1 982 -56 l 1143 747 l 1360 747 l 1211 7 q 889 -281 1154 -281 m 1288 851 q 1196 884 1231 851 q 1161 964 1161 917 q 1201 1056 1161 1019 q 1304 1093 1240 1093 q 1397 1062 1361 1093 q 1432 985 1432 1031 q 1392 888 1432 925 q 1288 851 1353 851 z "},"Ǎ":{"ha":1064,"x_min":-87,"x_max":1003,"o":"m -87 0 l 540 972 l 764 972 l 1003 0 l 778 0 l 589 861 l 678 861 l 153 0 l -87 0 m 172 208 l 264 379 l 765 379 l 792 208 l 172 208 z "},"ǎ":{"ha":958,"x_min":42,"x_max":933,"o":"m 364 -11 q 204 28 278 -11 q 86 143 131 68 q 42 324 42 218 q 73 497 42 418 q 161 635 104 576 q 293 726 218 693 q 454 758 368 758 q 614 724 547 758 q 713 616 681 689 q 736 428 746 543 q 682 197 729 296 q 555 43 635 97 q 364 -11 475 -11 m 431 168 q 544 199 494 168 q 622 285 593 231 q 650 414 650 340 q 605 535 650 490 q 479 579 560 579 q 367 548 417 579 q 288 462 317 517 q 260 333 260 407 q 305 213 260 257 q 431 168 350 168 m 579 0 l 608 149 l 657 371 l 686 593 l 717 747 l 933 747 l 785 0 l 579 0 m 488 843 l 332 1043 l 486 1043 l 657 878 l 514 878 l 728 1043 l 889 1043 l 679 843 l 488 843 z "},"Ǔ":{"ha":1094,"x_min":92,"x_max":1106,"o":"m 499 -17 q 263 39 357 -17 q 130 194 168 94 q 118 428 92 293 l 226 972 l 453 972 l 344 432 q 338 318 332 367 q 366 238 343 269 q 429 190 389 206 q 524 175 469 175 q 642 201 592 175 q 725 285 692 228 q 776 432 758 342 l 885 972 l 1106 972 l 996 418 q 828 93 953 203 q 499 -17 703 -17 z "},"ǔ":{"ha":954,"x_min":65,"x_max":928,"o":"m 346 -11 q 188 28 254 -11 q 93 144 121 68 q 88 333 65 221 l 169 747 l 386 747 l 307 347 q 320 221 290 265 q 426 176 350 176 q 562 224 507 176 q 635 368 617 271 l 711 747 l 928 747 l 779 0 l 574 0 l 615 211 l 646 147 q 514 27 593 65 q 346 -11 435 -11 m 476 843 l 321 1043 l 475 1043 l 646 878 l 503 878 l 717 1043 l 878 1043 l 668 843 l 476 843 z "},"Ǥ":{"ha":1126,"x_min":71,"x_max":1111,"o":"m 531 275 l 557 424 l 1111 424 l 1082 275 l 531 275 m 551 -17 q 297 37 404 -17 q 130 185 189 90 q 71 406 71 281 q 115 636 71 529 q 239 822 158 743 q 432 944 319 900 q 682 989 544 989 q 923 945 821 989 q 1088 819 1025 901 l 926 689 q 816 772 878 747 q 672 797 754 797 q 517 769 586 797 q 400 689 449 740 q 325 569 351 638 q 299 419 299 500 q 331 291 299 346 q 426 206 363 236 q 581 175 489 175 q 714 199 650 175 q 838 272 778 222 l 924 101 q 753 14 850 44 q 551 -17 657 -17 m 726 136 l 799 501 l 1004 501 l 924 101 l 726 136 z "},"ǥ":{"ha":992,"x_min":-7,"x_max":951,"o":"m 350 -281 q 151 -255 240 -281 q -7 -182 61 -229 l 94 -31 q 210 -89 140 -67 q 357 -111 279 -111 q 527 -60 469 -111 q 603 88 585 -8 l 631 222 l 679 397 l 713 586 l 744 747 l 951 747 l 826 125 q 665 -185 785 -90 q 350 -281 544 -281 m 300 -53 l 321 53 l 901 54 l 881 -53 l 300 -53 m 381 90 q 214 125 289 90 q 95 225 139 160 q 51 381 51 290 q 103 572 51 488 q 248 707 156 657 q 461 757 340 757 q 606 732 539 757 q 713 651 672 707 q 754 504 754 594 q 710 297 754 390 q 583 147 665 203 q 381 90 500 90 m 439 251 q 552 278 503 251 q 629 351 601 304 q 657 458 657 399 q 613 559 657 521 q 488 597 568 597 q 375 571 424 597 q 298 497 326 544 q 269 389 269 450 q 315 289 269 326 q 439 251 360 251 z "},"Ǧ":{"ha":1071,"x_min":71,"x_max":1088,"o":"m 551 -17 q 297 37 404 -17 q 130 185 189 90 q 71 406 71 281 q 115 636 71 529 q 239 822 158 743 q 432 944 319 900 q 682 989 544 989 q 923 945 821 989 q 1088 819 1025 901 l 926 689 q 816 772 878 747 q 672 797 754 797 q 517 769 586 797 q 400 689 449 740 q 325 569 351 638 q 299 419 299 500 q 331 291 299 346 q 426 206 363 236 q 581 175 489 175 q 714 199 650 175 q 838 272 778 222 l 924 101 q 753 14 850 44 q 551 -17 657 -17 m 726 136 l 799 501 l 1004 501 l 924 101 l 726 136 z "},"ǧ":{"ha":972,"x_min":-11,"x_max":946,"o":"m 344 -281 q 145 -256 236 -281 q -11 -182 54 -231 l 92 -25 q 206 -83 136 -61 q 354 -106 276 -106 q 523 -57 467 -106 q 599 88 579 -8 l 625 222 l 675 397 l 708 586 l 739 747 l 946 747 l 822 125 q 659 -185 779 -90 q 344 -281 539 -281 m 376 36 q 210 74 285 36 q 90 181 135 111 q 46 350 46 251 q 77 510 46 436 q 165 640 108 583 q 297 727 221 696 q 463 758 372 758 q 611 728 544 758 q 715 629 678 697 q 742 447 751 561 q 688 231 733 324 q 563 88 642 139 q 376 36 485 36 m 435 214 q 547 242 499 214 q 624 319 596 269 q 651 432 651 368 q 607 540 651 500 q 483 579 563 579 q 370 551 419 579 q 292 474 321 524 q 264 361 264 425 q 310 253 264 293 q 435 214 356 214 m 476 843 l 321 1043 l 475 1043 l 646 878 l 503 878 l 717 1043 l 878 1043 l 668 843 l 476 843 z "},"Ǩ":{"ha":1028,"x_min":40,"x_max":1146,"o":"m 290 222 l 321 483 l 874 972 l 1146 972 l 633 521 l 485 394 l 290 222 m 40 0 l 235 972 l 458 972 l 264 0 l 40 0 m 719 0 l 442 424 l 601 575 l 972 0 l 719 0 z "},"ǩ":{"ha":896,"x_min":26,"x_max":974,"o":"m 243 150 l 290 418 l 692 747 l 974 747 l 556 399 l 435 310 l 243 150 m 26 0 l 232 1031 l 449 1031 l 243 0 l 26 0 m 589 0 l 397 314 l 549 479 l 840 0 l 589 0 m 268 1126 l 113 1326 l 267 1326 l 438 1161 l 294 1161 l 508 1326 l 669 1326 l 460 1126 l 268 1126 z "},"Ǫ":{"ha":1172,"x_min":71,"x_max":1146,"o":"m 488 -322 q 361 -286 410 -322 q 313 -185 313 -250 q 365 -58 313 -115 q 517 38 417 0 l 544 -17 q 291 37 397 -17 q 128 185 185 90 q 71 406 71 281 q 114 637 71 531 q 237 822 157 743 q 427 944 317 900 q 672 989 538 989 q 926 935 819 989 q 1089 787 1032 882 q 1146 567 1146 692 q 1088 303 1146 422 q 926 104 1031 183 q 682 -3 822 25 q 547 -47 596 -21 q 476 -100 497 -72 q 456 -154 456 -128 q 474 -197 456 -182 q 524 -212 493 -212 q 570 -206 547 -212 q 611 -192 593 -200 l 628 -290 q 565 -313 600 -304 q 488 -322 529 -322 m 564 175 q 712 205 646 175 q 824 288 778 235 q 894 409 869 340 q 918 554 918 478 q 888 681 918 626 q 798 767 857 736 q 653 797 739 797 q 506 767 571 797 q 394 685 440 738 q 323 563 347 632 q 299 418 299 494 q 330 291 299 346 q 420 206 361 236 q 564 175 479 175 z "},"ǫ":{"ha":908,"x_min":40,"x_max":868,"o":"m 368 -322 q 242 -286 290 -322 q 193 -185 193 -250 q 245 -58 193 -114 q 393 38 297 -1 l 475 -7 q 445 -10 460 -8 q 417 -11 431 -11 q 218 31 303 -11 q 87 147 133 72 q 40 324 40 222 q 99 547 40 449 q 258 701 157 644 q 492 758 360 758 q 691 717 607 758 q 822 601 775 675 q 868 424 868 526 q 828 236 868 321 q 716 92 789 151 q 542 3 643 32 q 419 -46 465 -19 q 355 -99 374 -72 q 336 -154 336 -126 q 355 -197 336 -182 q 404 -212 374 -212 q 451 -206 428 -212 q 492 -192 474 -200 l 508 -290 q 445 -313 481 -304 q 368 -322 410 -322 m 431 168 q 544 199 494 168 q 621 285 593 231 q 649 414 649 340 q 604 535 649 490 q 479 579 560 579 q 366 548 415 579 q 288 462 317 517 q 260 333 260 407 q 304 213 260 257 q 431 168 349 168 z "},"Ǯ":{"ha":856,"x_min":-19,"x_max":875,"o":"m 336 -17 q 136 13 229 -17 q -19 96 43 42 l 89 261 q 205 196 136 219 q 351 172 274 172 q 465 189 418 172 q 535 238 511 206 q 560 313 560 269 q 520 391 560 365 q 400 417 481 417 l 297 417 l 326 565 l 654 872 l 669 792 l 157 792 l 194 972 l 875 972 l 847 826 l 519 519 l 414 583 l 464 583 q 638 552 565 583 q 749 463 710 521 q 788 326 788 406 q 730 150 788 228 q 570 28 672 72 q 336 -17 468 -17 z "},"ǯ":{"ha":768,"x_min":-128,"x_max":785,"o":"m 383 843 l 228 1043 l 382 1043 l 553 878 l 410 878 l 624 1043 l 785 1043 l 575 843 l 383 843 z "},"Ǻ":{"ha":1064,"x_min":-87,"x_max":1003,"o":"m -87 0 l 540 972 l 764 972 l 1003 0 l 778 0 l 589 861 l 678 861 l 153 0 l -87 0 m 172 208 l 264 379 l 765 379 l 792 208 l 172 208 m 700 1047 q 613 1070 651 1047 q 551 1131 574 1093 q 528 1215 528 1168 q 551 1299 528 1261 q 613 1360 574 1338 q 700 1383 653 1383 q 789 1360 750 1383 q 851 1299 828 1338 q 874 1215 874 1261 q 851 1131 874 1168 q 789 1070 828 1093 q 700 1047 750 1047 m 700 1131 q 761 1154 738 1131 q 785 1214 785 1178 q 761 1276 785 1251 q 700 1300 738 1300 q 641 1276 665 1300 q 617 1215 617 1253 q 640 1154 617 1178 q 700 1131 664 1131 m 829 1288 l 726 1321 l 893 1494 l 1000 1411 l 829 1288 z "},"ǻ":{"ha":958,"x_min":42,"x_max":933,"o":"m 364 -11 q 204 28 278 -11 q 86 143 131 68 q 42 324 42 218 q 73 497 42 418 q 161 635 104 576 q 293 726 218 693 q 454 758 368 758 q 614 724 547 758 q 713 616 681 689 q 736 428 746 543 q 682 197 729 296 q 555 43 635 97 q 364 -11 475 -11 m 431 168 q 544 199 494 168 q 622 285 593 231 q 650 414 650 340 q 605 535 650 490 q 479 579 560 579 q 367 548 417 579 q 288 462 317 517 q 260 333 260 407 q 305 213 260 257 q 431 168 350 168 m 579 0 l 608 149 l 657 371 l 686 593 l 717 747 l 933 747 l 785 0 l 579 0 m 607 822 q 519 845 558 822 q 458 906 481 868 q 435 990 435 943 q 458 1074 435 1036 q 520 1135 481 1113 q 607 1158 560 1158 q 696 1135 657 1158 q 758 1074 735 1113 q 781 990 781 1036 q 758 906 781 943 q 696 845 735 868 q 607 822 657 822 m 607 906 q 668 929 644 906 q 692 989 692 953 q 668 1051 692 1026 q 607 1075 644 1075 q 548 1051 572 1075 q 524 990 524 1028 q 547 929 524 953 q 607 906 571 906 m 736 1063 l 633 1096 l 800 1269 l 907 1186 l 736 1063 z "},"Ǽ":{"ha":1503,"x_min":-89,"x_max":1540,"o":"m -89 0 l 647 972 l 883 972 l 849 793 l 656 793 l 815 886 l 158 0 l -89 0 m 244 208 l 282 379 l 764 379 l 732 208 l 244 208 m 613 0 l 807 972 l 1540 972 l 1504 792 l 993 792 l 871 181 l 1401 181 l 1365 0 l 613 0 m 899 406 l 935 581 l 1403 581 l 1368 406 l 899 406 z "},"ǽ":{"ha":1382,"x_min":22,"x_max":1347,"o":"m 318 -11 q 159 17 225 -11 q 58 92 93 44 q 22 203 22 140 q 109 376 22 313 q 364 440 196 440 l 571 440 l 549 314 l 368 314 q 268 289 303 314 q 233 218 233 264 q 263 158 233 181 q 351 135 292 135 q 429 150 394 135 q 488 197 464 165 q 522 279 513 229 l 554 436 q 529 547 568 508 q 403 585 490 585 q 287 568 344 585 q 186 525 229 551 l 129 679 q 225 724 172 707 q 334 749 278 740 q 440 758 390 758 q 647 714 572 758 q 744 583 722 669 l 651 588 q 742 680 692 642 q 853 738 792 718 q 986 758 914 758 q 1177 717 1096 758 q 1303 603 1258 676 q 1347 429 1347 531 q 1344 371 1347 400 q 1333 314 1340 342 l 718 314 l 740 440 l 1203 440 l 1139 403 q 1131 508 1150 465 q 1072 573 1113 550 q 975 596 1032 596 q 856 562 906 596 q 780 468 806 528 q 754 333 754 408 q 803 203 754 243 q 949 163 851 163 q 1060 180 1010 163 q 1149 232 1111 197 l 1243 89 q 1094 13 1176 38 q 926 -11 1013 -11 q 774 14 847 -11 q 647 92 700 39 q 571 231 594 146 l 683 229 q 591 84 646 136 q 467 10 536 32 q 318 -11 399 -11 m 613 842 l 821 1042 l 1060 1042 l 788 842 l 613 842 z "},"Ǿ":{"ha":1172,"x_min":1,"x_max":1214,"o":"m 544 -17 q 291 37 397 -17 q 128 185 185 90 q 71 406 71 281 q 114 637 71 531 q 237 822 157 743 q 427 944 317 900 q 672 989 538 989 q 926 935 819 989 q 1089 787 1032 882 q 1146 567 1146 692 q 1103 335 1146 442 q 980 151 1060 229 q 790 28 900 72 q 544 -17 679 -17 m 564 175 q 712 205 646 175 q 824 288 778 235 q 894 409 869 340 q 918 554 918 478 q 888 681 918 626 q 798 767 857 736 q 653 797 739 797 q 506 767 571 797 q 394 685 440 738 q 323 563 347 632 q 299 418 299 494 q 330 291 299 346 q 420 206 361 236 q 564 175 479 175 m 1 -97 l 1064 1069 l 1214 1069 l 153 -97 l 1 -97 z "},"ǿ":{"ha":908,"x_min":-3,"x_max":904,"o":"m 417 -11 q 218 31 303 -11 q 87 147 133 72 q 40 324 40 222 q 99 547 40 449 q 259 701 157 644 q 492 758 361 758 q 691 717 607 758 q 822 601 775 675 q 868 424 868 526 q 810 201 868 300 q 650 46 751 103 q 417 -11 549 -11 m 431 167 q 544 198 494 167 q 621 285 593 229 q 649 414 649 340 q 604 535 649 489 q 479 581 560 581 q 366 549 415 581 q 288 463 317 518 q 260 333 260 407 q 304 212 260 257 q 431 167 349 167 m -3 -97 l 790 840 l 904 840 l 111 -97 l -3 -97 m 414 843 l 622 1043 l 861 1043 l 589 843 l 414 843 z "},"Ȁ":{"ha":1064,"x_min":-87,"x_max":1003,"o":"m -87 0 l 540 972 l 764 972 l 1003 0 l 778 0 l 589 861 l 678 861 l 153 0 l -87 0 m 172 208 l 264 379 l 765 379 l 792 208 l 172 208 z "},"ȁ":{"ha":958,"x_min":42,"x_max":933,"o":"m 364 -11 q 204 28 278 -11 q 86 143 131 68 q 42 324 42 218 q 73 497 42 418 q 161 635 104 576 q 293 726 218 693 q 454 758 368 758 q 614 724 547 758 q 713 616 681 689 q 736 428 746 543 q 682 197 729 296 q 555 43 635 97 q 364 -11 475 -11 m 431 168 q 544 199 494 168 q 622 285 593 231 q 650 414 650 340 q 605 535 650 490 q 479 579 560 579 q 367 548 417 579 q 288 462 317 517 q 260 333 260 407 q 305 213 260 257 q 431 168 350 168 m 579 0 l 608 149 l 657 371 l 686 593 l 717 747 l 933 747 l 785 0 l 579 0 m 644 843 l 539 1043 l 733 1043 l 794 843 l 644 843 m 364 843 l 258 1043 l 453 1043 l 514 843 l 364 843 z "},"Ȃ":{"ha":1064,"x_min":-87,"x_max":1003,"o":"m -87 0 l 540 972 l 764 972 l 1003 0 l 778 0 l 589 861 l 678 861 l 153 0 l -87 0 m 172 208 l 264 379 l 765 379 l 792 208 l 172 208 z "},"ȃ":{"ha":958,"x_min":42,"x_max":933,"o":"m 364 -11 q 204 28 278 -11 q 86 143 131 68 q 42 324 42 218 q 73 497 42 418 q 161 635 104 576 q 293 726 218 693 q 454 758 368 758 q 614 724 547 758 q 713 616 681 689 q 736 428 746 543 q 682 197 729 296 q 555 43 635 97 q 364 -11 475 -11 m 431 168 q 544 199 494 168 q 622 285 593 231 q 650 414 650 340 q 605 535 650 490 q 479 579 560 579 q 367 548 417 579 q 288 462 317 517 q 260 333 260 407 q 305 213 260 257 q 431 168 350 168 m 579 0 l 608 149 l 657 371 l 686 593 l 717 747 l 933 747 l 785 0 l 579 0 m 322 843 q 419 999 342 942 q 606 1056 496 1056 q 729 1029 676 1056 q 811 956 782 1003 q 835 843 840 908 l 701 843 q 674 916 704 889 q 593 943 644 943 q 507 916 542 943 q 463 843 472 889 l 322 843 z "},"Ȅ":{"ha":932,"x_min":40,"x_max":969,"o":"m 364 581 l 832 581 l 797 406 l 329 406 l 364 581 m 300 181 l 831 181 l 793 0 l 40 0 l 235 972 l 969 972 l 932 792 l 422 792 l 300 181 z "},"ȅ":{"ha":872,"x_min":42,"x_max":838,"o":"m 424 -11 q 222 31 307 -11 q 89 147 136 72 q 42 324 42 222 q 98 547 42 449 q 253 701 154 644 q 482 758 353 758 q 671 717 592 758 q 794 603 750 676 q 838 429 838 531 q 834 371 838 400 q 825 315 831 342 l 207 315 l 229 442 l 724 442 l 635 403 q 628 508 646 465 q 569 573 610 550 q 472 596 529 596 q 352 562 401 596 q 278 468 303 528 q 253 333 253 408 q 301 205 253 247 q 446 163 349 163 q 556 181 503 163 q 646 232 608 199 l 736 89 q 590 13 671 38 q 424 -11 508 -11 m 594 842 l 489 1042 l 683 1042 l 744 842 l 594 842 m 314 842 l 208 1042 l 403 1042 l 464 842 l 314 842 z "},"Ȇ":{"ha":932,"x_min":40,"x_max":969,"o":"m 364 581 l 832 581 l 797 406 l 329 406 l 364 581 m 300 181 l 831 181 l 793 0 l 40 0 l 235 972 l 969 972 l 932 792 l 422 792 l 300 181 z "},"ȇ":{"ha":872,"x_min":42,"x_max":838,"o":"m 424 -11 q 222 31 307 -11 q 89 147 136 72 q 42 324 42 222 q 98 547 42 449 q 253 701 154 644 q 482 758 353 758 q 671 717 592 758 q 794 603 750 676 q 838 429 838 531 q 834 371 838 400 q 825 315 831 342 l 207 315 l 229 442 l 724 442 l 635 403 q 628 508 646 465 q 569 573 610 550 q 472 596 529 596 q 352 562 401 596 q 278 468 303 528 q 253 333 253 408 q 301 205 253 247 q 446 163 349 163 q 556 181 503 163 q 646 232 608 199 l 736 89 q 590 13 671 38 q 424 -11 508 -11 m 272 842 q 369 997 292 940 q 556 1054 446 1054 q 679 1028 626 1054 q 761 954 732 1001 q 785 842 790 907 l 651 842 q 624 915 654 888 q 543 942 594 942 q 457 915 492 942 q 413 842 422 888 l 272 842 z "},"Ȉ":{"ha":456,"x_min":40,"x_max":579,"o":"m 40 0 l 235 972 l 461 972 l 267 0 l 40 0 z "},"ȉ":{"ha":417,"x_min":-18,"x_max":518,"o":"m 26 0 l 175 747 l 390 747 l 242 0 l 26 0 m 368 843 l 263 1043 l 457 1043 l 518 843 l 368 843 m 88 843 l -18 1043 l 176 1043 l 238 843 l 88 843 z "},"Ȋ":{"ha":456,"x_min":40,"x_max":625,"o":"m 40 0 l 235 972 l 461 972 l 267 0 l 40 0 z "},"ȋ":{"ha":417,"x_min":26,"x_max":532,"o":"m 26 0 l 175 747 l 390 747 l 242 0 l 26 0 m 81 843 q 160 999 97 943 q 328 1054 224 1054 q 439 1028 392 1054 q 509 956 486 1003 q 524 843 532 908 l 396 843 q 382 916 403 889 q 317 943 361 943 q 215 843 228 943 l 81 843 z "},"Ȍ":{"ha":1172,"x_min":71,"x_max":1146,"o":"m 544 -17 q 291 37 397 -17 q 128 185 185 90 q 71 406 71 281 q 114 637 71 531 q 237 822 157 743 q 427 944 317 900 q 672 989 538 989 q 926 935 819 989 q 1089 787 1032 882 q 1146 567 1146 692 q 1103 335 1146 442 q 980 151 1060 229 q 790 28 900 72 q 544 -17 679 -17 m 564 175 q 712 205 646 175 q 824 288 778 235 q 894 409 869 340 q 918 554 918 478 q 888 681 918 626 q 798 767 857 736 q 653 797 739 797 q 506 767 571 797 q 394 685 440 738 q 323 563 347 632 q 299 418 299 494 q 330 291 299 346 q 420 206 361 236 q 564 175 479 175 z "},"ȍ":{"ha":908,"x_min":40,"x_max":868,"o":"m 417 -11 q 218 31 303 -11 q 87 147 133 72 q 40 324 40 222 q 99 547 40 449 q 259 701 157 644 q 492 758 361 758 q 691 717 607 758 q 822 601 775 675 q 868 424 868 526 q 810 201 868 300 q 650 46 751 103 q 417 -11 549 -11 m 431 167 q 544 198 494 167 q 621 285 593 229 q 649 414 649 340 q 604 535 649 489 q 479 581 560 581 q 366 549 415 581 q 288 463 317 518 q 260 333 260 407 q 304 212 260 257 q 431 167 349 167 m 610 843 l 504 1043 l 699 1043 l 760 843 l 610 843 m 329 843 l 224 1043 l 418 1043 l 479 843 l 329 843 z "},"Ȏ":{"ha":1172,"x_min":71,"x_max":1146,"o":"m 544 -17 q 291 37 397 -17 q 128 185 185 90 q 71 406 71 281 q 114 637 71 531 q 237 822 157 743 q 427 944 317 900 q 672 989 538 989 q 926 935 819 989 q 1089 787 1032 882 q 1146 567 1146 692 q 1103 335 1146 442 q 980 151 1060 229 q 790 28 900 72 q 544 -17 679 -17 m 564 175 q 712 205 646 175 q 824 288 778 235 q 894 409 869 340 q 918 554 918 478 q 888 681 918 626 q 798 767 857 736 q 653 797 739 797 q 506 767 571 797 q 394 685 440 738 q 323 563 347 632 q 299 418 299 494 q 330 291 299 346 q 420 206 361 236 q 564 175 479 175 z "},"ȏ":{"ha":908,"x_min":40,"x_max":868,"o":"m 417 -11 q 218 31 303 -11 q 87 147 133 72 q 40 324 40 222 q 99 547 40 449 q 259 701 157 644 q 492 758 361 758 q 691 717 607 758 q 822 601 775 675 q 868 424 868 526 q 810 201 868 300 q 650 46 751 103 q 417 -11 549 -11 m 431 167 q 544 198 494 167 q 621 285 593 229 q 649 414 649 340 q 604 535 649 489 q 479 581 560 581 q 366 549 415 581 q 288 463 317 518 q 260 333 260 407 q 304 212 260 257 q 431 167 349 167 m 288 843 q 384 999 307 942 q 571 1056 461 1056 q 694 1029 642 1056 q 776 956 747 1003 q 800 843 806 908 l 667 843 q 640 916 669 889 q 558 943 610 943 q 472 916 507 943 q 428 843 438 889 l 288 843 z "},"Ȑ":{"ha":1021,"x_min":40,"x_max":1011,"o":"m 40 0 l 235 972 l 631 972 q 912 893 813 972 q 1011 671 1011 814 q 953 459 1011 549 q 790 321 896 369 q 539 272 683 272 l 222 272 l 340 371 l 267 0 l 40 0 m 665 0 l 467 353 l 703 353 l 903 0 l 665 0 m 335 344 l 257 451 l 547 451 q 722 502 660 451 q 783 650 783 553 q 735 755 783 721 q 601 789 688 789 l 328 789 l 446 899 l 335 344 z "},"ȑ":{"ha":599,"x_min":26,"x_max":642,"o":"m 26 0 l 175 747 l 381 747 l 338 535 l 318 596 q 449 722 368 686 q 642 758 529 758 l 603 558 q 577 560 589 560 q 553 561 565 561 q 397 514 457 561 q 315 361 336 467 l 243 0 l 26 0 m 492 843 l 386 1043 l 581 1043 l 642 843 l 492 843 m 211 843 l 106 1043 l 300 1043 l 361 843 l 211 843 z "},"Ȓ":{"ha":1021,"x_min":40,"x_max":1011,"o":"m 40 0 l 235 972 l 631 972 q 912 893 813 972 q 1011 671 1011 814 q 953 459 1011 549 q 790 321 896 369 q 539 272 683 272 l 222 272 l 340 371 l 267 0 l 40 0 m 665 0 l 467 353 l 703 353 l 903 0 l 665 0 m 335 344 l 257 451 l 547 451 q 722 502 660 451 q 783 650 783 553 q 735 755 783 721 q 601 789 688 789 l 328 789 l 446 899 l 335 344 z "},"ȓ":{"ha":599,"x_min":26,"x_max":688,"o":"m 26 0 l 175 747 l 381 747 l 338 535 l 318 596 q 449 722 368 686 q 642 758 529 758 l 603 558 q 577 560 589 560 q 553 561 565 561 q 397 514 457 561 q 315 361 336 467 l 243 0 l 26 0 m 169 843 q 266 999 189 942 q 453 1056 343 1056 q 576 1029 524 1056 q 658 956 629 1003 q 682 843 688 908 l 549 843 q 522 916 551 889 q 440 943 492 943 q 354 916 389 943 q 310 843 319 889 l 169 843 z "},"Ȕ":{"ha":1094,"x_min":92,"x_max":1106,"o":"m 499 -17 q 263 39 357 -17 q 130 194 168 94 q 118 428 92 293 l 226 972 l 453 972 l 344 432 q 338 318 332 367 q 366 238 343 269 q 429 190 389 206 q 524 175 469 175 q 642 201 592 175 q 725 285 692 228 q 776 432 758 342 l 885 972 l 1106 972 l 996 418 q 828 93 953 203 q 499 -17 703 -17 z "},"ȕ":{"ha":954,"x_min":65,"x_max":928,"o":"m 346 -11 q 188 28 254 -11 q 93 144 121 68 q 88 333 65 221 l 169 747 l 386 747 l 307 347 q 320 221 290 265 q 426 176 350 176 q 562 224 507 176 q 635 368 617 271 l 711 747 l 928 747 l 779 0 l 574 0 l 615 211 l 646 147 q 514 27 593 65 q 346 -11 435 -11 m 633 843 l 528 1043 l 722 1043 l 783 843 l 633 843 m 353 843 l 247 1043 l 442 1043 l 503 843 l 353 843 z "},"Ȗ":{"ha":1094,"x_min":92,"x_max":1106,"o":"m 499 -17 q 263 39 357 -17 q 130 194 168 94 q 118 428 92 293 l 226 972 l 453 972 l 344 432 q 338 318 332 367 q 366 238 343 269 q 429 190 389 206 q 524 175 469 175 q 642 201 592 175 q 725 285 692 228 q 776 432 758 342 l 885 972 l 1106 972 l 996 418 q 828 93 953 203 q 499 -17 703 -17 z "},"ȗ":{"ha":954,"x_min":65,"x_max":928,"o":"m 346 -11 q 188 28 254 -11 q 93 144 121 68 q 88 333 65 221 l 169 747 l 386 747 l 307 347 q 320 221 290 265 q 426 176 350 176 q 562 224 507 176 q 635 368 617 271 l 711 747 l 928 747 l 779 0 l 574 0 l 615 211 l 646 147 q 514 27 593 65 q 346 -11 435 -11 m 311 843 q 408 999 331 942 q 594 1056 485 1056 q 718 1029 665 1056 q 800 956 771 1003 q 824 843 829 908 l 690 843 q 663 916 693 889 q 582 943 633 943 q 496 916 531 943 q 451 843 461 889 l 311 843 z "},"Ș":{"ha":886,"x_min":-11,"x_max":901,"o":"m 379 -17 q 226 -2 300 -17 q 91 38 151 13 q -11 92 31 63 l 81 265 q 178 210 126 233 q 288 176 231 188 q 401 164 344 164 q 509 178 464 164 q 578 217 554 192 q 603 278 603 242 q 576 332 603 311 q 508 367 550 353 q 414 396 465 382 q 310 428 363 410 q 216 476 258 447 q 147 549 174 504 q 121 660 121 593 q 176 833 121 760 q 331 948 231 907 q 565 989 431 989 q 751 967 664 989 q 901 906 839 946 l 817 733 q 693 790 761 771 q 553 808 625 808 q 441 793 488 808 q 370 751 394 778 q 346 689 346 724 q 372 633 346 654 q 440 597 397 611 q 535 568 483 582 q 638 536 586 554 q 732 490 689 518 q 801 420 775 463 q 828 314 828 378 q 772 140 828 214 q 616 24 717 65 q 379 -17 515 -17 m 226 -369 l 315 -192 l 329 -265 q 264 -246 286 -265 q 242 -196 242 -226 q 267 -128 242 -156 q 343 -101 293 -101 q 413 -123 390 -101 q 436 -175 436 -144 q 427 -218 436 -197 q 393 -274 418 -239 l 325 -369 l 226 -369 z "},"ș":{"ha":738,"x_min":-21,"x_max":724,"o":"m 299 -11 q 113 11 200 -11 q -21 67 26 33 l 63 224 q 181 172 111 192 q 322 153 251 153 q 433 172 399 153 q 468 225 468 192 q 439 265 468 251 q 365 286 410 278 q 270 306 321 294 q 174 337 219 317 q 101 395 129 357 q 72 496 72 433 q 120 639 72 581 q 253 728 168 697 q 447 758 339 758 q 599 742 525 758 q 724 696 672 725 l 646 538 q 535 583 593 571 q 425 594 478 594 q 315 573 349 594 q 281 521 281 551 q 309 480 281 494 q 382 456 338 465 q 478 437 426 447 q 574 406 529 426 q 647 349 618 386 q 675 250 675 313 q 626 106 675 165 q 492 18 576 47 q 299 -11 407 -11 m 139 -369 l 228 -192 l 242 -265 q 176 -246 199 -265 q 154 -196 154 -226 q 180 -128 154 -156 q 256 -101 206 -101 q 326 -123 303 -101 q 349 -175 349 -144 q 340 -218 349 -197 q 306 -274 331 -239 l 238 -369 l 139 -369 z "},"Ț":{"ha":858,"x_min":88,"x_max":972,"o":"m 242 0 l 399 789 l 88 789 l 125 972 l 972 972 l 935 789 l 625 789 l 467 0 l 242 0 m 206 -369 l 294 -192 l 308 -265 q 243 -246 265 -265 q 221 -196 221 -226 q 247 -128 221 -156 q 322 -101 272 -101 q 392 -123 369 -101 q 415 -175 415 -144 q 406 -218 415 -197 q 372 -274 397 -239 l 304 -369 l 206 -369 z "},"ț":{"ha":604,"x_min":49,"x_max":600,"o":"m 331 -11 q 193 22 250 -11 q 112 116 136 54 q 104 263 88 178 l 233 913 l 450 913 l 321 264 q 331 189 313 217 q 397 161 349 161 q 442 168 419 161 q 485 188 465 175 l 517 33 q 428 -1 476 8 q 331 -11 379 -11 m 49 564 l 82 731 l 600 731 l 567 564 l 49 564 m 140 -369 l 229 -192 l 243 -265 q 178 -246 200 -265 q 156 -196 156 -226 q 181 -128 156 -156 q 257 -101 207 -101 q 327 -123 304 -101 q 350 -175 350 -144 q 341 -218 350 -197 q 307 -274 332 -239 l 239 -369 l 140 -369 z "},"Ȟ":{"ha":1122,"x_min":40,"x_max":1126,"o":"m 901 972 l 1126 972 l 932 0 l 707 0 l 901 972 m 267 0 l 40 0 l 235 972 l 461 972 l 267 0 m 804 399 l 331 399 l 368 589 l 842 589 l 804 399 z "},"ȟ":{"ha":960,"x_min":26,"x_max":894,"o":"m 610 758 q 771 719 704 758 q 866 603 838 679 q 872 414 894 526 l 789 0 l 572 0 l 653 400 q 640 526 669 482 q 531 571 610 571 q 394 524 449 571 q 318 379 339 476 l 243 0 l 26 0 l 232 1031 l 449 1031 l 350 536 l 307 600 q 441 720 361 682 q 610 758 521 758 m 268 1126 l 113 1326 l 267 1326 l 438 1161 l 294 1161 l 508 1326 l 669 1326 l 460 1126 l 268 1126 z "},"Ȫ":{"ha":1172,"x_min":71,"x_max":1146,"o":"m 544 -17 q 291 37 397 -17 q 128 185 185 90 q 71 406 71 281 q 114 637 71 531 q 237 822 157 743 q 427 944 317 900 q 672 989 538 989 q 926 935 819 989 q 1089 787 1032 882 q 1146 567 1146 692 q 1103 335 1146 442 q 980 151 1060 229 q 790 28 900 72 q 544 -17 679 -17 m 564 175 q 712 205 646 175 q 824 288 778 235 q 894 409 869 340 q 918 554 918 478 q 888 681 918 626 q 798 767 857 736 q 653 797 739 797 q 506 767 571 797 q 394 685 440 738 q 323 563 347 632 q 299 418 299 494 q 330 291 299 346 q 420 206 361 236 q 564 175 479 175 z "},"ȫ":{"ha":908,"x_min":40,"x_max":872,"o":"m 417 -11 q 218 31 303 -11 q 87 147 133 72 q 40 324 40 222 q 99 547 40 449 q 259 701 157 644 q 492 758 361 758 q 691 717 607 758 q 822 601 775 675 q 868 424 868 526 q 810 201 868 300 q 650 46 751 103 q 417 -11 549 -11 m 431 167 q 544 198 494 167 q 621 285 593 229 q 649 414 649 340 q 604 535 649 489 q 479 581 560 581 q 366 549 415 581 q 288 463 317 518 q 260 333 260 407 q 304 212 260 257 q 431 167 349 167 z "},"Ȭ":{"ha":1172,"x_min":71,"x_max":1146,"o":"m 544 -17 q 291 37 397 -17 q 128 185 185 90 q 71 406 71 281 q 114 637 71 531 q 237 822 157 743 q 427 944 317 900 q 672 989 538 989 q 926 935 819 989 q 1089 787 1032 882 q 1146 567 1146 692 q 1103 335 1146 442 q 980 151 1060 229 q 790 28 900 72 q 544 -17 679 -17 m 564 175 q 712 205 646 175 q 824 288 778 235 q 894 409 869 340 q 918 554 918 478 q 888 681 918 626 q 798 767 857 736 q 653 797 739 797 q 506 767 571 797 q 394 685 440 738 q 323 563 347 632 q 299 418 299 494 q 330 291 299 346 q 420 206 361 236 q 564 175 479 175 z "},"ȭ":{"ha":908,"x_min":40,"x_max":872,"o":"m 417 -11 q 218 31 303 -11 q 87 147 133 72 q 40 324 40 222 q 99 547 40 449 q 259 701 157 644 q 492 758 361 758 q 691 717 607 758 q 822 601 775 675 q 868 424 868 526 q 810 201 868 300 q 650 46 751 103 q 417 -11 549 -11 m 431 167 q 544 198 494 167 q 621 285 593 229 q 649 414 649 340 q 604 535 649 489 q 479 581 560 581 q 366 549 415 581 q 288 463 317 518 q 260 333 260 407 q 304 212 260 257 q 431 167 349 167 z "},"Ȱ":{"ha":1172,"x_min":71,"x_max":1146,"o":"m 544 -17 q 291 37 397 -17 q 128 185 185 90 q 71 406 71 281 q 114 637 71 531 q 237 822 157 743 q 427 944 317 900 q 672 989 538 989 q 926 935 819 989 q 1089 787 1032 882 q 1146 567 1146 692 q 1103 335 1146 442 q 980 151 1060 229 q 790 28 900 72 q 544 -17 679 -17 m 564 175 q 712 205 646 175 q 824 288 778 235 q 894 409 869 340 q 918 554 918 478 q 888 681 918 626 q 798 767 857 736 q 653 797 739 797 q 506 767 571 797 q 394 685 440 738 q 323 563 347 632 q 299 418 299 494 q 330 291 299 346 q 420 206 361 236 q 564 175 479 175 z "},"ȱ":{"ha":908,"x_min":40,"x_max":875,"o":"m 417 -11 q 218 31 303 -11 q 87 147 133 72 q 40 324 40 222 q 99 547 40 449 q 259 701 157 644 q 492 758 361 758 q 691 717 607 758 q 822 601 775 675 q 868 424 868 526 q 810 201 868 300 q 650 46 751 103 q 417 -11 549 -11 m 431 167 q 544 198 494 167 q 621 285 593 229 q 649 414 649 340 q 604 535 649 489 q 479 581 560 581 q 366 549 415 581 q 288 463 317 518 q 260 333 260 407 q 304 212 260 257 q 431 167 349 167 z "},"Ȳ":{"ha":939,"x_min":100,"x_max":1079,"o":"m 282 0 l 361 400 l 386 258 l 100 972 l 325 972 l 543 426 l 407 425 l 847 972 l 1079 972 l 510 257 l 586 400 l 507 0 l 282 0 z "},"ȳ":{"ha":831,"x_min":-125,"x_max":917,"o":"m 78 -281 q -35 -262 21 -281 q -125 -215 -92 -244 l -25 -60 q 28 -93 -1 -81 q 94 -106 58 -106 q 167 -85 136 -106 q 229 -14 199 -64 l 289 81 l 308 103 l 703 747 l 917 747 l 419 -50 q 313 -188 364 -137 q 206 -260 263 -239 q 78 -281 150 -281 m 243 -29 l 64 747 l 281 747 l 417 122 l 243 -29 m 246 882 l 269 1004 l 782 1004 l 758 882 l 246 882 z "},"ȷ":{"ha":425,"x_min":-250,"x_max":400,"o":"m -71 -281 q -169 -270 -124 -281 q -250 -239 -214 -260 l -164 -82 q -74 -108 -126 -108 q -3 -82 -29 -108 q 33 1 22 -56 l 183 747 l 400 747 l 251 7 q -71 -281 194 -281 z "},"ə":{"ha":872,"x_min":35,"x_max":831,"o":"m 449 758 q 651 717 565 758 q 784 600 738 675 q 831 424 831 525 q 774 201 831 299 q 619 46 718 103 q 390 -11 521 -11 q 202 30 282 -11 q 78 144 122 71 q 35 318 35 218 q 38 377 35 349 q 47 432 42 406 l 665 432 l 643 306 l 149 306 l 239 344 q 246 240 228 283 q 304 174 264 197 q 400 151 344 151 q 520 185 471 151 q 594 280 569 219 q 619 414 619 340 q 572 542 619 500 q 426 585 525 585 q 317 567 369 585 q 226 515 265 550 l 136 658 q 283 734 201 710 q 449 758 364 758 z "},"ʒ":{"ha":774,"x_min":-128,"x_max":768,"o":"m 228 -282 q 40 -253 133 -282 q -128 -167 -53 -225 l -26 -1 q 101 -70 31 -47 q 240 -93 172 -93 q 347 -76 299 -93 q 425 -24 396 -58 q 454 64 454 10 q 417 150 454 118 q 299 182 381 182 l 192 182 l 218 325 l 557 649 l 560 567 l 54 567 l 90 747 l 768 747 l 743 603 l 404 278 l 307 338 l 357 338 q 596 270 513 338 q 679 78 679 203 q 642 -76 679 -10 q 541 -189 604 -143 q 397 -258 478 -235 q 228 -282 315 -282 z "},"ʹ":{"ha":319,"x_min":124,"x_max":372,"o":"m 124 578 l 188 972 l 372 972 l 279 578 l 124 578 z "},"ʺ":{"ha":607,"x_min":125,"x_max":660,"o":"m 411 578 l 474 972 l 660 972 l 567 578 l 411 578 m 125 578 l 188 972 l 374 972 l 281 578 l 125 578 z "},"ʻ":{"ha":399,"x_min":124,"x_max":446,"o":"m 446 1267 l 289 933 l 267 1064 q 358 1028 322 1064 q 394 939 394 993 q 352 834 394 874 q 250 794 310 794 q 159 829 194 794 q 124 919 124 864 q 135 977 124 950 q 171 1043 146 1004 l 310 1267 l 446 1267 z "},"ʼ":{"ha":389,"x_min":114,"x_max":436,"o":"m 114 569 l 271 903 l 293 772 q 201 808 238 772 q 165 897 165 843 q 208 1002 165 963 q 310 1042 251 1042 q 401 1007 365 1042 q 436 917 436 972 q 426 860 436 886 q 389 793 415 833 l 251 569 l 114 569 z "},"ʾ":{"ha":833,"x_min":507,"x_max":713,"o":"m 524 911 q 531 910 526 910 q 539 910 535 910 q 599 933 575 910 q 622 994 622 957 q 604 1047 622 1025 q 557 1075 586 1068 l 572 1158 q 673 1101 633 1147 q 713 994 713 1056 q 690 909 713 947 q 628 848 668 871 q 539 825 589 825 q 523 826 531 825 q 507 828 515 826 l 524 911 z "},"ʿ":{"ha":833,"x_min":365,"x_max":572,"o":"m 556 1072 q 548 1074 551 1074 q 540 1074 544 1074 q 481 1050 504 1074 q 457 989 457 1026 q 475 937 457 958 q 522 908 493 915 l 507 825 q 406 883 446 836 q 365 989 365 929 q 389 1074 365 1036 q 452 1135 413 1113 q 540 1158 492 1158 q 556 1158 549 1158 q 572 1156 563 1158 l 556 1072 z "},"ˆ":{"ha":833,"x_min":232,"x_max":790,"o":"m 232 843 l 443 1043 l 633 1043 l 790 843 l 636 843 l 465 1010 l 608 1010 l 394 843 l 232 843 z "},"ˇ":{"ha":833,"x_min":264,"x_max":821,"o":"m 419 843 l 264 1043 l 418 1043 l 589 878 l 446 878 l 660 1043 l 821 1043 l 611 843 l 419 843 z "},"ˈ":{"ha":258,"x_min":124,"x_max":321,"o":"m 124 700 l 178 972 l 321 972 l 265 700 l 124 700 z "},"ˉ":{"ha":833,"x_min":263,"x_max":800,"o":"m 263 882 l 286 1004 l 800 1004 l 776 882 l 263 882 z "},"ˊ":{"ha":833,"x_min":382,"x_max":829,"o":"m 382 843 l 590 1043 l 829 1043 l 557 843 l 382 843 z "},"ˋ":{"ha":833,"x_min":257,"x_max":636,"o":"m 468 843 l 257 1043 l 489 1043 l 636 843 l 468 843 z "},"ˌ":{"ha":263,"x_min":-79,"x_max":121,"o":"m -79 -315 l -25 -42 l 121 -42 l 67 -315 l -79 -315 z "},"˘":{"ha":833,"x_min":289,"x_max":806,"o":"m 524 832 q 400 858 454 832 q 317 931 346 883 q 294 1043 289 979 l 426 1043 q 456 971 425 997 q 536 944 486 944 q 622 971 588 944 q 665 1043 657 997 l 806 1043 q 711 889 788 946 q 524 832 635 832 z "},"˙":{"ha":833,"x_min":418,"x_max":653,"o":"m 528 850 q 448 879 478 850 q 418 953 418 908 q 455 1048 418 1011 q 544 1085 492 1085 q 623 1056 593 1085 q 653 981 653 1026 q 617 886 653 922 q 528 850 581 850 z "},"˚":{"ha":833,"x_min":367,"x_max":713,"o":"m 539 822 q 451 845 490 822 q 390 906 413 868 q 367 990 367 943 q 390 1074 367 1036 q 452 1135 413 1113 q 539 1158 492 1158 q 628 1135 589 1158 q 690 1074 667 1113 q 713 990 713 1036 q 690 906 713 943 q 628 845 667 868 q 539 822 589 822 m 539 906 q 600 929 576 906 q 624 989 624 953 q 600 1051 624 1026 q 539 1075 576 1075 q 480 1051 504 1075 q 456 990 456 1028 q 479 929 456 953 q 539 906 503 906 z "},"˛":{"ha":833,"x_min":8,"x_max":343,"o":"m 182 -322 q 57 -286 106 -322 q 8 -185 8 -250 q 40 -85 8 -131 q 130 -4 72 -40 q 264 60 188 32 l 343 0 q 233 -49 275 -24 q 171 -101 190 -75 q 151 -154 151 -126 q 170 -197 151 -182 q 218 -212 189 -212 q 265 -206 242 -212 q 307 -192 289 -200 l 322 -290 q 260 -313 294 -304 q 182 -322 225 -322 z "},"˜":{"ha":833,"x_min":250,"x_max":811,"o":"m 628 839 q 565 852 592 839 q 516 883 538 865 q 475 913 494 900 q 433 926 456 926 q 386 906 406 926 q 360 849 367 885 l 250 849 q 314 999 265 947 q 435 1051 363 1051 q 498 1038 471 1051 q 547 1007 525 1025 q 588 976 568 989 q 628 963 607 963 q 676 984 657 963 q 701 1038 696 1006 l 811 1038 q 748 891 796 943 q 628 839 700 839 z "},"˝":{"ha":833,"x_min":289,"x_max":900,"o":"m 571 843 l 692 1043 l 900 1043 l 732 843 l 571 843 m 289 843 l 411 1043 l 619 1043 l 453 843 l 289 843 z "},"̀":{"ha":0,"x_min":257,"x_max":636,"o":"m 468 843 l 257 1043 l 489 1043 l 636 843 l 468 843 z "},"́":{"ha":0,"x_min":382,"x_max":829,"o":"m 382 843 l 590 1043 l 829 1043 l 557 843 l 382 843 z "},"̂":{"ha":0,"x_min":232,"x_max":790,"o":"m 232 843 l 443 1043 l 633 1043 l 790 843 l 636 843 l 465 1010 l 608 1010 l 394 843 l 232 843 z "},"̃":{"ha":0,"x_min":250,"x_max":811,"o":"m 628 839 q 565 852 592 839 q 516 883 538 865 q 475 913 494 900 q 433 926 456 926 q 386 906 406 926 q 360 849 367 885 l 250 849 q 314 999 265 947 q 435 1051 363 1051 q 498 1038 471 1051 q 547 1007 525 1025 q 588 976 568 989 q 628 963 607 963 q 676 984 657 963 q 701 1038 696 1006 l 811 1038 q 748 891 796 943 q 628 839 700 839 z "},"̄":{"ha":0,"x_min":263,"x_max":799,"o":"m 263 882 l 286 1004 l 799 1004 l 775 882 l 263 882 z "},"̆":{"ha":0,"x_min":289,"x_max":806,"o":"m 524 832 q 400 858 454 832 q 317 931 346 883 q 294 1043 289 979 l 426 1043 q 456 971 425 997 q 536 944 486 944 q 622 971 588 944 q 665 1043 657 997 l 806 1043 q 711 889 788 946 q 524 832 635 832 z "},"̇":{"ha":0,"x_min":418,"x_max":653,"o":"m 528 850 q 448 879 478 850 q 418 953 418 908 q 455 1048 418 1011 q 544 1085 492 1085 q 623 1056 593 1085 q 653 981 653 1026 q 617 886 653 922 q 528 850 581 850 z "},"̈":{"ha":0,"x_min":293,"x_max":768,"o":"m 665 850 q 601 874 626 850 q 575 936 575 897 q 606 1013 575 983 q 678 1042 636 1042 q 742 1018 715 1042 q 768 956 768 994 q 737 879 768 908 q 665 850 706 850 m 383 850 q 319 874 346 850 q 293 936 293 897 q 324 1013 293 983 q 396 1042 356 1042 q 461 1018 435 1042 q 488 956 488 994 q 456 879 488 908 q 383 850 424 850 z "},"̉":{"ha":0,"x_min":406,"x_max":713,"o":"m 558 828 l 501 901 q 567 944 549 921 q 585 994 585 968 q 569 1032 585 1018 q 526 1046 554 1046 q 443 1018 485 1046 l 406 1107 q 480 1142 439 1131 q 563 1153 521 1153 q 672 1118 632 1153 q 713 1024 713 1083 q 673 909 713 957 q 558 828 633 861 z "},"̊":{"ha":0,"x_min":367,"x_max":713,"o":"m 539 822 q 451 845 490 822 q 390 906 413 868 q 367 990 367 943 q 390 1074 367 1036 q 452 1135 413 1113 q 539 1158 492 1158 q 628 1135 589 1158 q 690 1074 667 1113 q 713 990 713 1036 q 690 906 713 943 q 628 845 667 868 q 539 822 589 822 m 539 906 q 600 929 576 906 q 624 989 624 953 q 600 1051 624 1026 q 539 1075 576 1075 q 480 1051 504 1075 q 456 990 456 1028 q 479 929 456 953 q 539 906 503 906 z "},"̋":{"ha":0,"x_min":289,"x_max":900,"o":"m 571 843 l 692 1043 l 900 1043 l 732 843 l 571 843 m 289 843 l 411 1043 l 619 1043 l 453 843 l 289 843 z "},"̌":{"ha":0,"x_min":264,"x_max":821,"o":"m 419 843 l 264 1043 l 418 1043 l 589 878 l 446 878 l 660 1043 l 821 1043 l 611 843 l 419 843 z "},"̏":{"ha":0,"x_min":190,"x_max":726,"o":"m 576 843 l 471 1043 l 665 1043 l 726 843 l 576 843 m 296 843 l 190 1043 l 385 1043 l 446 843 l 296 843 z "},"̑":{"ha":0,"x_min":254,"x_max":772,"o":"m 254 843 q 351 999 274 942 q 538 1056 428 1056 q 661 1029 608 1056 q 743 956 714 1003 q 767 843 772 908 l 633 843 q 606 916 636 889 q 525 943 576 943 q 439 916 474 943 q 394 843 404 889 l 254 843 z "},"̒":{"ha":0,"x_min":414,"x_max":667,"o":"m 518 832 q 440 853 467 832 q 414 907 414 875 q 424 949 414 929 q 461 1004 433 968 l 550 1129 l 667 1129 l 554 922 l 536 996 q 610 978 585 996 q 636 926 636 960 q 607 860 636 888 q 518 832 578 832 z "},"̛":{"ha":0,"x_min":458,"x_max":725,"o":"m 458 603 l 458 747 l 497 747 q 558 772 535 747 q 581 835 581 796 q 573 881 581 860 q 553 918 565 903 l 681 965 q 713 903 701 938 q 725 826 725 868 q 696 707 725 757 q 615 630 667 657 q 492 603 563 603 l 458 603 z "},"̣":{"ha":0,"x_min":206,"x_max":400,"o":"m 294 -292 q 231 -268 256 -292 q 206 -206 206 -244 q 238 -131 206 -161 q 311 -101 269 -101 q 374 -125 349 -101 q 400 -185 400 -149 q 369 -263 400 -235 q 294 -292 339 -292 z "},"̤":{"ha":0,"x_min":78,"x_max":529,"o":"m 431 -283 q 367 -260 392 -283 q 343 -201 343 -236 q 374 -129 343 -157 q 443 -101 404 -101 q 503 -124 478 -101 q 529 -182 529 -147 q 501 -257 529 -231 q 431 -283 472 -283 m 164 -283 q 102 -260 126 -283 q 78 -201 78 -236 q 108 -129 78 -157 q 176 -101 138 -101 q 238 -124 213 -101 q 264 -182 264 -147 q 235 -257 264 -231 q 164 -283 206 -283 z "},"̦":{"ha":0,"x_min":193,"x_max":403,"o":"m 193 -369 l 282 -192 l 296 -265 q 231 -246 253 -265 q 208 -196 208 -226 q 234 -128 208 -156 q 310 -101 260 -101 q 380 -123 357 -101 q 403 -175 403 -144 q 394 -218 403 -197 q 360 -274 385 -239 l 292 -369 l 193 -369 z "},"̧":{"ha":0,"x_min":111,"x_max":469,"o":"m 243 -322 q 170 -314 204 -322 q 111 -293 136 -306 l 160 -200 q 203 -215 179 -210 q 253 -221 226 -221 q 310 -208 292 -221 q 329 -175 329 -194 q 317 -146 331 -156 q 269 -136 303 -136 l 221 -136 l 288 11 l 403 11 l 368 -69 q 444 -106 419 -76 q 465 -176 469 -136 q 399 -283 460 -244 q 243 -322 339 -322 z "},"̨":{"ha":0,"x_min":8,"x_max":343,"o":"m 182 -322 q 57 -286 106 -322 q 8 -185 8 -250 q 40 -85 8 -131 q 130 -4 72 -40 q 264 60 188 32 l 343 0 q 233 -49 275 -24 q 171 -101 190 -75 q 151 -154 151 -126 q 170 -197 151 -182 q 218 -212 189 -212 q 265 -206 242 -212 q 307 -192 289 -200 l 322 -290 q 260 -313 294 -304 q 182 -322 225 -322 z "},"̮":{"ha":0,"x_min":61,"x_max":576,"o":"m 303 -301 q 174 -275 229 -301 q 90 -204 118 -249 q 67 -103 61 -160 l 199 -103 q 227 -171 197 -146 q 308 -196 257 -196 q 394 -172 360 -196 q 438 -103 429 -147 l 576 -103 q 484 -249 560 -196 q 303 -301 408 -301 z "},"̱":{"ha":0,"x_min":36,"x_max":572,"o":"m 36 -253 l 58 -132 l 572 -132 l 550 -253 l 36 -253 z "},"̵":{"ha":0,"x_min":165,"x_max":761,"o":"m 165 543 l 190 668 l 761 668 l 738 543 l 165 543 z "},"̶":{"ha":0,"x_min":101,"x_max":1288,"o":"m 101 529 l 129 679 l 1288 679 l 1258 529 l 101 529 z "},"̷":{"ha":0,"x_min":89,"x_max":675,"o":"m 157 321 l 89 432 l 607 771 l 675 660 l 157 321 z "},"̸":{"ha":0,"x_min":-11,"x_max":896,"o":"m -11 -97 l 782 840 l 896 840 l 103 -97 l -11 -97 z "},"Δ":{"ha":1064,"x_min":-87,"x_max":1003,"o":"m 763 972 l 1003 0 l -87 0 l 540 972 l 763 972 m 192 78 l 144 183 l 836 183 l 771 78 l 590 865 l 681 865 l 192 78 z "},"Ω":{"ha":1235,"x_min":-61,"x_max":1183,"o":"m -61 0 l -25 183 l 210 183 q 135 307 158 240 q 113 458 113 374 q 158 675 113 578 q 284 842 203 772 q 474 951 365 913 q 710 989 583 989 q 951 941 844 989 q 1121 805 1058 893 q 1183 593 1183 717 q 1167 466 1183 526 q 1121 353 1150 406 q 1053 258 1092 300 q 971 183 1014 215 l 1183 183 l 1147 0 l 639 0 l 672 171 q 783 233 732 196 q 873 322 835 271 q 932 433 911 372 q 953 564 953 494 q 878 738 953 678 q 686 797 804 797 q 497 751 576 797 q 376 626 418 706 q 333 444 333 547 q 350 333 333 385 q 399 242 367 282 q 482 171 432 203 l 447 0 l -61 0 z "},"μ":{"ha":958,"x_min":-28,"x_max":933,"o":"m -28 -269 l 175 747 l 392 747 l 313 347 q 326 221 296 265 q 433 176 356 176 q 567 224 513 176 q 640 368 621 271 l 717 747 l 933 747 l 785 0 l 589 0 l 631 211 l 657 163 q 585 63 628 101 q 494 6 542 24 q 400 -11 446 -11 q 281 14 328 -11 q 207 90 233 39 l 275 158 l 189 -269 l -28 -269 z "},"π":{"ha":1011,"x_min":6,"x_max":1069,"o":"m 33 354 q 13 409 19 378 q 6 472 6 440 q 44 619 6 557 q 156 714 83 681 q 329 747 229 747 l 1069 747 l 1038 586 l 310 586 q 212 556 244 586 q 179 471 179 525 q 183 434 179 453 q 196 397 188 415 l 33 354 m 161 0 l 350 613 l 546 613 l 357 0 l 161 0 m 553 0 l 675 613 l 871 613 l 747 0 l 553 0 z "},"Ѐ":{"ha":935,"x_min":46,"x_max":975,"o":"z "},"Ё":{"ha":935,"x_min":46,"x_max":975,"o":"z "},"Ђ":{"ha":1181,"x_min":104,"x_max":1129,"o":"m 257 0 l 422 840 l 463 789 l 104 789 l 142 972 l 1025 972 l 989 789 l 583 789 l 644 840 l 481 0 l 257 0 m 618 3 l 661 175 q 749 170 706 163 q 828 200 793 178 q 884 255 863 222 q 906 328 906 288 q 858 408 906 383 q 726 424 811 433 q 529 369 642 415 l 556 561 q 790 604 685 600 q 971 580 894 608 q 1088 492 1047 551 q 1129 344 1129 432 q 1089 178 1129 251 q 978 58 1049 106 q 815 -4 907 11 q 618 3 722 -19 z "},"Ѓ":{"ha":826,"x_min":47,"x_max":926,"o":"m 47 0 l 242 972 l 926 972 l 889 789 l 372 789 l 433 840 l 269 0 l 47 0 z "},"Є":{"ha":996,"x_min":71,"x_max":1057,"o":"m 729 567 l 696 394 l 215 394 l 249 567 l 729 567 m 489 -17 q 265 36 360 -17 q 121 183 171 89 q 71 397 71 276 q 121 631 71 522 q 256 819 171 739 q 452 944 342 900 q 685 989 563 989 q 901 946 804 989 q 1057 815 999 903 l 888 682 q 792 769 849 740 q 660 797 735 797 q 521 769 586 797 q 406 690 456 740 q 329 571 357 639 q 301 425 301 503 q 330 294 301 350 q 411 206 358 238 q 536 175 464 175 q 679 203 611 175 q 808 290 747 232 l 925 157 q 728 28 842 74 q 489 -17 615 -17 z "},"Ѕ":{"ha":906,"x_min":1,"x_max":914,"o":"m 392 -17 q 238 -2 313 -17 q 103 38 164 13 q 1 92 43 63 l 93 265 q 191 210 139 233 q 300 176 243 188 q 414 164 357 164 q 522 178 476 164 q 591 217 567 192 q 615 278 615 242 q 589 332 615 311 q 520 367 563 353 q 426 396 478 382 q 323 428 375 410 q 228 476 271 447 q 160 549 186 504 q 133 660 133 593 q 188 833 133 760 q 343 948 243 907 q 578 989 443 989 q 764 967 676 989 q 914 906 851 946 l 829 733 q 706 790 774 771 q 565 808 638 808 q 453 793 500 808 q 383 751 407 778 q 358 689 358 724 q 384 633 358 654 q 453 597 410 611 q 547 568 496 582 q 650 536 599 554 q 744 490 701 518 q 814 420 788 463 q 840 314 840 378 q 785 140 840 214 q 628 24 729 65 q 392 -17 528 -17 z "},"І":{"ha":456,"x_min":40,"x_max":461,"o":"m 40 0 l 235 972 l 461 972 l 267 0 l 40 0 z "},"Ї":{"ha":456,"x_min":40,"x_max":621,"o":"m 40 0 l 235 972 l 461 972 l 267 0 l 40 0 z "},"Ј":{"ha":789,"x_min":-32,"x_max":801,"o":"m 285 -17 q 93 21 174 -17 q -32 129 13 58 l 117 271 q 189 195 146 222 q 288 168 232 168 q 392 204 351 168 q 449 319 433 240 l 542 792 l 200 792 l 238 972 l 801 972 l 672 331 q 597 127 647 203 q 468 17 546 51 q 285 -17 390 -17 z "},"Љ":{"ha":1651,"x_min":-56,"x_max":1606,"o":"m 56 -17 q 0 -12 26 -17 q -56 -1 -26 -8 l -4 188 q 33 183 14 183 q 125 221 86 183 q 198 345 164 258 q 265 578 232 432 l 360 972 l 1107 972 l 913 0 l 690 0 l 858 840 l 899 789 l 469 789 l 528 843 l 460 554 q 384 284 422 393 q 299 109 346 175 q 193 13 253 43 q 56 -17 133 -17 m 1282 653 q 1606 388 1606 653 q 1547 183 1606 271 q 1381 48 1489 96 q 1129 0 1274 0 l 690 0 l 885 972 l 1107 972 l 1043 653 l 1282 653 m 1149 167 q 1267 191 1217 167 q 1346 260 1318 215 q 1374 363 1374 304 q 1337 457 1374 428 q 1219 486 1300 486 l 1010 486 l 946 167 l 1149 167 z "},"Њ":{"ha":1629,"x_min":47,"x_max":1583,"o":"m 47 0 l 242 972 l 464 972 l 390 607 l 818 607 l 890 972 l 1114 972 l 919 0 l 696 0 l 781 424 l 353 424 l 269 0 l 47 0 m 942 114 l 903 167 l 1149 167 q 1256 188 1211 167 q 1326 247 1301 208 q 1350 336 1350 285 q 1313 419 1350 390 q 1206 447 1275 447 l 958 447 l 1019 500 l 942 114 m 696 0 l 890 972 l 1114 972 l 1029 553 l 992 614 l 1288 614 q 1508 551 1432 614 q 1583 375 1583 489 q 1528 176 1583 261 q 1374 46 1474 92 q 1140 0 1275 0 l 696 0 z "},"Ћ":{"ha":1189,"x_min":104,"x_max":1144,"o":"m 256 0 l 421 840 l 461 789 l 104 789 l 140 972 l 1014 972 l 978 789 l 582 789 l 643 840 l 478 0 l 256 0 m 550 543 q 694 581 626 569 q 818 592 761 592 q 1065 500 986 592 q 1110 235 1144 408 l 1064 0 l 840 0 l 886 222 q 870 356 903 311 q 754 401 838 401 q 648 385 704 401 q 529 342 592 369 l 550 543 z "},"Ќ":{"ha":1026,"x_min":47,"x_max":1124,"o":"m 47 0 l 242 972 l 467 972 l 272 0 l 47 0 m 285 393 l 321 579 l 661 579 l 625 393 l 285 393 m 692 0 l 482 469 l 669 574 l 933 0 l 692 0 m 675 463 l 458 488 l 871 972 l 1124 972 l 675 463 z "},"Ѝ":{"ha":1140,"x_min":47,"x_max":1139,"o":"m 47 0 l 242 972 l 464 972 l 335 339 l 925 972 l 1139 972 l 944 0 l 722 0 l 853 632 l 261 0 l 47 0 z "},"Ў":{"ha":1007,"x_min":32,"x_max":1118,"o":"m 107 186 q 199 171 157 169 q 281 192 242 172 q 356 254 321 213 l 417 318 l 442 342 l 893 972 l 1118 972 l 551 196 q 390 40 476 93 q 213 -17 304 -12 q 32 19 121 -21 l 107 186 m 413 154 l 133 972 l 368 972 l 563 319 l 413 154 m 629 1032 q 438 1086 499 1032 q 393 1246 378 1140 l 536 1246 q 557 1168 529 1196 q 640 1140 585 1140 q 730 1167 694 1140 q 775 1246 765 1193 l 921 1246 q 831 1084 903 1136 q 629 1032 758 1032 z "},"Џ":{"ha":1122,"x_min":47,"x_max":1121,"o":"m 1121 972 l 926 0 l 590 0 l 549 -206 l 342 -206 l 382 0 l 47 0 l 242 972 l 464 972 l 306 183 l 740 183 l 897 972 l 1121 972 z "},"А":{"ha":1110,"x_min":-64,"x_max":1026,"o":"m -64 0 l 564 972 l 788 972 l 1026 0 l 801 0 l 613 861 l 701 861 l 176 0 l -64 0 m 196 208 l 288 379 l 789 379 l 815 208 l 196 208 z "},"Б":{"ha":1029,"x_min":47,"x_max":1025,"o":"m 47 0 l 242 972 l 1025 972 l 988 793 l 426 793 l 388 593 l 658 593 q 888 527 808 593 q 968 336 968 461 q 913 157 968 232 q 754 41 857 82 q 507 0 651 0 l 47 0 m 303 167 l 528 167 q 681 208 625 167 q 736 319 736 249 q 698 401 736 375 q 579 428 660 428 l 354 428 l 303 167 z "},"В":{"ha":1063,"x_min":40,"x_max":1031,"o":"m 40 0 l 235 972 l 704 972 q 947 915 863 972 q 1031 750 1031 858 q 983 596 1031 658 q 856 501 935 533 q 683 469 776 469 l 719 525 q 915 469 842 525 q 988 307 988 413 q 931 135 988 204 q 776 33 875 67 q 550 0 678 0 l 40 0 m 299 169 l 564 169 q 710 205 657 169 q 764 310 764 240 q 724 387 764 364 q 618 410 685 410 l 321 410 l 354 574 l 607 574 q 708 589 665 574 q 772 635 750 604 q 794 711 794 667 q 757 781 794 760 q 651 803 719 803 l 424 803 l 299 169 z "},"Г":{"ha":826,"x_min":47,"x_max":926,"o":"m 47 0 l 242 972 l 926 972 l 889 789 l 372 789 l 433 840 l 269 0 l 47 0 z "},"Д":{"ha":1153,"x_min":-94,"x_max":1107,"o":"m 710 100 l 847 789 l 515 789 l 479 639 q 435 469 458 549 q 386 324 413 389 q 327 213 360 258 q 254 147 294 167 l 6 183 q 97 219 56 182 q 173 324 139 257 q 235 482 207 392 q 289 676 264 572 l 360 972 l 1107 972 l 932 100 l 710 100 m -94 -201 l -17 183 l 1086 183 l 1008 -201 l 800 -201 l 840 0 l 154 0 l 114 -201 l -94 -201 z "},"Е":{"ha":935,"x_min":46,"x_max":975,"o":"m 369 581 l 838 581 l 803 406 l 335 406 l 369 581 m 306 181 l 836 181 l 799 0 l 46 0 l 240 972 l 975 972 l 938 792 l 428 792 l 306 181 z "},"Ж":{"ha":1499,"x_min":-58,"x_max":1586,"o":"m 1150 0 l 982 468 l 1189 578 l 1406 0 l 1150 0 m 800 392 l 838 579 l 1140 579 l 1103 392 l 800 392 m 1185 461 l 976 486 l 1343 972 l 1586 972 l 1185 461 m 208 0 l -58 0 l 388 578 l 561 468 l 208 0 m 788 0 l 567 0 l 761 972 l 982 972 l 788 0 m 711 392 l 407 392 l 444 579 l 749 579 l 711 392 m 360 461 l 161 972 l 393 972 l 564 486 l 360 461 z "},"З":{"ha":913,"x_min":-26,"x_max":885,"o":"m 350 -17 q 155 9 253 -17 q -26 90 57 35 l 76 251 q 209 190 136 210 q 353 171 282 171 q 451 181 404 171 q 535 210 499 190 q 592 257 571 229 q 613 319 613 285 q 576 390 613 365 q 468 414 540 414 l 228 414 l 261 583 l 486 583 q 573 599 536 583 q 630 640 610 614 q 650 700 650 665 q 627 759 650 735 q 565 795 604 783 q 474 807 525 807 q 343 790 414 807 q 200 738 272 774 l 167 913 q 340 971 253 951 q 508 990 428 990 q 699 960 614 990 q 834 874 783 931 q 885 740 885 818 q 840 607 885 667 q 719 513 796 547 q 549 478 643 478 l 564 528 q 707 499 646 528 q 803 420 768 471 q 838 301 838 369 q 797 170 838 229 q 689 70 757 111 q 533 6 621 29 q 350 -17 446 -17 z "},"И":{"ha":1140,"x_min":47,"x_max":1139,"o":"m 47 0 l 242 972 l 464 972 l 335 339 l 925 972 l 1139 972 l 944 0 l 722 0 l 853 632 l 261 0 l 47 0 z "},"Й":{"ha":1140,"x_min":47,"x_max":1139,"o":"m 47 0 l 242 972 l 464 972 l 335 339 l 925 972 l 1139 972 l 944 0 l 722 0 l 853 632 l 261 0 l 47 0 m 701 1032 q 510 1086 571 1032 q 465 1246 450 1140 l 608 1246 q 629 1168 601 1196 q 713 1140 657 1140 q 802 1167 767 1140 q 847 1246 838 1193 l 993 1246 q 903 1084 975 1136 q 701 1032 831 1032 z "},"К":{"ha":1026,"x_min":47,"x_max":1124,"o":"m 47 0 l 242 972 l 467 972 l 272 0 l 47 0 m 285 393 l 321 579 l 661 579 l 625 393 l 285 393 m 692 0 l 482 469 l 669 574 l 933 0 l 692 0 m 675 463 l 458 488 l 871 972 l 1124 972 l 675 463 z "},"Л":{"ha":1110,"x_min":-56,"x_max":1107,"o":"m 56 -17 q 0 -12 26 -17 q -56 -1 -26 -8 l -4 188 q 33 183 14 183 q 125 221 86 183 q 198 345 164 258 q 265 578 232 432 l 360 972 l 1107 972 l 913 0 l 690 0 l 858 840 l 899 789 l 469 789 l 528 843 l 460 554 q 384 284 422 393 q 299 109 346 175 q 193 13 253 43 q 56 -17 133 -17 z "},"М":{"ha":1338,"x_min":47,"x_max":1335,"o":"m 47 0 l 242 972 l 425 972 l 701 283 l 604 285 l 1142 972 l 1335 972 l 1142 0 l 932 0 l 1061 651 l 1103 651 l 675 103 l 574 103 l 346 653 l 386 649 l 257 0 l 47 0 z "},"Н":{"ha":1135,"x_min":46,"x_max":1132,"o":"m 907 972 l 1132 972 l 938 0 l 713 0 l 907 972 m 272 0 l 46 0 l 240 972 l 467 972 l 272 0 m 810 399 l 336 399 l 374 589 l 847 589 l 810 399 z "},"О":{"ha":1178,"x_min":74,"x_max":1149,"o":"m 547 -17 q 294 37 400 -17 q 131 185 188 90 q 74 406 74 281 q 117 637 74 531 q 240 822 160 743 q 430 944 319 900 q 675 989 540 989 q 928 935 822 989 q 1092 787 1035 882 q 1149 567 1149 692 q 1106 335 1149 442 q 983 151 1063 229 q 792 28 903 72 q 547 -17 682 -17 m 567 175 q 715 205 649 175 q 826 288 781 235 q 897 409 872 340 q 921 554 921 478 q 890 681 921 626 q 801 767 860 736 q 656 797 742 797 q 508 767 574 797 q 397 685 443 738 q 326 563 350 632 q 301 418 301 494 q 333 291 301 346 q 423 206 364 236 q 567 175 482 175 z "},"П":{"ha":1128,"x_min":47,"x_max":1126,"o":"m 47 0 l 242 972 l 1126 972 l 932 0 l 710 0 l 874 840 l 914 789 l 372 789 l 435 840 l 269 0 l 47 0 z "},"Р":{"ha":1017,"x_min":40,"x_max":1008,"o":"m 40 0 l 235 972 l 628 972 q 909 892 810 972 q 1008 669 1008 813 q 951 456 1008 547 q 788 317 894 365 q 536 268 682 268 l 221 268 l 340 371 l 267 0 l 40 0 m 335 344 l 256 451 l 546 451 q 719 502 657 451 q 781 650 781 553 q 733 755 781 721 q 600 789 686 789 l 326 789 l 446 899 l 335 344 z "},"С":{"ha":1029,"x_min":74,"x_max":1060,"o":"m 554 -17 q 298 37 406 -17 q 132 185 190 90 q 74 406 74 281 q 117 636 74 529 q 241 822 161 743 q 431 944 321 900 q 678 989 542 989 q 908 944 808 989 q 1060 817 1008 900 l 897 683 q 801 768 860 739 q 663 797 743 797 q 514 769 581 797 q 399 688 447 740 q 326 567 351 636 q 301 419 301 497 q 333 291 301 346 q 426 206 365 236 q 574 175 488 175 q 714 202 649 175 q 832 288 779 229 l 965 151 q 784 23 889 63 q 554 -17 679 -17 z "},"Т":{"ha":885,"x_min":104,"x_max":983,"o":"m 256 0 l 421 840 l 461 789 l 104 789 l 140 972 l 983 972 l 947 789 l 582 789 l 643 840 l 478 0 l 256 0 z "},"У":{"ha":1007,"x_min":32,"x_max":1118,"o":"m 107 186 q 199 171 157 169 q 281 192 242 172 q 356 254 321 213 l 417 318 l 442 342 l 893 972 l 1118 972 l 551 196 q 390 40 476 93 q 213 -17 304 -12 q 32 19 121 -21 l 107 186 m 413 154 l 133 972 l 368 972 l 563 319 l 413 154 z "},"Ф":{"ha":1331,"x_min":65,"x_max":1310,"o":"m 589 61 q 201 153 336 61 q 65 421 65 246 q 144 683 65 571 q 374 856 224 794 q 735 917 525 917 l 794 917 q 1176 823 1042 917 q 1310 554 1310 729 q 1230 291 1310 401 q 1002 121 1150 181 q 651 61 854 61 l 589 61 m 629 235 l 653 235 q 894 268 797 235 q 1039 366 990 301 q 1088 524 1088 431 q 1008 690 1088 638 q 758 742 928 742 l 733 742 q 484 708 583 742 q 336 611 385 675 q 288 451 288 547 q 370 287 288 339 q 629 235 453 235 m 478 -43 l 688 1014 l 896 1014 l 685 -43 l 478 -43 z "},"Х":{"ha":1001,"x_min":-62,"x_max":1086,"o":"m 161 972 l 415 972 l 556 678 l 818 972 l 1086 972 l 669 507 l 914 0 l 653 0 l 494 322 l 204 0 l -62 0 l 389 497 l 161 972 z "},"Ц":{"ha":1168,"x_min":47,"x_max":1121,"o":"m 47 0 l 242 972 l 464 972 l 306 183 l 740 183 l 897 972 l 1121 972 l 926 0 l 47 0 m 817 -206 l 865 53 l 904 0 l 703 0 l 740 183 l 1103 183 l 1025 -206 l 817 -206 z "},"Ч":{"ha":1040,"x_min":83,"x_max":1039,"o":"m 733 360 q 587 317 654 331 q 463 304 519 304 q 173 402 263 304 q 119 676 83 500 l 178 972 l 400 972 l 342 685 q 363 538 322 585 q 497 492 403 492 q 631 508 567 492 q 753 553 696 525 l 733 360 m 622 0 l 817 972 l 1039 972 l 844 0 l 622 0 z "},"Ш":{"ha":1525,"x_min":47,"x_max":1524,"o":"m 667 183 l 606 132 l 772 972 l 994 972 l 828 132 l 788 183 l 1199 183 l 1135 132 l 1301 972 l 1524 972 l 1329 0 l 47 0 l 242 972 l 464 972 l 297 132 l 258 183 l 667 183 z "},"Щ":{"ha":1565,"x_min":47,"x_max":1524,"o":"m 667 183 l 606 132 l 772 972 l 994 972 l 828 132 l 788 183 l 1199 183 l 1135 132 l 1301 972 l 1524 972 l 1329 0 l 47 0 l 242 972 l 464 972 l 297 132 l 258 183 l 667 183 m 1218 -201 l 1269 53 l 1311 0 l 1107 0 l 1146 183 l 1503 183 l 1426 -201 l 1218 -201 z "},"Ъ":{"ha":1178,"x_min":104,"x_max":1133,"o":"m 821 653 q 1053 590 972 653 q 1133 404 1133 528 q 1076 186 1133 276 q 911 48 1018 96 q 657 0 804 0 l 219 0 l 378 789 l 104 789 l 140 972 l 636 972 l 572 653 l 821 653 m 679 167 q 842 220 782 167 q 903 368 903 274 q 860 458 903 429 q 743 486 818 486 l 540 486 l 475 167 l 679 167 z "},"Ы":{"ha":1463,"x_min":47,"x_max":1468,"o":"m 639 653 q 963 388 963 653 q 904 183 963 271 q 738 48 846 96 q 486 0 631 0 l 47 0 l 242 972 l 464 972 l 400 653 l 639 653 m 506 167 q 624 191 574 167 q 703 260 675 215 q 731 363 731 304 q 694 457 731 428 q 576 486 657 486 l 367 486 l 303 167 l 506 167 m 1047 0 l 1242 972 l 1468 972 l 1274 0 l 1047 0 z "},"Ь":{"ha":1007,"x_min":47,"x_max":963,"o":"m 639 653 q 963 388 963 653 q 904 183 963 271 q 738 48 846 96 q 486 0 631 0 l 47 0 l 242 972 l 464 972 l 400 653 l 639 653 m 506 167 q 624 191 574 167 q 703 260 675 215 q 731 363 731 304 q 694 457 731 428 q 576 486 657 486 l 367 486 l 303 167 l 506 167 z "},"Э":{"ha":994,"x_min":-17,"x_max":969,"o":"m 311 406 l 344 578 l 826 578 l 792 406 l 311 406 m 553 989 q 776 936 682 989 q 919 790 869 883 q 969 575 969 697 q 919 342 969 450 q 784 153 869 233 q 588 28 699 72 q 356 -17 478 -17 q 139 26 236 -17 q -17 157 42 69 l 153 290 q 249 203 192 232 q 381 175 306 175 q 520 203 456 175 q 634 283 585 232 q 711 401 683 333 q 739 547 739 469 q 710 678 739 622 q 630 766 682 735 q 504 797 578 797 q 362 769 431 797 q 232 682 293 740 l 115 815 q 312 944 199 899 q 553 989 425 989 z "},"Ю":{"ha":1553,"x_min":47,"x_max":1526,"o":"m 47 0 l 242 972 l 464 972 l 386 590 l 638 590 l 600 396 l 349 396 l 269 0 l 47 0 m 924 -17 q 690 38 790 -17 q 533 188 589 92 q 476 413 476 285 q 524 635 476 531 q 655 818 571 739 q 847 943 739 897 q 1079 989 956 989 q 1313 935 1213 989 q 1470 784 1414 881 q 1526 560 1526 688 q 1479 338 1526 442 q 1348 154 1432 233 q 1155 29 1264 75 q 924 -17 1046 -17 m 943 178 q 1078 207 1014 178 q 1190 288 1142 236 q 1267 407 1239 340 q 1296 547 1296 474 q 1267 678 1296 622 q 1185 764 1238 733 q 1060 794 1132 794 q 924 765 989 794 q 812 684 860 736 q 735 565 764 632 q 707 425 707 499 q 736 294 707 350 q 818 208 765 239 q 943 178 871 178 z "},"Я":{"ha":1024,"x_min":-12,"x_max":1022,"o":"m 606 0 l 667 307 l 713 258 l 446 258 q 191 336 281 258 q 101 551 101 414 q 164 774 101 681 q 338 920 226 868 q 597 972 450 972 l 1022 972 l 828 0 l 606 0 m -12 0 l 300 349 l 538 349 l 236 0 l -12 0 m 682 379 l 775 847 l 818 789 l 571 789 q 443 764 496 789 q 362 691 390 739 q 333 576 333 643 q 374 472 333 508 q 496 436 414 436 l 747 436 l 682 379 z "},"а":{"ha":968,"x_min":47,"x_max":939,"o":"m 369 -11 q 210 28 283 -11 q 92 143 136 68 q 47 324 47 218 q 78 497 47 418 q 167 635 110 576 q 299 726 224 693 q 460 758 374 758 q 619 724 553 758 q 719 616 686 689 q 742 428 751 543 q 688 197 735 296 q 560 43 640 97 q 369 -11 481 -11 m 436 168 q 549 199 500 168 q 627 285 599 231 q 656 414 656 340 q 610 535 656 490 q 485 579 565 579 q 372 548 422 579 q 294 462 322 517 q 265 333 265 407 q 310 213 265 257 q 436 168 356 168 m 585 0 l 614 149 l 663 371 l 692 593 l 722 747 l 939 747 l 790 0 l 585 0 z "},"б":{"ha":940,"x_min":69,"x_max":950,"o":"m 435 -17 q 166 76 263 -17 q 69 358 69 169 q 105 581 69 476 q 207 771 140 686 q 367 913 274 856 q 578 990 461 969 l 950 1058 l 947 876 l 628 819 q 450 753 522 801 q 338 624 378 704 q 283 426 297 543 l 231 486 q 389 626 300 579 q 588 672 478 672 q 811 597 729 672 q 893 385 893 521 q 835 178 893 269 q 675 35 778 88 q 435 -17 572 -17 m 446 147 q 556 175 508 147 q 631 251 604 203 q 658 357 658 299 q 617 467 658 429 q 504 506 576 506 q 418 490 458 506 q 347 447 378 475 q 300 382 317 419 q 283 301 283 344 q 327 189 283 231 q 446 147 371 147 z "},"в":{"ha":864,"x_min":29,"x_max":821,"o":"m 29 0 l 179 747 l 554 747 q 751 701 682 747 q 821 569 821 656 q 738 417 821 475 q 518 360 656 360 l 536 408 q 717 365 656 408 q 778 233 778 322 q 688 63 778 125 q 438 0 599 0 l 29 0 m 258 147 l 442 147 q 542 174 506 147 q 579 244 579 200 q 555 296 579 279 q 481 313 531 313 l 292 313 l 258 147 m 317 440 l 481 440 q 575 466 539 440 q 611 533 611 492 q 586 585 611 568 q 513 601 561 601 l 349 601 l 317 440 z "},"г":{"ha":714,"x_min":29,"x_max":776,"o":"m 29 0 l 179 747 l 776 747 l 742 569 l 308 569 l 367 617 l 246 0 l 29 0 z "},"д":{"ha":972,"x_min":-93,"x_max":908,"o":"m 563 97 l 657 569 l 413 569 l 388 465 q 359 353 374 406 q 325 256 344 300 q 279 184 306 213 q 213 144 253 156 l -8 178 q 63 203 32 178 q 119 274 94 229 q 163 377 143 319 q 197 497 182 435 l 257 747 l 908 747 l 779 97 l 563 97 m -93 -161 l -25 178 l 903 178 l 835 -161 l 633 -161 l 665 0 l 140 0 l 108 -161 l -93 -161 z "},"е":{"ha":879,"x_min":46,"x_max":842,"o":"m 428 -11 q 226 31 311 -11 q 93 147 140 72 q 46 324 46 222 q 102 547 46 449 q 258 701 158 644 q 486 758 357 758 q 675 717 596 758 q 798 603 754 676 q 842 429 842 531 q 838 371 842 400 q 829 315 835 342 l 211 315 l 233 442 l 728 442 l 639 403 q 632 508 650 465 q 574 573 614 550 q 476 596 533 596 q 356 562 406 596 q 282 468 307 528 q 257 333 257 408 q 305 205 257 247 q 450 163 353 163 q 560 181 507 163 q 650 232 613 199 l 740 89 q 594 13 675 38 q 428 -11 513 -11 z "},"ж":{"ha":1269,"x_min":-68,"x_max":1324,"o":"m 935 0 l 803 356 l 993 439 l 1186 0 l 935 0 m 663 288 l 696 456 l 956 456 l 922 288 l 663 288 m 1003 351 l 796 372 l 1086 747 l 1324 747 l 1003 351 m 196 0 l -68 0 l 301 457 l 463 356 l 196 0 m 669 0 l 454 0 l 603 747 l 819 747 l 669 0 m 575 288 l 317 288 l 350 456 l 608 456 l 575 288 m 265 351 l 104 747 l 329 747 l 468 372 l 265 351 z "},"з":{"ha":757,"x_min":-26,"x_max":710,"o":"m 281 -14 q -26 63 115 -14 l 46 208 q 157 167 93 182 q 289 153 221 153 q 388 165 347 153 q 450 198 428 176 q 472 249 472 219 q 446 297 472 281 q 368 314 419 314 l 215 314 l 236 449 l 364 449 q 460 469 425 449 q 496 525 496 490 q 466 576 496 558 q 372 594 436 594 q 267 581 319 594 q 147 538 214 567 l 101 700 q 247 746 172 731 q 393 761 322 761 q 558 736 486 761 q 669 666 629 711 q 710 560 710 621 q 678 464 710 507 q 592 394 647 421 q 464 364 536 368 l 458 404 q 620 352 560 397 q 681 231 681 307 q 628 106 681 161 q 487 18 576 50 q 281 -14 397 -14 z "},"и":{"ha":988,"x_min":29,"x_max":958,"o":"m 29 0 l 179 747 l 396 747 l 303 293 l 754 747 l 958 747 l 810 0 l 592 0 l 686 456 l 235 0 l 29 0 z "},"й":{"ha":988,"x_min":29,"x_max":958,"o":"m 29 0 l 179 747 l 396 747 l 303 293 l 754 747 l 958 747 l 810 0 l 592 0 l 686 456 l 235 0 l 29 0 m 582 829 q 403 883 457 829 q 368 1043 349 938 l 508 1043 q 522 965 499 993 q 594 938 546 938 q 674 965 643 938 q 717 1043 706 992 l 860 1043 q 771 882 840 935 q 582 829 701 829 z "},"к":{"ha":889,"x_min":29,"x_max":949,"o":"m 560 0 l 390 356 l 569 438 l 810 0 l 560 0 m 29 0 l 179 747 l 396 747 l 246 0 l 29 0 m 240 283 l 272 457 l 535 457 l 501 283 l 240 283 m 578 347 l 374 372 l 713 747 l 949 747 l 578 347 z "},"л":{"ha":925,"x_min":-65,"x_max":896,"o":"m -65 1 l -18 179 q -1 177 -8 178 q 15 176 7 176 q 90 210 60 176 q 143 305 121 243 q 185 449 165 367 l 257 747 l 896 747 l 746 0 l 529 0 l 654 624 l 693 571 l 364 571 l 419 626 l 374 438 q 315 235 346 321 q 248 94 285 150 q 163 12 211 39 q 49 -15 114 -15 q -7 -11 19 -15 q -65 1 -33 -7 z "},"м":{"ha":1132,"x_min":29,"x_max":1101,"o":"m 29 0 l 179 747 l 403 747 l 583 236 l 493 236 l 896 747 l 1101 747 l 954 0 l 758 0 l 861 525 l 893 503 l 553 72 l 461 72 l 292 518 l 329 528 l 225 0 l 29 0 z "},"н":{"ha":964,"x_min":29,"x_max":935,"o":"m 29 0 l 179 747 l 394 747 l 336 456 l 661 456 l 719 747 l 935 747 l 786 0 l 569 0 l 625 279 l 301 279 l 246 0 l 29 0 z "},"о":{"ha":915,"x_min":43,"x_max":871,"o":"m 419 -11 q 221 31 306 -11 q 90 147 136 72 q 43 324 43 222 q 101 547 43 449 q 262 701 160 644 q 494 758 364 758 q 694 717 610 758 q 824 601 778 675 q 871 424 871 526 q 813 201 871 300 q 653 46 754 103 q 419 -11 551 -11 m 433 167 q 547 198 497 167 q 624 285 596 229 q 651 414 651 340 q 607 535 651 489 q 482 581 563 581 q 369 549 418 581 q 291 463 319 518 q 263 333 263 407 q 307 212 263 257 q 433 167 351 167 z "},"п":{"ha":951,"x_min":29,"x_max":922,"o":"m 29 0 l 179 747 l 922 747 l 772 0 l 556 0 l 676 618 l 715 569 l 307 569 l 367 618 l 246 0 l 29 0 z "},"р":{"ha":968,"x_min":-24,"x_max":922,"o":"m 508 -11 q 351 24 418 -11 q 250 131 283 58 q 226 319 217 204 q 281 551 235 453 q 408 704 328 650 q 599 758 489 758 q 760 719 686 758 q 878 605 833 679 q 922 424 922 531 q 890 251 922 331 q 802 113 858 171 q 671 22 746 54 q 508 -11 596 -11 m -24 -269 l 179 747 l 385 747 l 354 599 l 307 376 l 278 154 l 193 -269 l -24 -269 m 483 168 q 597 199 549 168 q 674 285 646 231 q 703 414 703 340 q 658 535 703 490 q 532 579 614 579 q 419 548 469 579 q 342 462 369 517 q 314 333 314 407 q 358 213 314 257 q 483 168 403 168 z "},"с":{"ha":839,"x_min":43,"x_max":835,"o":"m 424 -11 q 223 31 308 -11 q 90 147 138 72 q 43 324 43 222 q 101 547 43 449 q 263 701 160 644 q 499 758 365 758 q 706 709 618 758 q 835 569 793 660 l 651 478 q 585 555 628 531 q 485 579 543 579 q 371 548 421 579 q 292 462 321 517 q 263 335 263 407 q 308 213 263 258 q 436 168 353 168 q 540 192 493 168 q 619 268 588 217 l 779 168 q 633 36 726 83 q 424 -11 539 -11 z "},"т":{"ha":743,"x_min":50,"x_max":807,"o":"m 189 0 l 310 619 l 349 569 l 50 569 l 86 747 l 807 747 l 771 569 l 467 569 l 526 619 l 406 0 l 189 0 z "},"у":{"ha":854,"x_min":-114,"x_max":928,"o":"m 89 -281 q -24 -262 32 -281 q -114 -215 -81 -244 l -14 -60 q 40 -93 10 -81 q 106 -106 69 -106 q 178 -85 147 -106 q 240 -14 210 -64 l 300 81 l 319 103 l 714 747 l 928 747 l 431 -50 q 324 -188 375 -137 q 217 -260 274 -239 q 89 -281 161 -281 m 254 -29 l 75 747 l 292 747 l 428 122 l 254 -29 z "},"ф":{"ha":1174,"x_min":38,"x_max":1133,"o":"m 494 -12 q 154 71 271 -11 q 38 315 38 153 q 110 551 38 451 q 316 705 182 651 q 633 758 450 758 l 683 758 q 1019 675 904 757 q 1133 431 1133 593 q 1063 197 1133 296 q 864 42 993 97 q 557 -12 735 -12 l 494 -12 m 535 156 l 554 156 q 760 185 676 156 q 888 271 844 214 q 931 407 931 328 q 865 547 931 504 q 650 589 799 589 l 626 589 q 415 560 500 589 q 285 476 329 532 q 242 342 242 421 q 313 199 242 242 q 535 156 383 157 m 364 -269 l 624 1031 l 813 1031 l 553 -269 l 364 -269 z "},"х":{"ha":825,"x_min":-74,"x_max":892,"o":"m -74 0 l 357 442 l 329 332 l 101 747 l 326 747 l 482 460 l 382 461 l 653 747 l 892 747 l 481 319 l 499 435 l 740 0 l 511 0 l 351 297 l 453 297 l 174 0 l -74 0 z "},"ц":{"ha":978,"x_min":29,"x_max":913,"o":"m 29 0 l 179 747 l 394 747 l 281 178 l 582 178 l 696 747 l 913 747 l 763 0 l 29 0 m 638 -161 l 671 3 l 719 0 l 547 0 l 582 178 l 907 178 l 839 -161 l 638 -161 z "},"ч":{"ha":879,"x_min":46,"x_max":850,"o":"m 561 282 q 455 244 513 257 q 336 231 397 231 q 115 302 183 231 q 74 521 46 374 l 119 747 l 336 747 l 289 518 q 303 423 276 449 q 389 397 329 397 q 489 411 440 397 q 581 446 538 425 l 561 282 m 485 0 l 633 747 l 850 747 l 700 0 l 485 0 z "},"ш":{"ha":1349,"x_min":29,"x_max":1319,"o":"m 579 178 l 521 128 l 642 747 l 858 747 l 738 128 l 697 178 l 1042 178 l 982 128 l 1103 747 l 1319 747 l 1169 0 l 29 0 l 179 747 l 394 747 l 274 128 l 235 178 l 579 178 z "},"щ":{"ha":1382,"x_min":29,"x_max":1319,"o":"m 579 178 l 521 128 l 642 747 l 858 747 l 738 128 l 697 178 l 1042 178 l 982 128 l 1103 747 l 1319 747 l 1169 0 l 29 0 l 179 747 l 394 747 l 274 128 l 235 178 l 579 178 m 1043 -149 l 1083 50 l 1121 0 l 949 0 l 985 178 l 1311 178 l 1244 -149 l 1043 -149 z "}}}
